<?xml version="1.0" encoding="utf-8"?>
<!-- Generator: Adobe Illustrator 22.0.0, SVG Export Plug-In . SVG Version: 6.00 Build 0)  -->
<svg version="1.1" id="Layer_1" xmlns="http://www.w3.org/2000/svg" xmlns:xlink="http://www.w3.org/1999/xlink" x="0px" y="0px"
	 viewBox="0 0 40.6 36.6" style="enable-background:new 0 0 40.6 36.6;" xml:space="preserve">
<g>
	<path d="M20.3,36.6c-7.4,0-14-4.3-16.8-11.1c0-0.1-0.2-0.3-0.4-0.3c-0.9-0.3-1.6-0.5-2-0.7c-0.5-0.2-0.6-0.2-0.7-0.2L0,24.2V12.3
		l0.5-0.2c0,0,0,0,0,0c0.1,0,0.4-0.1,1.8-0.6l1-0.4L3.5,11c0.1,0,0.2-0.1,0.2-0.3C6.6,4.2,13.2,0,20.3,0C27.5,0,34,4.2,37,10.8
		c0,0.1,0.2,0.3,0.4,0.3c1.7,0.5,2.6,0.9,2.8,1l0.4,0.2v11.8l-0.5,0.2c0,0,0,0,0,0c0,0-0.2,0.1-0.9,0.3c-0.5,0.2-1.1,0.4-1.9,0.7
		l-0.1,0.1c-0.1,0-0.2,0.1-0.2,0.3C34.1,32.3,27.6,36.6,20.3,36.6z M6.6,26.2c-0.2,0-0.4,0.1-0.5,0.3C6,26.6,6,26.8,6.1,27
		c3,5,8.3,8,14.2,8c5.8,0,11.1-3,14.2-7.9c0.1-0.2,0.1-0.5-0.1-0.6c-0.1-0.1-0.2-0.2-0.4-0.2c-0.1,0-0.1,0-0.2,0
		c-4.9,1.3-9.4,2-13.5,2c-4.8,0-10-1.2-13.6-2.1C6.7,26.2,6.6,26.2,6.6,26.2z M1.9,13.3c-0.2,0-0.3,0.3-0.3,0.5v8.9
		c0,0.2,0.2,0.5,0.4,0.5c4,1.3,11.8,3.6,18.3,3.6c7.3,0,14.7-2.3,18.5-3.6c0,0,0,0,0,0c0.2,0,0.3-0.3,0.3-0.5v-8.9
		c0-0.2-0.2-0.5-0.4-0.5c-2.4-0.8-11-3.6-18.5-3.6C16.6,9.7,10.6,10.3,1.9,13.3C1.9,13.3,1.9,13.3,1.9,13.3z M20.1,8
		c4.9,0,10.1,1.1,13.5,2c0,0,0.1,0,0.2,0c0.2,0,0.4-0.1,0.5-0.3c0.1-0.2,0.1-0.4,0-0.5c-3.1-4.8-8.3-7.6-14-7.6
		c-5.6,0-10.8,2.8-14,7.6C6.2,9.4,6.3,9.7,6.4,9.8C6.5,9.9,6.6,10,6.8,10c0.1,0,0.1,0,0.2,0C11.8,8.7,16.3,8,20.1,8z"/>
	<path d="M18.3,21.7c-0.1,0-0.3-0.1-0.3-0.4v-7.4c0-0.2,0.1-0.3,0.2-0.3c0,0,0.1,0,0.1,0l6.4,3.8c0.1,0,0.1,0.1,0.1,0.1
		c0,0.1,0,0.2-0.1,0.3l-6.4,3.7C18.3,21.7,18.3,21.7,18.3,21.7z"/>
</g>
</svg>
