<svg height="32" viewBox="0 0 32 32" width="32" xmlns="http://www.w3.org/2000/svg"><path d="m28.316 10.496-2.649-7.946c-.065-.195-.248-.327-.454-.327h-18.54c-.206 0-.389.132-.454.327l-2.649 7.946c-.016.049-.025.1-.025.151v18.54c0 .264.214.478.478.478h23.837c.264 0 .478-.214.478-.478v-18.54c0-.051-.008-.102-.025-.151zm-1.053-.135c-.981.717-2.077 1.057-3.43 1.057-1.225 0-2.407-.381-3.438-1.097v-7.143h4.474l2.394 7.182zm-14.814-7.182h6.989v7.144c-1.03.715-2.212 1.096-3.437 1.096-1.272 0-2.494-.412-3.552-1.184zm-5.431 0h4.474v7.056c-1.057.772-2.279 1.184-3.552 1.184-1.199 0-2.344-.347-3.336-1l2.413-7.24zm-2.515 25.529v-17.233c1.046.588 2.217.9 3.437.9 1.442 0 2.828-.448 4.03-1.3 1.202.852 2.588 1.3 4.03 1.3 1.394 0 2.741-.419 3.916-1.215 1.176.796 2.522 1.215 3.916 1.215 1.349 0 2.517-.314 3.551-.946v17.279z"/><path d="m20.665 14.632h-9.443c-.264 0-.478.214-.478.478v8.778c0 .264.214.478.478.478h9.443c.264 0 .478-.214.478-.478v-8.778c0-.264-.214-.478-.478-.478zm-8.965.957h3.813v7.822h-3.813zm8.487 7.822h-3.716v-7.822h3.716z"/></svg>