<svg height="32" viewBox="0 0 32 32" width="32" xmlns="http://www.w3.org/2000/svg"><path d="m27.25 17.537c.057 0 .114-.011.167-.033s.101-.054.142-.095.073-.089.095-.142.033-.11.033-.167v-3.187c0-.116-.046-.227-.129-.309s-.193-.128-.309-.128h-1.414c-.509-.284-.917-.721-1.165-1.249-.319-.678-.356-1.456-.103-2.161s.776-1.282 1.454-1.602c.105-.049.186-.139.225-.248s.034-.229-.016-.334l-1.36-2.884c-.049-.105-.139-.186-.248-.225s-.229-.033-.334.016l-18.425 8.688h-1.115c-.116 0-.227.046-.309.128s-.128.193-.128.309v3.187c0 .116.046.227.128.309s.193.128.309.128c.745.007 1.458.308 1.982.838s.819 1.245.819 1.99-.294 1.461-.819 1.99-1.237.831-1.982.838c-.057 0-.114.011-.167.033s-.101.054-.142.095-.073.089-.095.142-.033.11-.033.167v3.187c0 .116.046.227.128.309s.193.128.309.128h22.5c.116 0 .227-.046.309-.128s.128-.193.128-.309v-3.187c0-.057-.011-.114-.033-.167s-.054-.101-.095-.142-.089-.073-.142-.095-.11-.033-.167-.033c-.745-.007-1.458-.308-1.982-.838s-.819-1.245-.819-1.99.294-1.461.819-1.99 1.237-.831 1.982-.838zm-2.983-11.772.997 2.115c-.456.285-.844.667-1.138 1.117s-.486.96-.563 1.492-.037 1.075.117 1.591.418.991.775 1.394h-16.538l16.35-7.71zm-.72 14.6c.001.906.334 1.78.936 2.457s1.43 1.111 2.329 1.219v2.338h-21.625v-2.338c.9-.107 1.729-.541 2.331-1.218s.934-1.552.934-2.459-.332-1.781-.934-2.459-1.431-1.111-2.331-1.218v-2.338h21.625v2.338c-.899.108-1.728.542-2.33 1.219s-.934 1.552-.935 2.458z"/><path d="m21.084 15.13c-.057 0-.114.011-.167.033s-.101.054-.142.095-.073.089-.095.142-.033.11-.033.167v1.791c0 .116.046.227.128.309s.193.128.309.128.227-.046.309-.128.128-.193.128-.309v-1.791c0-.057-.011-.114-.033-.167s-.054-.101-.095-.142-.089-.073-.142-.095-.11-.033-.167-.033z"/><path d="m17.102 16.525h-6.915c-.116 0-.227.046-.309.128s-.128.193-.128.309.046.227.128.309.193.128.309.128h6.915c.116 0 .227-.046.309-.128s.128-.193.128-.309-.046-.227-.128-.309-.193-.128-.309-.128z"/><path d="m17.102 19.927h-6.915c-.116 0-.227.046-.309.128s-.128.193-.128.309.046.227.128.309.193.128.309.128h6.915c.116 0 .227-.046.309-.128s.128-.193.128-.309-.046-.227-.128-.309-.193-.128-.309-.128z"/><path d="m17.102 23.329h-6.915c-.116 0-.227.046-.309.128s-.128.193-.128.309.046.227.128.309.193.128.309.128h6.915c.116 0 .227-.046.309-.128s.128-.193.128-.309-.046-.227-.128-.309-.193-.128-.309-.128z"/><path d="m21.084 19.031c-.116 0-.227.046-.309.128s-.128.193-.128.309v1.792c0 .116.046.227.128.309s.193.128.309.128.227-.046.309-.128.128-.193.128-.309v-1.792c0-.116-.046-.227-.128-.309s-.193-.128-.309-.128z"/><path d="m21.084 22.932c-.116 0-.227.046-.309.128s-.128.193-.128.309v1.792c0 .116.046.227.128.309s.193.128.309.128.227-.046.309-.128.128-.193.128-.309v-1.792c0-.116-.046-.227-.128-.309s-.193-.128-.309-.128z"/></svg>