<svg height="32" viewBox="0 0 32 32" width="32" xmlns="http://www.w3.org/2000/svg"><path d="m30.097 15.828h-2.474v-4.175c0-.264-.214-.478-.478-.478h-7.749v-4.167c0-.264-.214-.478-.478-.478h-17.125c-.264 0-.478.214-.478.478v15.684c0 .264.214.478.478.478h3.998c.166 1.233 1.222 2.188 2.499 2.188s2.333-.955 2.499-2.188h11.217c.166 1.233 1.223 2.188 2.501 2.188s2.335-.955 2.502-2.188h3.089c.264 0 .478-.214.478-.478v-6.385c0-.264-.215-.478-.479-.478zm-21.808 8.574c-.864 0-1.568-.704-1.568-1.569s.703-1.569 1.568-1.569c.864 0 1.568.704 1.568 1.569s-.703 1.569-1.568 1.569zm0-4.095c-1.178 0-2.167.813-2.444 1.907h-3.575v-14.727h16.169v14.727h-7.705c-.277-1.093-1.267-1.906-2.445-1.906zm16.218 4.095c-.866 0-1.57-.704-1.57-1.569s.704-1.569 1.57-1.569 1.57.704 1.57 1.569-.705 1.569-1.57 1.569zm5.111-2.189h-2.665c-.277-1.094-1.268-1.907-2.447-1.907s-2.169.813-2.446 1.907h-2.665v-10.082h7.271v4.175c0 .264.214.478.478.478h2.474v5.428z"/></svg>