<?xml version="1.0" encoding="utf-8"?>
<!-- Generator: Adobe Illustrator 24.1.1, SVG Export Plug-In . SVG Version: 6.00 Build 0)  -->
<svg version="1.1" id="Layer_1" xmlns="http://www.w3.org/2000/svg" xmlns:xlink="http://www.w3.org/1999/xlink" x="0px" y="0px"
	 viewBox="0 0 188 147.1" style="enable-background:new 0 0 188 147.1;" xml:space="preserve">
<style type="text/css">
	.st0{fill:#020202;}
</style>
<g>
	<g>
		<path class="st0" d="M164.1,49.5c-2.4-0.1-4.5,1.9-4.6,4.4c-0.1,4.2-0.9,8.3-2.5,12.2c-1.6,4-3.9,7.6-6.9,10.8l-65.9,59.8
			L18.3,76.9c-3-3.2-5.3-6.8-6.9-10.8c-7.2-18,1.7-38.3,19.8-45.5c8.8-3.4,18.4-3.3,27.1,0.4c8.7,3.7,15.4,10.5,18.8,19.2
			c1.7,4.2,2.6,8.5,2.6,12.7c0,2.5,2,4.4,4.5,4.4c2.5,0,4.5-2,4.5-4.4c0-4.2,0.9-8.4,2.6-12.7c5.5-13.7,19.1-22.6,34-22.1
			c2.5,0.1,4.5-1.9,4.6-4.3c0.1-2.5-1.9-4.5-4.3-4.6C108,8.7,91.8,18.5,84.2,34c-4.6-9.5-12.5-17-22.3-21.2C51,8.2,39,8,28,12.3
			C5.3,21.2-5.9,46.8,3.1,69.3c2,5.1,5,9.7,8.8,13.7c0.1,0.1,0.2,0.2,0.3,0.3l69.1,62.6c0.9,0.8,1.9,1.2,3,1.2c1.1,0,2.2-0.4,3-1.2
			l69.1-62.6c0.1-0.1,0.2-0.2,0.3-0.3c3.8-4,6.7-8.6,8.8-13.7c2-4.9,3-10,3.1-15.3C168.5,51.6,166.6,49.6,164.1,49.5z M166.2,27.9
			l20.5-20.3c1.8-1.7,1.8-4.6,0-6.3c-1.8-1.7-4.6-1.7-6.3,0l-20.5,20.3L139.3,1.3c-1.8-1.7-4.6-1.7-6.3,0c-1.8,1.7-1.8,4.6,0,6.3
			l20.5,20.3L133,48.2c-1.8,1.7-1.8,4.6,0,6.3c0.9,0.9,2,1.3,3.2,1.3c1.1,0,2.3-0.4,3.2-1.3l20.5-20.3l20.5,20.3
			c0.9,0.9,2,1.3,3.2,1.3c1.1,0,2.3-0.4,3.2-1.3c1.8-1.7,1.8-4.6,0-6.3L166.2,27.9z"/>
	</g>
</g>
</svg>
