<!-- Generated by IcoMoon.io -->
<svg version="1.1" xmlns="http://www.w3.org/2000/svg" width="30" height="32" viewBox="0 0 30 32">
<title>account</title>
<path d="M6.116 22.523c2.632-1.515 5.81-2.313 9.042-2.313s6.41 0.798 9.042 2.313c2.631 1.514 4.631 3.7 5.558 6.295 0.313 0.876-0.143 1.84-1.019 2.153s-1.84-0.143-2.153-1.019c-0.608-1.703-1.991-3.314-4.066-4.508s-4.663-1.864-7.362-1.864-5.288 0.67-7.362 1.864c-2.075 1.194-3.458 2.805-4.066 4.508-0.313 0.876-1.277 1.332-2.153 1.019s-1.332-1.277-1.019-2.153c0.927-2.594 2.927-4.78 5.558-6.295z"></path>
<path d="M15.158 3.368c-2.79 0-5.053 2.262-5.053 5.053s2.262 5.053 5.053 5.053c2.791 0 5.053-2.262 5.053-5.053s-2.262-5.053-5.053-5.053zM6.737 8.421c0-4.651 3.77-8.421 8.421-8.421s8.421 3.77 8.421 8.421-3.77 8.421-8.421 8.421c-4.651 0-8.421-3.77-8.421-8.421z"></path>
</svg>
