<svg height="32" viewBox="0 0 32 32" width="32" xmlns="http://www.w3.org/2000/svg"><path d="m15.467 32c-.186 0-.371-.048-.538-.146-.546-.317-13.33-7.891-13.33-17.987 0-7.646 6.221-13.867 13.867-13.867s13.867 6.221 13.867 13.867c0 10.096-12.784 17.67-13.33 17.987-.166.098-.352.146-.538.146zm0-29.867c-6.47 0-11.733 5.264-11.733 11.733 0 7.787 9.365 14.291 11.733 15.811 2.368-1.518 11.733-8.024 11.733-15.81 0-6.47-5.264-11.734-11.733-11.734zm0 18.134c-3.53 0-6.4-2.87-6.4-6.4s2.87-6.4 6.4-6.4 6.4 2.87 6.4 6.4-2.872 6.4-6.4 6.4zm0-10.667c-2.354 0-4.267 1.914-4.267 4.267s1.914 4.267 4.267 4.267c2.354 0 4.267-1.914 4.267-4.267s-1.915-4.267-4.267-4.267z"/></svg>