<!-- Generated by IcoMoon.io -->
<svg version="1.1" xmlns="http://www.w3.org/2000/svg" width="32" height="32" viewBox="0 0 32 32">
<title>automotive</title>
<path d="M16 0c-8.816 0-16 7.184-16 16s7.184 16 16 16c8.816 0 16-7.184 16-16s-7.184-16-16-16zM16 29.712c-7.568 0-13.712-6.16-13.712-13.712s6.144-13.712 13.712-13.712c7.568 0 13.712 6.16 13.712 13.712s-6.144 13.712-13.712 13.712z"></path>
<path d="M16 4.576c-6.304 0-11.424 5.12-11.424 11.424s5.12 11.424 11.424 11.424c6.304 0 11.424-5.12 11.424-11.424s-5.12-11.424-11.424-11.424zM23.904 11.44l-4.288 1.808c-0.608-0.8-1.472-1.392-2.48-1.648v-4.656c2.896 0.352 5.376 2.080 6.768 4.496zM13.712 16c0-1.248 1.008-2.288 2.288-2.288s2.288 1.040 2.288 2.288c0 1.264-1.024 2.288-2.288 2.288s-2.288-1.024-2.288-2.288zM14.864 6.944v4.656c-1.008 0.256-1.872 0.832-2.48 1.632l-4.288-1.792c1.392-2.416 3.872-4.144 6.768-4.496zM7.2 13.536l4.288 1.808c-0.176 1.264 0.112 2.368 0.816 3.328l-2.96 3.584c-2.144-2.272-3.040-5.52-2.144-8.72zM11.12 23.712l2.96-3.584c0.592 0.272 1.232 0.448 1.92 0.448 0.8 0 1.536-0.224 2.192-0.592l2.848 3.632c-1.44 0.96-3.184 1.52-5.040 1.52-1.792 0-3.456-0.512-4.88-1.424zM22.768 22.128l-2.896-3.712c0.64-1.008 0.8-2.016 0.64-3.072l4.288-1.808c0.88 3.152 0.016 6.32-2.032 8.592z"></path>
</svg>
