<svg width="24" height="24" viewBox="0 0 24 24" fill="none" xmlns="http://www.w3.org/2000/svg">
<path fill-rule="evenodd" clip-rule="evenodd" d="M8.35681 12.9474C7.85379 12.9474 7.44601 12.5468 7.44601 12.0526L7.44601 8.47368C7.44601 6.00294 9.4849 4 12 4C14.5151 4 16.554 6.00294 16.554 8.47368V12.0526C16.554 12.5468 16.1462 12.9474 15.6432 12.9474C15.1402 12.9474 14.7324 12.5468 14.7324 12.0526L14.7324 8.47368C14.7324 6.99123 13.5091 5.78947 12 5.78947C10.4909 5.78947 9.26761 6.99123 9.26761 8.47368L9.26761 12.0526C9.26761 12.5468 8.85983 12.9474 8.35681 12.9474Z" fill="white"/>
<path fill-rule="evenodd" clip-rule="evenodd" d="M8.00898 8.47368C8.02787 8.47368 8.04682 8.47368 8.06584 8.47368L15.991 8.47368C16.7379 8.47364 17.3846 8.4736 17.9068 8.54021C18.4681 8.61181 19.0069 8.7727 19.4604 9.18263C19.9139 9.59255 20.1219 10.1067 20.2411 10.6502C20.352 11.1559 20.4057 11.789 20.4677 12.5202L20.9404 18.0929C20.9419 18.11 20.9433 18.1271 20.9448 18.1441C20.9795 18.553 21.013 18.9467 20.9949 19.2722C20.9747 19.6371 20.8851 20.0621 20.5478 20.4222C20.2105 20.7823 19.7869 20.9053 19.4184 20.9554C19.0896 21.0001 18.6875 21.0001 18.2698 21C18.2524 21 18.2349 21 18.2175 21H5.78253C5.76506 21 5.74761 21 5.73019 21C5.31253 21.0001 4.91039 21.0001 4.58163 20.9554C4.21314 20.9053 3.78948 20.7823 3.4522 20.4222C3.11492 20.0621 3.02533 19.6371 3.00507 19.2722C2.98699 18.9467 3.02046 18.553 3.05523 18.1441C3.05668 18.1271 3.05813 18.11 3.05958 18.0929L3.52758 12.5758C3.52916 12.5572 3.53074 12.5387 3.5323 12.5202C3.59429 11.789 3.64796 11.1559 3.75889 10.6502C3.87813 10.1067 4.0861 9.59255 4.5396 9.18263C4.99311 8.7727 5.53194 8.61181 6.09321 8.54021C6.61538 8.4736 7.26209 8.47364 8.00898 8.47368ZM6.32778 10.3148C5.96278 10.3613 5.84239 10.4368 5.77302 10.4995C5.70365 10.5622 5.61714 10.6738 5.5396 11.0272C5.45655 11.4058 5.411 11.9216 5.34289 12.7244L4.87488 18.2415C4.83419 18.7212 4.8136 18.9882 4.82396 19.1748C4.82409 19.1772 4.82423 19.1795 4.82437 19.1819C4.82671 19.1822 4.82911 19.1825 4.83155 19.1829C5.01989 19.2085 5.29253 19.2105 5.78253 19.2105H18.2175C18.7075 19.2105 18.9801 19.2085 19.1685 19.1829C19.1709 19.1825 19.1733 19.1822 19.1756 19.1819C19.1758 19.1795 19.1759 19.1772 19.176 19.1748C19.1864 18.9882 19.1658 18.7212 19.1251 18.2415L18.6571 12.7244C18.589 11.9216 18.5434 11.4058 18.4604 11.0272C18.3829 10.6738 18.2964 10.5622 18.227 10.4995C18.1576 10.4368 18.0372 10.3613 17.6722 10.3148C17.2813 10.2649 16.7543 10.2632 15.9342 10.2632H8.06584C7.2457 10.2632 6.71867 10.2649 6.32778 10.3148Z" fill="white"/>
</svg>
