<!-- Generated by IcoMoon.io -->
<svg version="1.1" xmlns="http://www.w3.org/2000/svg" width="30" height="32" viewBox="0 0 30 32">
<title>beauty-health</title>
<path d="M27.135 19.904v-4.848h-9.824c0.256-1.904-0.112-3.792-1.056-5.44-0.8-1.408-2.016-2.576-3.44-3.344v-6.272h-8.256v6.288c-1.408 0.784-2.608 1.952-3.408 3.36-0.96 1.664-1.328 3.536-1.072 5.424l2.288 16.928h24.288l0.288-0.368c1.424-1.856 2.208-3.984 2.192-6 0.016-1.904-0.688-3.936-2-5.728zM25.247 19.264h-11.936v-2.336h11.936v2.336zM9.455 24.928l-0.208 0.128c-0.128 0.048-0.272 0.064-0.4 0.064-1.424 0-3.024-2.512-3.024-6.096s1.6-6.096 3.024-6.096c1.008 0 2.016 1.2 2.576 3.008v3.968c-1.136 1.424-1.824 3.184-1.968 5.024zM6.447 1.888h4.496v4.032h-4.496v-4.032zM1.935 14.816c-0.192-1.472 0.096-2.944 0.848-4.24 0.688-1.184 1.728-2.16 2.944-2.784h5.952c2.656 1.28 4.176 4.080 3.776 7.008l-0.048 0.256h-2.272c-0.848-2.512-2.448-4.032-4.288-4.032-2.752 0-4.912 3.504-4.912 7.984s2.16 7.984 4.912 7.984c0.224 0 0.448-0.032 0.672-0.064 0.16 1.12 0.512 2.208 1.056 3.2h-6.56l-2.080-15.312zM25.711 30.112h-12.896c-0.976-1.28-1.504-2.864-1.504-4.48s0.528-3.2 1.504-4.48h12.896c1.008 1.44 1.552 3.008 1.536 4.48v0.016c0.016 1.456-0.528 3.040-1.536 4.464z"></path>
</svg>
