<!-- Generated by IcoMoon.io -->
<svg version="1.1" xmlns="http://www.w3.org/2000/svg" width="39" height="32" viewBox="0 0 39 32">
<title>bed</title>
<path d="M36.328 14.8v-8.48c0-1.192-0.968-2.16-2.16-2.16h-3.624c-1.496 0-2.952-0.536-4.096-1.504-2.016-1.712-4.592-2.656-7.248-2.656s-5.232 0.944-7.256 2.664c-1.144 0.968-2.592 1.504-4.096 1.504h-3.624c-1.192 0-2.16 0.968-2.16 2.16v8.472c-1.248 0.912-2.064 2.384-2.064 4.048v11.704c0 0.736 0.6 1.336 1.336 1.336h1.28c0.736 0 1.336-0.6 1.336-1.336v-1.080c0-0.584 0.48-1.064 1.064-1.064h28.376c0.584 0 1.064 0.48 1.064 1.064v1.080c0 0.736 0.6 1.336 1.336 1.336h1.28c0.736 0 1.336-0.6 1.336-1.336v-11.704c-0.008-1.664-0.824-3.136-2.080-4.048zM3.192 6.32c0-0.568 0.464-1.032 1.032-1.032h3.624c1.768 0 3.48-0.632 4.824-1.768 1.816-1.544 4.136-2.4 6.528-2.4s4.712 0.848 6.528 2.4c1.344 1.144 3.056 1.768 4.824 1.768h3.624c0.568 0 1.032 0.464 1.032 1.032v7.856c-0.568-0.224-1.176-0.344-1.816-0.344h-1.92v-4.336c0-0.848-0.688-1.536-1.536-1.536h-6.8c-0.848 0-1.536 0.688-1.536 1.536v0.648c0 0.312 0.248 0.56 0.56 0.56s0.56-0.248 0.56-0.56v-0.648c0-0.224 0.184-0.408 0.408-0.408h6.8c0.224 0 0.408 0.184 0.408 0.408v4.336h-7.616v-1.056c0-0.312-0.248-0.56-0.56-0.56s-0.56 0.248-0.56 0.56v1.056h-4.792v-4.336c0-0.848-0.688-1.536-1.536-1.536h-6.8c-0.848 0-1.536 0.688-1.536 1.536v4.336h-1.92c-0.64 0-1.256 0.12-1.816 0.344v-7.856h-0.008zM8.064 13.84v-4.336c0-0.224 0.184-0.408 0.408-0.408h6.8c0.224 0 0.408 0.184 0.408 0.408v4.336h-7.616zM37.064 30.76h-1.28c-0.112 0-0.208-0.096-0.208-0.208v-1.080c0-1.208-0.984-2.184-2.184-2.184h-28.376c-1.208 0-2.184 0.984-2.184 2.184v1.080c0 0.112-0.096 0.208-0.208 0.208h-1.28c-0.112 0-0.208-0.096-0.208-0.208v-6.984h1.72c0.312 0 0.56-0.248 0.56-0.56s-0.248-0.56-0.56-0.56h-1.728v-3.592c0-2.144 1.744-3.888 3.888-3.888h28.376c2.144 0 3.888 1.744 3.888 3.888v3.592h-31.792c-0.312 0-0.56 0.248-0.56 0.56s0.256 0.56 0.56 0.56h31.784v6.984c0 0.112-0.088 0.208-0.208 0.208z"></path>
</svg>
