<!-- Generated by IcoMoon.io -->
<svg version="1.1" xmlns="http://www.w3.org/2000/svg" width="19" height="32" viewBox="0 0 19 32">
<title>bold-flavor</title>
<path d="M11.2 22.473h-3.787c-0.26 0-0.467 0.207-0.467 0.467s0.207 0.467 0.467 0.467h3.787c0.26 0 0.467-0.213 0.467-0.467 0.007-0.253-0.207-0.467-0.467-0.467z"></path>
<path d="M18.147 29.040h-0.16v-5.727c0-0.26-0.207-0.467-0.467-0.467s-0.467 0.207-0.467 0.467v5.727h-5.127v-2.987l1.973-1.127c0.147-0.087 0.233-0.24 0.233-0.407v-9.4c0-1.76-0.96-3.4-2.46-4.26v-2.48c3.193 1.013 5.373 3.967 5.373 7.373v5.38c0 0.26 0.207 0.467 0.467 0.467s0.467-0.207 0.467-0.467v-5.38c0-1.967-0.673-3.893-1.9-5.42-1.067-1.327-2.507-2.32-4.107-2.84l4.373-3.827c0.24-0.207 0.373-0.513 0.373-0.827v-1.733c0-0.607-0.493-1.1-1.1-1.1h-9.093c-0.26 0-0.467 0.207-0.467 0.467s0.207 0.467 0.467 0.467h9.093c0.087 0 0.16 0.073 0.16 0.16v1.553h-12.947v-1.553c0-0.087 0.073-0.16 0.16-0.16h1.347c0.26 0 0.467-0.207 0.467-0.467s-0.207-0.473-0.467-0.473h-1.347c-0.607 0-1.1 0.493-1.1 1.1v1.733c0 0.32 0.14 0.62 0.373 0.827l4.373 3.827c-1.6 0.52-3.040 1.513-4.107 2.84-1.227 1.533-1.9 3.453-1.9 5.42v13.293h-0.167c-0.26 0-0.467 0.207-0.467 0.467v2.020c0 0.26 0.207 0.473 0.467 0.473h17.68c0.26 0 0.467-0.213 0.467-0.467v-2.020c0-0.26-0.207-0.473-0.467-0.473zM7.627 29.040v-2.787h3.353v2.787h-3.353zM13.193 24.253l-1.867 1.067h-4.047l-1.867-1.067v-3.047h7.773l0.007 3.047zM11.367 20.267h-4.113v-1.587h4.113v1.587zM11.027 7.073h-3.433l-3.987-3.487h11.393l-3.973 3.487zM7.88 8.007h2.853v4.113h-2.853v-4.113zM1.567 15.747c0-3.407 2.18-6.353 5.373-7.373v2.473c-1.507 0.847-2.46 2.467-2.46 4.207v1.913c0 0.26 0.207 0.467 0.467 0.467s0.467-0.213 0.467-0.467v-1.913c0-1.213 0.58-2.353 1.527-3.087v0.62c0 0.26 0.207 0.467 0.467 0.467h3.787c0.26 0 0.467-0.207 0.467-0.467v-0.607c0.947 0.74 1.527 1.9 1.527 3.133v5.147h-0.893v-2.053c0-0.26-0.207-0.467-0.467-0.467h-5.053c-0.26 0-0.467 0.207-0.467 0.467v2.053h-0.887v-1.113c0-0.26-0.213-0.467-0.467-0.467-0.26 0-0.467 0.213-0.467 0.467v5.367c0 0.167 0.093 0.327 0.233 0.407l1.973 1.127v2.987h-5.127v-13.287zM17.68 31.060h-16.74v-1.080h16.74v1.080z"></path>
<path d="M15.027 26.92v0.633c0 0.26 0.213 0.467 0.467 0.467 0.26 0 0.467-0.207 0.467-0.467v-0.633c0-0.26-0.207-0.467-0.467-0.467s-0.467 0.213-0.467 0.467z"></path>
<path d="M13.473 26.453c-0.26 0-0.467 0.207-0.467 0.467v0.633c0 0.26 0.207 0.467 0.467 0.467s0.467-0.207 0.467-0.467v-0.633c0-0.253-0.207-0.467-0.467-0.467z"></path>
<path d="M3.12 26.453c-0.26 0-0.467 0.207-0.467 0.467v0.633c0 0.26 0.207 0.467 0.467 0.467s0.467-0.207 0.467-0.467v-0.633c0-0.253-0.207-0.467-0.467-0.467z"></path>
<path d="M5.14 26.453c-0.26 0-0.467 0.207-0.467 0.467v0.633c0 0.26 0.213 0.467 0.467 0.467 0.26 0 0.467-0.207 0.467-0.467v-0.633c0-0.253-0.207-0.467-0.467-0.467z"></path>
</svg>
