<!-- Generated by IcoMoon.io -->
<svg version="1.1" xmlns="http://www.w3.org/2000/svg" width="25" height="32" viewBox="0 0 25 32">
<title>boost-metabolism</title>
<path d="M19.597 10.301c-0.836-3.398-3.137-7.371-3.256-7.574-0.073-0.125-0.2-0.209-0.343-0.228s-0.288 0.030-0.39 0.133c-0.039 0.039-0.826 0.843-1.377 2.721-0.651-0.987-1.703-2.8-2.336-5.014-0.046-0.162-0.177-0.287-0.341-0.326s-0.337 0.014-0.451 0.138c-0.144 0.156-3.554 3.878-5.222 8.131-0.094 0.24 0.024 0.511 0.264 0.605s0.511-0.024 0.605-0.264c1.217-3.102 3.471-5.99 4.501-7.218 1.057 3.109 2.748 5.246 2.826 5.342 0.113 0.142 0.299 0.205 0.475 0.162s0.312-0.184 0.348-0.362c0.252-1.26 0.656-2.172 0.985-2.724 0.644 1.185 2.013 3.85 2.688 6.244-0.371-0.057-0.75-0.087-1.136-0.087-1.043 0-2.052 0.213-2.978 0.618-0.569-0.627-1.201-1.375-1.579-2.32-0.053-0.133-0.165-0.234-0.302-0.275s-0.286-0.015-0.403 0.068c-0.037 0.027-0.928 0.667-1.827 1.695-0.177 0.203-0.342 0.406-0.494 0.608-0.762-0.259-1.569-0.393-2.398-0.393-4.11 0-7.454 3.344-7.454 7.454 0 2.028 0.655 4.053 1.948 6.019 1.020 1.551 2.437 3.069 4.213 4.511 3.006 2.442 5.964 3.811 6.089 3.867 0.062 0.028 0.128 0.043 0.195 0.043s0.133-0.014 0.195-0.043c0.124-0.057 3.083-1.425 6.089-3.867 1.776-1.443 3.193-2.961 4.213-4.511 1.293-1.966 1.948-3.991 1.948-6.019-0-3.358-2.233-6.204-5.292-7.134zM12.269 9.188c0.38 0.731 0.867 1.332 1.331 1.855-0.408 0.246-0.795 0.533-1.155 0.859-0.517-0.467-1.087-0.855-1.697-1.157 0.541-0.682 1.13-1.226 1.522-1.558zM9.31 11.183c-0.549 0.933-0.826 1.856-0.826 2.759 0 2.184 1.777 3.96 3.96 3.96s3.96-1.776 3.96-3.96c0-0.408-0.090-0.8-0.276-1.197-0.109-0.233-0.387-0.334-0.621-0.225s-0.335 0.387-0.225 0.621c0.127 0.271 0.188 0.533 0.188 0.802 0 1.669-1.358 3.026-3.027 3.026s-3.027-1.357-3.027-3.026c0-0.864 0.331-1.692 0.782-2.422 0.703 0.328 1.35 0.784 1.911 1.357 0.088 0.090 0.208 0.14 0.334 0.14s0.246-0.050 0.334-0.14c1.238-1.265 2.892-1.961 4.657-1.961 0.473 0 0.933 0.051 1.377 0.147 0.097 0.491 0.152 0.957 0.152 1.382 0 3.595-2.925 6.52-6.52 6.52s-6.52-2.925-6.52-6.52c0-0.436 0.042-0.899 0.123-1.376 0.453-0.1 0.924-0.153 1.407-0.153 0.638 0 1.262 0.091 1.856 0.268zM22.166 22.933c-0.965 1.469-2.314 2.915-4.012 4.296-2.485 2.022-5.003 3.316-5.71 3.663-0.705-0.345-3.21-1.632-5.694-3.65-1.701-1.383-3.054-2.829-4.022-4.3-1.191-1.811-1.795-3.663-1.795-5.506 0-2.75 1.712-5.108 4.126-6.064-0.045 0.368-0.069 0.728-0.069 1.074 0 4.11 3.344 7.454 7.454 7.454s7.454-3.344 7.454-7.454c0-0.341-0.031-0.704-0.088-1.081 2.424 0.952 4.145 3.314 4.145 6.072-0 1.84-0.602 3.689-1.789 5.498z"></path>
</svg>
