<!-- Generated by IcoMoon.io -->
<svg version="1.1" xmlns="http://www.w3.org/2000/svg" width="32" height="32" viewBox="0 0 32 32">
<title>cart-plus</title>
<path d="M30.684 8.011h-5.362c0.011-4.462-3.62-8.011-7.988-8.011-4.375 0-8 3.556-7.989 8.011h-3.68l-0.373-4.144c-0.060-0.677-0.628-1.196-1.308-1.196h-2.67c-0.725 0-1.314 0.588-1.314 1.314s0.588 1.314 1.314 1.314h1.468c0.085 0.953 1.511 16.839 1.515 16.873 0.16 1.383 0.868 2.583 1.89 3.392-2.036 2.603-0.176 6.437 3.138 6.437 2.752 0 4.688-2.745 3.746-5.34h7.193c-0.942 2.594 0.994 5.34 3.746 5.34 2.197 0 3.984-1.787 3.984-3.984s-1.787-3.984-3.984-3.984h-14.676c-0.999 0-1.868-0.603-2.244-1.479l21.003-1.234c0.572-0.034 1.058-0.436 1.198-0.994l2.67-10.681c0.206-0.832-0.423-1.634-1.276-1.634zM17.335 2.628c2.956 0 5.362 2.405 5.362 5.362s-2.405 5.362-5.362 5.362c-2.956 0-5.362-2.405-5.362-5.362s2.405-5.362 5.362-5.362zM9.324 29.371c-0.748 0-1.356-0.608-1.356-1.356s0.608-1.356 1.356-1.356c0.747 0 1.356 0.608 1.356 1.356s-0.61 1.356-1.356 1.356zM24.009 29.371c-0.747 0-1.356-0.608-1.356-1.356s0.608-1.356 1.356-1.356c0.748 0 1.356 0.608 1.356 1.356s-0.608 1.356-1.356 1.356zM26.974 18.75l-20.238 1.189-0.836-9.301h3.897c1.095 3.108 4.060 5.34 7.538 5.34s6.443-2.233 7.538-5.34h4.13l-2.028 8.112z"></path>
<path d="M15.332 9.303h0.688v0.688c0 0.725 0.588 1.314 1.314 1.314s1.314-0.588 1.314-1.314v-0.688h0.688c0.725 0 1.314-0.588 1.314-1.314s-0.588-1.314-1.314-1.314h-0.686v-0.688c0-0.725-0.588-1.314-1.314-1.314s-1.314 0.588-1.314 1.314v0.688h-0.69c-0.725 0-1.314 0.588-1.314 1.314s0.588 1.314 1.314 1.314z"></path>
</svg>
