<!-- Generated by IcoMoon.io -->
<svg version="1.1" xmlns="http://www.w3.org/2000/svg" width="29" height="32" viewBox="0 0 29 32">
<title>cart</title>
<path d="M8.829-0c0.073 0 0.148 0 0.222 0h10.698c0.075 0 0.149-0 0.222-0 1.086-0.002 2.050-0.003 2.94 0.366s1.571 1.051 2.338 1.821c0.052 0.052 0.104 0.104 0.157 0.157l1.051 1.051c0.053 0.053 0.105 0.105 0.157 0.157 0.769 0.767 1.452 1.447 1.82 2.338s0.367 1.854 0.366 2.94c0 0.073-0 0.148-0 0.222v15.054c0 1.418 0 2.641-0.132 3.619-0.141 1.049-0.459 2.054-1.274 2.87s-1.821 1.133-2.87 1.274c-0.979 0.132-2.201 0.132-3.619 0.131h-13.011c-1.418 0-2.64 0-3.619-0.131-1.049-0.141-2.054-0.459-2.87-1.274s-1.133-1.821-1.274-2.87c-0.132-0.979-0.132-2.201-0.131-3.619v-15.054c0-0.075-0-0.149-0-0.222-0.002-1.086-0.003-2.050 0.366-2.94s1.051-1.571 1.821-2.338c0.052-0.052 0.104-0.104 0.157-0.157l1.051-1.051c0.053-0.053 0.105-0.105 0.157-0.157 0.767-0.769 1.447-1.452 2.338-1.821s1.854-0.367 2.94-0.366zM9.051 3.2c-1.439 0-1.712 0.028-1.938 0.122s-0.439 0.267-1.456 1.284l-1.051 1.051c-1.017 1.017-1.191 1.231-1.284 1.456s-0.122 0.499-0.122 1.938v14.949c0 1.554 0.003 2.558 0.103 3.298 0.093 0.694 0.244 0.912 0.366 1.033s0.339 0.272 1.033 0.366c0.74 0.1 1.744 0.103 3.298 0.103h12.8c1.554 0 2.558-0.003 3.298-0.103 0.694-0.093 0.912-0.244 1.033-0.366s0.272-0.339 0.366-1.033c0.1-0.74 0.103-1.744 0.103-3.298v-14.949c0-1.439-0.028-1.712-0.122-1.938s-0.267-0.439-1.284-1.456l-1.051-1.051c-1.017-1.017-1.231-1.191-1.456-1.284s-0.499-0.122-1.938-0.122h-10.698z"></path>
<path d="M0 8c0-0.884 0.716-1.6 1.6-1.6h25.6c0.884 0 1.6 0.716 1.6 1.6s-0.716 1.6-1.6 1.6h-25.6c-0.884 0-1.6-0.716-1.6-1.6z"></path>
<path d="M9.6 12.8c0.884 0 1.6 0.716 1.6 1.6 0 0.849 0.337 1.663 0.937 2.263s1.414 0.937 2.263 0.937 1.663-0.337 2.263-0.937c0.6-0.6 0.937-1.414 0.937-2.263 0-0.884 0.716-1.6 1.6-1.6s1.6 0.716 1.6 1.6c0 1.697-0.674 3.325-1.875 4.526s-2.828 1.874-4.525 1.874c-1.697 0-3.325-0.674-4.525-1.874s-1.874-2.828-1.874-4.526c0-0.884 0.716-1.6 1.6-1.6z"></path>
</svg>
