<!-- Generated by IcoMoon.io -->
<svg version="1.1" xmlns="http://www.w3.org/2000/svg" width="26" height="32" viewBox="0 0 26 32">
<title>chairs</title>
<path d="M25.13 10.227c-0.453-0.493-1.080-0.807-1.74-0.887l-2.92-6.827c-0.653-1.527-2.147-2.513-3.807-2.513h-7.46c-1.66 0-3.153 0.987-3.807 2.513l-2.92 6.827c-0.667 0.073-1.287 0.387-1.74 0.887-0.527 0.573-0.793 1.353-0.727 2.127l0.747 8.653c0.067 0.74 0.573 1.327 1.253 1.52v1.473c0 0.26 0.207 0.467 0.467 0.467s0.467-0.207 0.467-0.467v-1.413h2.427l-2 8.36c-0.013 0.067-0.080 0.113-0.147 0.113h-0.12c-0.087 0-0.153-0.067-0.153-0.153v-4.907c0-0.26-0.207-0.467-0.467-0.467s-0.467 0.207-0.467 0.467v4.913c0 0.6 0.487 1.087 1.087 1.087h0.127c0.507 0 0.94-0.347 1.060-0.833l2.047-8.58h9.713c0.26 0 0.467-0.207 0.467-0.467s-0.207-0.467-0.467-0.467h-10.46v-1.073h14.687v1.073h-2.227c-0.26 0-0.467 0.207-0.467 0.467s0.207 0.467 0.467 0.467h1.48l2.053 8.58c0.12 0.493 0.553 0.833 1.060 0.833h0.127c0.6 0 1.087-0.487 1.087-1.087v-8.393c0.68-0.187 1.193-0.78 1.253-1.52l0.747-8.653c0.060-0.773-0.2-1.547-0.727-2.12zM6.257 2.88c0.507-1.18 1.66-1.94 2.94-1.94h7.46c1.28 0 2.44 0.76 2.94 1.94l2.787 6.527c-1.213 0.3-2.12 1.4-2.12 2.713v3.407h-10.367c-0.26 0-0.467 0.207-0.467 0.467s0.213 0.467 0.467 0.467h10.893c0.487 0 0.887 0.4 0.887 0.887v1.407c0 0.487-0.4 0.887-0.887 0.887h-15.713c-0.487 0-0.887-0.4-0.887-0.887v-1.407c0-0.487 0.4-0.887 0.887-0.887h2.82c0.26 0 0.467-0.207 0.467-0.467s-0.207-0.467-0.467-0.467h-2.307v-3.407c0-1.307-0.9-2.407-2.12-2.713l2.787-6.527zM1.69 20.927l-0.74-8.653c-0.047-0.527 0.127-1.027 0.48-1.413s0.84-0.6 1.367-0.6c0 0 0 0 0.007 0 1.020 0 1.853 0.833 1.853 1.853v3.453c-0.8 0.193-1.4 0.913-1.4 1.773v1.407c0 0.86 0.6 1.58 1.4 1.773v1.127h-2.173c-0.413 0-0.753-0.313-0.793-0.72zM22.763 31.060h-0.127c-0.073 0-0.133-0.047-0.147-0.113l-2-8.36h2.427v8.327c0 0.080-0.067 0.147-0.153 0.147zM24.917 12.273l-0.747 8.653c-0.033 0.413-0.373 0.727-0.787 0.727h-2.173v-1.127c0.8-0.193 1.4-0.913 1.4-1.773v-1.407c0-0.86-0.6-1.58-1.4-1.773v-3.453c0-1.020 0.833-1.853 1.853-1.853 0.527 0 1.013 0.213 1.367 0.6 0.36 0.38 0.533 0.88 0.487 1.407z"></path>
</svg>
