<svg xmlns="http://www.w3.org/2000/svg" width="36" height="30"><g transform="translate(0 0)"><g fill="none" class="nc-icon-wrapper"><path d="M32.469 6.541h-4.937V3.66C27.532 1.642 25.948 0 24 0h-7.266a.716.716 0 0 0-.703.729c0 .402.314.729.703.729H24c1.172 0 2.125.988 2.125 2.202v2.881H11.999c-1.947 0-3.531 1.642-3.531 3.66v7.336H6.103a4.02 4.02 0 0 0-2.695 1.045l-2.001 1.803V3.66c0-1.214.953-2.202 2.125-2.202h7.018a.716.716 0 0 0 .703-.729.718.718 0 0 0-.704-.729H3.531C1.584 0 0 1.642 0 3.66v18.323c0 .611.717.953 1.165.55l3.166-2.852a2.645 2.645 0 0 1 1.772-.687h2.366v2.882c0 2.018 1.584 3.66 3.531 3.66h17.895c.651 0 1.281.244 1.772.687l3.169 2.855c.446.402 1.164.06 1.164-.551V10.201c0-2.018-1.584-3.66-3.531-3.66zm2.125 20.387l-2.005-1.806a4.021 4.021 0 0 0-2.695-1.044H11.999c-1.172 0-2.125-.988-2.125-2.202V10.201c0-1.214.953-2.201 2.125-2.201h20.47c1.172 0 2.125.988 2.125 2.202v16.726zM14.034 1.402a.745.745 0 0 0 .38-.952.7.7 0 0 0-.918-.394c-.355.152-.525.585-.379.952a.7.7 0 0 0 .917.394z" fill="#82D175"></path></g></g></svg>