<!-- Generated by IcoMoon.io -->
<svg version="1.1" xmlns="http://www.w3.org/2000/svg" width="42" height="32" viewBox="0 0 42 32">
<title>click</title>
<path d="M39.836 15.45l-5.735-6.408c-0.886-0.993-2.158-1.559-3.487-1.559h-5.128l0.484-4.373c0.090-0.796-0.164-1.592-0.697-2.183-0.533-0.583-1.296-0.927-2.092-0.927h-19.438c-0.517 0-0.935 0.418-0.935 0.935s0.418 0.935 0.935 0.935h19.438c0.271 0 0.517 0.107 0.697 0.312s0.263 0.459 0.23 0.73l-2.486 22.359h-5.177c-0.025-1.124-0.394-2.166-1.099-3.003-0.911-1.083-2.248-1.682-3.766-1.682-2.749 0-5.383 2.043-6.228 4.677h-4.414c-0.517 0.008-0.935 0.427-0.935 0.944s0.418 0.935 0.935 0.935h4.144c0.025 1.124 0.394 2.166 1.099 3.003 0.911 1.083 2.248 1.682 3.766 1.682 2.749 0 5.383-2.043 6.228-4.677h9.034c0.025 1.124 0.394 2.166 1.099 3.003 0.911 1.083 2.248 1.682 3.766 1.682 2.749 0 5.383-2.043 6.228-4.677h1.337c1.444 0 2.642-1.083 2.79-2.511l0.583-5.563c0.131-1.337-0.295-2.65-1.173-3.635zM14.523 26.043c-0.377 2.158-2.437 3.906-4.587 3.906-0.952 0-1.78-0.361-2.33-1.009-0.566-0.673-0.779-1.584-0.607-2.568 0.377-2.158 2.437-3.906 4.587-3.906 0.952 0 1.78 0.361 2.33 1.009 0.566 0.665 0.78 1.584 0.607 2.568zM34.642 26.043c-0.377 2.158-2.437 3.906-4.587 3.906-0.952 0-1.78-0.361-2.33-1.009-0.566-0.673-0.779-1.584-0.607-2.568 0.377-2.158 2.437-3.906 4.587-3.906 0.952 0 1.78 0.361 2.33 1.009 0.566 0.665 0.779 1.584 0.607 2.568zM39.138 18.864l-0.583 5.563c-0.049 0.476-0.451 0.837-0.927 0.837h-1.050c-0.025-1.124-0.394-2.166-1.099-3.003-0.911-1.083-2.248-1.682-3.766-1.682-2.749 0-5.383 2.043-6.228 4.677h-1.977l1.764-15.91h5.342c0.796 0 1.559 0.345 2.092 0.935l5.735 6.408c0.525 0.599 0.779 1.395 0.697 2.174zM31.106 11.536c-0.18-0.197-0.427-0.304-0.689-0.304h-2.338c-0.484 0-0.894 0.369-0.935 0.862l-0.468 5.612c-0.025 0.263 0.066 0.517 0.246 0.714 0.18 0.189 0.427 0.304 0.689 0.304h7.959c0.369 0 0.706-0.222 0.853-0.558s0.082-0.738-0.164-1.009l-5.153-5.62zM28.628 16.845l0.312-3.742h1.067l3.43 3.742h-4.808zM17.78 7.483h-6.548c-0.517 0-0.935-0.418-0.935-0.935s0.418-0.935 0.935-0.935h6.548c0.517 0 0.935 0.418 0.935 0.935s-0.418 0.935-0.935 0.935zM5.612 7.483c-0.517 0-0.935-0.418-0.935-0.935s0.418-0.935 0.935-0.935h1.871c0.517 0 0.935 0.418 0.935 0.935s-0.418 0.935-0.935 0.935h-1.871zM15.91 11.233c0.517 0 0.935 0.418 0.935 0.935s-0.418 0.935-0.935 0.935h-1.871c-0.517 0-0.935-0.418-0.935-0.935s0.418-0.935 0.935-0.935h1.871zM3.742 11.233h6.548c0.517 0 0.935 0.418 0.935 0.935s-0.418 0.935-0.935 0.935h-6.548c-0.517 0-0.935-0.418-0.935-0.935s0.418-0.935 0.935-0.935zM0.935 17.78c0-0.517 0.418-0.935 0.935-0.935h12.168c0.517 0 0.935 0.418 0.935 0.935s-0.418 0.935-0.935 0.935h-12.168c-0.517 0-0.935-0.418-0.935-0.935zM24.804 30.884c0 0.517-0.418 0.935-0.935 0.935h-4.209c-0.517 0-0.935-0.418-0.935-0.935s0.418-0.935 0.935-0.935h4.209c0.509 0 0.935 0.418 0.935 0.935zM4.677 30.884c0 0.517-0.418 0.935-0.935 0.935h-2.338c-0.517 0-0.935-0.418-0.935-0.935s0.418-0.935 0.935-0.935h2.338c0.517 0 0.935 0.418 0.935 0.935z"></path>
</svg>
