<!-- Generated by IcoMoon.io -->
<svg version="1.1" xmlns="http://www.w3.org/2000/svg" width="40" height="32" viewBox="0 0 40 32">
<title>clothing-fashion</title>
<path d="M37.64 19.36l-16.080-9.32c0.020-0.54 0.32-1.020 0.78-1.3 1.44-0.84 2.34-2.4 2.34-4.060 0-2.58-2.1-4.68-4.68-4.68s-4.68 2.1-4.68 4.68h3.12c0-0.86 0.7-1.56 1.56-1.56s1.56 0.7 1.56 1.56c0 0.56-0.3 1.080-0.78 1.36-1.42 0.82-2.32 2.36-2.34 4l-16.080 9.32c-1.46 0.84-2.36 2.4-2.36 4.080 0 2.58 2.1 4.68 4.68 4.68h1.24v3.12h3.12v-3.12h21.88v3.12h3.12v-3.12h1.26c2.58 0 4.68-2.1 4.68-4.68 0.020-1.68-0.88-3.24-2.34-4.080zM35.32 25h-30.64c-0.86 0-1.56-0.7-1.56-1.56 0-0.56 0.3-1.080 0.8-1.36l16.080-9.34 16.080 9.34c0.48 0.28 0.8 0.8 0.8 1.36 0 0.86-0.7 1.56-1.56 1.56z"></path>
</svg>
