<!-- Generated by IcoMoon.io -->
<svg version="1.1" xmlns="http://www.w3.org/2000/svg" width="32" height="32" viewBox="0 0 32 32">
<title>coffee-sourced</title>
<path d="M4.275 14.734c-0.307 0.487-0.573 1.020-0.787 1.6-0.86 2.273-0.92 4.973-0.167 7.613s2.227 4.907 4.153 6.38c1.44 1.107 3.007 1.673 4.54 1.673 0.567 0 1.12-0.080 1.673-0.233 1-0.287 1.9-0.82 2.66-1.567 1.113 0.773 2.367 1.207 3.653 1.253 1.9 0.073 3.647-0.793 5.093-1.967 1.28-1.040 2.413-2.2 3.38-3.453 0.16-0.207 0.12-0.5-0.087-0.66s-0.5-0.12-0.66 0.087c-0.92 1.193-2.007 2.3-3.233 3.293-1.293 1.053-2.753 1.827-4.467 1.76-1.073-0.040-2.12-0.393-3.060-1.027 0.427-0.547 0.793-1.18 1.093-1.88 0.84 0.453 2.3 1.067 4.080 1.067 0.313 0 0.667-0.093 0.653-0.48-0.007-0.26-0.22-0.467-0.48-0.453-1.76 0.047-3.227-0.627-3.927-1.013 0.053-0.16 0.1-0.32 0.14-0.487l1.933-1.567c0.487 0.313 2.153 1.267 4.247 1.267 0.307 0 0.647-0.107 0.633-0.48-0.007-0.26-0.22-0.46-0.48-0.453-1.64 0.040-2.993-0.593-3.627-0.953l2.333-1.893c0.593 0.347 1.987 1.047 3.7 1.047 0.307 0 0.627-0.113 0.62-0.48-0.007-0.26-0.22-0.46-0.48-0.453-1.287 0.033-2.413-0.42-3.047-0.747l2.213-1.8c0.2-0.16 0.233-0.46 0.067-0.66-0.16-0.2-0.46-0.233-0.66-0.067l-2.22 1.8c-0.153-0.56-0.327-1.46-0.22-2.467 0.013-0.013 0.027-0.027 0.040-0.040 0.9-0.92 1.667-1.987 2.24-3.147 1.8-0.167 3.413 0.093 4.707 0.753 0.633 2.313-0.007 5.253-1.773 8.1-0.133 0.22-0.067 0.507 0.153 0.647 0.22 0.133 0.507 0.067 0.647-0.153 1.953-3.153 2.62-6.453 1.82-9.053-0.033-0.113-0.113-0.213-0.22-0.273-1.353-0.747-3.033-1.087-4.9-0.993 0.373-0.967 0.6-1.967 0.66-2.947 0.14-2.26-0.593-4.2-2.073-5.447-1.48-1.253-3.507-1.653-5.713-1.14-1.553 0.367-3.073 1.16-4.4 2.287-0.087-0.127-0.173-0.253-0.267-0.38-0.127-0.167-0.26-0.333-0.393-0.5-0.84-1.040-1.78-1.973-2.78-2.793-0.2-0.167-0.493-0.133-0.66 0.067s-0.133 0.493 0.067 0.66c0.953 0.773 1.84 1.667 2.64 2.653 0.127 0.153 0.253 0.313 0.373 0.473 0.113 0.147 0.22 0.3 0.313 0.453-0.067 0.060-0.127 0.127-0.187 0.193 0 0.007-0.007 0.007-0.007 0.013-1.080 1.12-1.953 2.44-2.54 3.88-0.020 0.047-0.040 0.093-0.060 0.147-0.127-0.033-0.26-0.060-0.387-0.087l-1.153-1.42c0.307-0.493 1.193-2.073 1.14-4.027-0.013-0.26-0.227-0.467-0.487-0.46s-0.46 0.22-0.453 0.48c0.040 1.44-0.507 2.64-0.833 3.227l-1.673-2.060c0.333-0.573 0.98-1.907 0.94-3.513-0.007-0.26-0.22-0.46-0.48-0.453s-0.46 0.22-0.453 0.48c0.027 1.127-0.353 2.12-0.647 2.7l-1.6-1.973c-0.16-0.2-0.46-0.233-0.66-0.067-0.2 0.16-0.233 0.46-0.067 0.66l1.6 1.973c-0.627 0.167-1.673 0.34-2.773 0.080-0.253-0.060-0.507 0.093-0.567 0.347s0.093 0.507 0.347 0.567c0.487 0.113 0.96 0.16 1.407 0.16 0.973 0 1.793-0.213 2.227-0.36l1.673 2.060c-0.647 0.2-1.933 0.487-3.333 0.153-0.253-0.060-0.507 0.093-0.567 0.347s0.093 0.507 0.347 0.567c0.533 0.127 1.053 0.173 1.533 0.173 1.247 0 2.253-0.32 2.647-0.467l0.587 0.72c-0.027 0-0.060 0-0.087 0-0.727 0.033-1.453 0.187-2.12 0.467-0.953 0.4-1.8 1.040-2.493 1.88-0.067-0.080-0.14-0.167-0.207-0.247-1.74-2.14-2.927-4.52-3.433-6.88-0.467-2.167-0.307-4.173 0.453-5.667 2.167-0.593 4.913 0.047 7.567 1.76 0.22 0.14 0.507 0.080 0.647-0.14s0.080-0.507-0.14-0.647c-2.96-1.913-6.073-2.58-8.533-1.82-0.113 0.033-0.213 0.113-0.273 0.22-1.953 3.54-0.727 9.2 2.98 13.767 0.127 0.147 0.247 0.293 0.373 0.44zM8.041 29.58c-1.767-1.353-3.127-3.447-3.82-5.893-0.94-3.307-0.467-6.573 1.020-8.707 0.007-0.007 0.013-0.013 0.013-0.020 0.633-0.907 1.433-1.58 2.347-1.987 0 0.013 0 0.027 0 0.040-0.193 2.927 0.873 5.693 2.48 8.087 1.7 2.533 2.847 5.4 2.993 8.467 0.020 0.46 0.027 0.92 0.020 1.38-1.653 0.353-3.433-0.127-5.053-1.367zM14.028 30.654c0-0.387-0.007-0.773-0.027-1.16-0.080-1.62-0.367-3.207-0.933-4.733-0.093-0.26-0.2-0.513-0.307-0.76-0.52-1.2-1.18-2.333-1.907-3.42-0.92-1.373-1.807-2.8-2.147-4.44-0.233-1.133-0.253-2.3-0.147-3.453 0-0.013 0-0.020 0-0.033 0.013 0 0.027-0.007 0.040-0.007 0.927-0.193 1.88-0.12 2.78 0.16 3.487 1.1 5.687 4.773 6.347 8.18 0.62 3.193-0.067 6.36-1.787 8.273-0.007 0.007-0.020 0.020-0.027 0.033-0.547 0.6-1.18 1.060-1.887 1.36zM18.721 21.254c0.040-0.013 0.080-0.020 0.113-0.033 0.167-0.047 0.34-0.107 0.507-0.167 0 1.387 0.367 2.48 0.52 2.893l-1.067 0.867c0.147-1.147 0.127-2.353-0.073-3.56zM20.641 23.32c-0.167-0.527-0.413-1.507-0.347-2.66 0-0.013 0.14-0.067 0.153-0.073 0.54-0.267 1.060-0.587 1.547-0.933 0.2-0.14 0.393-0.293 0.58-0.447 0.033 0.98 0.253 1.787 0.4 2.22l-2.333 1.893zM25.088 14.5c-0.893 1.913-2.347 3.593-4.133 4.727-0.68 0.433-1.413 0.787-2.187 1.033-0.013 0.007-0.227 0.073-0.233 0.073-0.14-0.607-0.32-1.2-0.54-1.787-0.227-0.593-0.487-1.167-0.787-1.707 0.007-0.007 0.013-0.020 0.020-0.027 1.593-1.92 2.22-4.353 3.413-6.5 0.007-0.007 0.007-0.013 0.013-0.020 0.867-1.553 2.253-2.727 3.793-3.58 0 0 0.007 0 0.007-0.007 1.833 1.76 2 4.867 0.633 7.793zM23.661 6.074c-0.093 0.053-0.18 0.107-0.273 0.16-0.007 0.007-0.013 0.007-0.020 0.013-1.6 0.987-2.907 2.347-3.76 4.027 0 0 0 0.007-0.007 0.007-0.953 1.907-1.553 3.98-2.887 5.68-0.007 0.007-0.013 0.013-0.013 0.020-0.7-1.060-1.54-1.98-2.487-2.707-0.673-0.52-1.38-0.92-2.093-1.2 0.007-0.020 0.013-0.040 0.020-0.053 0.607-1.507 1.6-2.927 2.793-4.033 2.753-2.567 6.34-3.367 8.727-1.913z"></path>
</svg>
