<!-- Generated by IcoMoon.io -->
<svg version="1.1" xmlns="http://www.w3.org/2000/svg" width="30" height="32" viewBox="0 0 30 32">
<title>customer-say</title>
<path d="M13.383 0h3.55c2.288-0 4.134-0 5.614 0.151 1.528 0.155 2.854 0.485 4.026 1.269 0.919 0.614 1.709 1.404 2.323 2.323 0.784 1.172 1.113 2.498 1.269 4.026 0.151 1.481 0.151 3.326 0.151 5.614v0.182c0 2.288 0 4.134-0.151 5.614-0.155 1.528-0.485 2.854-1.269 4.026-0.614 0.919-1.404 1.709-2.323 2.323-1.024 0.684-2.164 1.022-3.455 1.201-1.014 0.14-2.187 0.19-3.546 0.208l-1.402 2.804c-1.241 2.483-4.784 2.483-6.026 0l-1.402-2.804c-1.358-0.018-2.532-0.068-3.546-0.208-1.291-0.178-2.431-0.516-3.455-1.2-0.919-0.614-1.709-1.404-2.323-2.323-0.783-1.173-1.113-2.498-1.269-4.026-0.151-1.481-0.151-3.326-0.151-5.614v-0.182c-0-2.288-0-4.134 0.151-5.614 0.155-1.528 0.485-2.854 1.269-4.026 0.614-0.92 1.404-1.709 2.323-2.323 1.172-0.783 2.498-1.113 4.026-1.269 1.481-0.151 3.326-0.151 5.614-0.151zM8.11 3.502c-1.262 0.128-1.969 0.366-2.496 0.718-0.552 0.369-1.025 0.842-1.394 1.394-0.352 0.527-0.59 1.234-0.718 2.496-0.131 1.29-0.133 2.964-0.133 5.364s0.002 4.074 0.133 5.364c0.128 1.262 0.366 1.969 0.718 2.496 0.369 0.552 0.842 1.025 1.394 1.394 0.46 0.308 1.059 0.528 2.044 0.665 1.012 0.14 2.313 0.177 4.138 0.185 0.681 0.003 1.267 0.41 1.529 0.994l1.832 3.664 1.832-3.664c0.263-0.584 0.848-0.991 1.529-0.994 1.825-0.008 3.126-0.045 4.138-0.185 0.985-0.136 1.584-0.357 2.044-0.665 0.552-0.369 1.025-0.842 1.394-1.394 0.352-0.527 0.59-1.234 0.718-2.496 0.131-1.29 0.133-2.964 0.133-5.364s-0.002-4.074-0.133-5.364c-0.128-1.262-0.366-1.969-0.718-2.496-0.369-0.552-0.842-1.025-1.394-1.394-0.527-0.352-1.234-0.59-2.496-0.718-1.29-0.131-2.964-0.133-5.364-0.133h-3.368c-2.4 0-4.074 0.002-5.364 0.133z"></path>
<path d="M23.579 13.474c0 0.93-0.754 1.684-1.684 1.684s-1.684-0.754-1.684-1.684c0-0.93 0.754-1.684 1.684-1.684s1.684 0.754 1.684 1.684z"></path>
<path d="M21.895 12.632c-0.465 0-0.842 0.377-0.842 0.842s0.377 0.842 0.842 0.842c0.465 0 0.842-0.377 0.842-0.842s-0.377-0.842-0.842-0.842zM19.368 13.474c0-1.395 1.131-2.526 2.526-2.526s2.526 1.131 2.526 2.526c0 1.395-1.131 2.526-2.526 2.526s-2.526-1.131-2.526-2.526z"></path>
<path d="M16.842 13.474c0 0.93-0.754 1.684-1.684 1.684s-1.684-0.754-1.684-1.684c0-0.93 0.754-1.684 1.684-1.684s1.684 0.754 1.684 1.684z"></path>
<path d="M15.158 12.632c-0.465 0-0.842 0.377-0.842 0.842s0.377 0.842 0.842 0.842c0.465 0 0.842-0.377 0.842-0.842s-0.377-0.842-0.842-0.842zM12.632 13.474c0-1.395 1.131-2.526 2.526-2.526s2.526 1.131 2.526 2.526c0 1.395-1.131 2.526-2.526 2.526s-2.526-1.131-2.526-2.526z"></path>
<path d="M10.105 13.474c0 0.93-0.754 1.684-1.684 1.684s-1.684-0.754-1.684-1.684c0-0.93 0.754-1.684 1.684-1.684s1.684 0.754 1.684 1.684z"></path>
<path d="M8.421 12.632c-0.465 0-0.842 0.377-0.842 0.842s0.377 0.842 0.842 0.842c0.465 0 0.842-0.377 0.842-0.842s-0.377-0.842-0.842-0.842zM5.895 13.474c0-1.395 1.131-2.526 2.526-2.526s2.526 1.131 2.526 2.526c0 1.395-1.131 2.526-2.526 2.526s-2.526-1.131-2.526-2.526z"></path>
</svg>
