<!-- Generated by IcoMoon.io -->
<svg version="1.1" xmlns="http://www.w3.org/2000/svg" width="30" height="32" viewBox="0 0 30 32">
<title>customer-support</title>
<path d="M26.442 13.23h-0.081v-1.94c0-6.24-5.093-11.29-11.385-11.29-6.283 0-11.375 5.050-11.375 11.29v1.94h-0.484c-1.755 0-3.116 1.54-3.116 3.32v4.95c-0.040 1.73 1.331 3.16 3.076 3.21 0.010 0 0.030 0 0.040 0h2.955c0.413-0.020 0.746-0.37 0.726-0.79 0-0.020 0-0.030 0-0.040v-9.7c0-0.48-0.282-0.95-0.716-0.95h-0.887v-1.94c0-5.36 4.377-9.7 9.782-9.7s9.782 4.34 9.782 9.7v1.94h-0.877c-0.444 0-0.716 0.48-0.716 0.95v9.7c-0.040 0.41 0.252 0.78 0.676 0.83 0.020 0 0.030 0 0.040 0h0.918l-0.081 0.12c-1.2 1.58-3.076 2.5-5.073 2.5-0.434-2.12-2.521-3.49-4.669-3.060-1.825 0.37-3.146 1.96-3.167 3.81 0.020 2.17 1.805 3.92 3.993 3.92 1.089-0.020 2.118-0.46 2.874-1.23 0.514-0.52 0.847-1.18 0.958-1.9 2.501 0.010 4.851-1.15 6.353-3.13l0.756-1.11c1.714-0.12 2.793-1.19 2.793-2.73v-4.95c0.020-1.7-1.261-3.72-3.096-3.72zM5.194 23.13h-2.077c-0.857-0.020-1.543-0.73-1.523-1.58 0-0.010 0-0.030 0-0.040v-4.95c0-0.91 0.635-1.74 1.523-1.74h2.077v8.31zM17.537 29.66c-0.444 0.48-1.069 0.75-1.714 0.75-1.301-0.020-2.35-1.050-2.4-2.34 0-1.29 1.059-2.34 2.36-2.34s2.36 1.040 2.36 2.34c0.020 0.6-0.192 1.17-0.605 1.59zM27.954 21.9c0 1.070-1.039 1.23-1.513 1.23h-1.674v-8.32h1.674c0.877 0 1.513 1.23 1.513 2.14v4.95z"></path>
</svg>
