<!-- Generated by IcoMoon.io -->
<svg version="1.1" xmlns="http://www.w3.org/2000/svg" width="30" height="32" viewBox="0 0 30 32">
<title>daily-deals</title>
<path d="M27.76 4.432v-1.248c0-1.76-1.424-3.184-3.184-3.184h-8.864c-0.848 0-1.648 0.336-2.256 0.928l-12.528 12.528c-0.592 0.608-0.928 1.408-0.928 2.256s0.336 1.648 0.928 2.256l1.28 1.28c-0.048 0.24-0.080 0.48-0.080 0.72 0 0.848 0.336 1.648 0.928 2.256l8.864 8.864c0.608 0.608 1.424 0.912 2.24 0.912s1.632-0.304 2.256-0.928l12.528-12.528c0.608-0.608 0.928-1.408 0.928-2.256v-8.864c0-1.376-0.88-2.56-2.112-2.992zM2.432 16.464c-0.192-0.208-0.304-0.464-0.304-0.752s0.112-0.544 0.304-0.752l12.528-12.528c0.208-0.192 0.464-0.304 0.752-0.304h8.864c0.592 0 1.056 0.48 1.056 1.056v1.056h-7.792c-0.848 0-1.648 0.336-2.256 0.928l-12.224 12.224-0.928-0.928zM27.44 17.040l-12.528 12.528c-0.416 0.416-1.088 0.416-1.504 0l-8.864-8.864c-0.208-0.208-0.304-0.464-0.304-0.752s0.112-0.544 0.304-0.752l12.528-12.528c0.208-0.208 0.464-0.304 0.752-0.304h8.864c0.592 0 1.056 0.48 1.056 1.056v8.864c0.016 0.288-0.096 0.544-0.304 0.752z"></path>
<path d="M22.448 8.496c-1.76 0-3.184 1.424-3.184 3.184s1.424 3.184 3.184 3.184c1.76 0 3.184-1.424 3.184-3.184s-1.424-3.184-3.184-3.184zM22.448 12.736c-0.592 0-1.056-0.48-1.056-1.056 0-0.592 0.48-1.056 1.056-1.056 0.592 0 1.056 0.48 1.056 1.056s-0.464 1.056-1.056 1.056z"></path>
</svg>
