<!-- Generated by IcoMoon.io -->
<svg version="1.1" xmlns="http://www.w3.org/2000/svg" width="36" height="32" viewBox="0 0 36 32">
<title>deal</title>
<path d="M9.717 0h16.122c1.191-0 2.174-0 2.978 0.055 0.834 0.057 1.606 0.179 2.349 0.486 1.742 0.722 3.127 2.106 3.849 3.848 0.308 0.743 0.429 1.514 0.486 2.349 0.055 0.805 0.055 1.788 0.055 2.978v1.394c0 1.718-1.393 3.111-3.111 3.111h-0.444c-0.982 0-1.778 0.796-1.778 1.778s0.796 1.778 1.778 1.778h0.444c1.718 0 3.111 1.393 3.111 3.111v1.394c0 1.191 0 2.174-0.055 2.978-0.057 0.834-0.179 1.606-0.486 2.349-0.722 1.742-2.106 3.127-3.849 3.849-0.743 0.308-1.514 0.43-2.349 0.486-0.805 0.055-1.787 0.055-2.978 0.055h-16.122c-1.191 0-2.174 0-2.978-0.055-0.834-0.057-1.606-0.179-2.349-0.486-1.742-0.722-3.127-2.106-3.849-3.849-0.308-0.743-0.429-1.514-0.486-2.349-0.055-0.805-0.055-1.787-0.055-2.978v-1.394c0-1.718 1.393-3.111 3.111-3.111h0.444c0.982 0 1.778-0.796 1.778-1.778s-0.796-1.778-1.778-1.778h-0.444c-1.718 0-3.111-1.393-3.111-3.111v-1.394c-0-1.191-0-2.174 0.055-2.978 0.057-0.834 0.179-1.606 0.486-2.349 0.722-1.742 2.106-3.127 3.848-3.849 0.743-0.308 1.514-0.429 2.349-0.486 0.805-0.055 1.788-0.055 2.978-0.055zM6.981 3.602c-0.653 0.045-0.993 0.126-1.23 0.224-0.871 0.361-1.563 1.053-1.924 1.924-0.098 0.237-0.179 0.577-0.224 1.23-0.046 0.669-0.047 1.53-0.047 2.797v0.889c2.946 0 5.333 2.388 5.333 5.333s-2.388 5.333-5.333 5.333v0.889c0 1.267 0.001 2.128 0.047 2.797 0.045 0.653 0.126 0.993 0.224 1.23 0.361 0.871 1.053 1.563 1.924 1.924 0.237 0.098 0.577 0.179 1.23 0.224 0.669 0.046 1.53 0.047 2.797 0.047h16c1.267 0 2.128-0.001 2.797-0.047 0.653-0.045 0.993-0.126 1.23-0.224 0.871-0.361 1.563-1.053 1.924-1.924 0.098-0.237 0.179-0.577 0.224-1.23 0.046-0.669 0.047-1.53 0.047-2.797v-0.889c-2.946 0-5.333-2.388-5.333-5.333s2.388-5.333 5.333-5.333v-0.889c0-1.267-0.001-2.128-0.047-2.797-0.045-0.653-0.126-0.993-0.224-1.23-0.361-0.871-1.053-1.563-1.924-1.924-0.237-0.098-0.577-0.179-1.23-0.224-0.669-0.046-1.53-0.047-2.797-0.047h-16c-1.267 0-2.128 0.001-2.797 0.047z"></path>
<path d="M16.99 13.669c0.299-0.773 0.448-1.16 0.691-1.214 0.064-0.014 0.13-0.014 0.194 0 0.243 0.054 0.392 0.44 0.691 1.214 0.17 0.44 0.255 0.66 0.414 0.809 0.045 0.042 0.093 0.079 0.145 0.112 0.184 0.115 0.413 0.136 0.872 0.179 0.777 0.072 1.165 0.108 1.284 0.338 0.025 0.048 0.041 0.099 0.049 0.152 0.039 0.258-0.246 0.527-0.817 1.066l-0.159 0.15c-0.267 0.252-0.4 0.378-0.478 0.535-0.046 0.094-0.077 0.196-0.092 0.301-0.024 0.175 0.015 0.358 0.093 0.723l0.028 0.131c0.14 0.656 0.21 0.984 0.123 1.145-0.079 0.145-0.223 0.238-0.383 0.245-0.178 0.009-0.429-0.203-0.931-0.628-0.331-0.28-0.496-0.419-0.679-0.474-0.168-0.050-0.346-0.050-0.513 0-0.183 0.055-0.349 0.194-0.679 0.474-0.502 0.424-0.753 0.636-0.931 0.628-0.16-0.008-0.305-0.101-0.383-0.245-0.088-0.161-0.017-0.489 0.123-1.145l0.028-0.131c0.078-0.366 0.117-0.549 0.093-0.723-0.015-0.105-0.046-0.206-0.092-0.301-0.077-0.157-0.211-0.283-0.478-0.535l-0.159-0.15c-0.571-0.539-0.857-0.809-0.817-1.066 0.008-0.053 0.025-0.105 0.049-0.152 0.119-0.23 0.507-0.266 1.284-0.338 0.459-0.043 0.688-0.064 0.872-0.179 0.052-0.032 0.1-0.070 0.145-0.112 0.159-0.15 0.244-0.369 0.414-0.809z"></path>
<path d="M17.489 11.587c0.19-0.042 0.387-0.042 0.577 0 0.547 0.121 0.808 0.578 0.92 0.791 0.129 0.246 0.257 0.577 0.392 0.926 0.006 0.015 0.011 0.029 0.017 0.044 0.090 0.233 0.139 0.358 0.182 0.446 0.007 0.014 0.012 0.024 0.017 0.033 0.007 0.001 0.014 0.003 0.023 0.004 0.091 0.017 0.218 0.029 0.463 0.052 0.016 0.002 0.033 0.003 0.049 0.005 0.346 0.032 0.686 0.064 0.952 0.123 0.256 0.057 0.738 0.199 0.991 0.688 0.069 0.134 0.116 0.278 0.138 0.426 0.081 0.528-0.205 0.924-0.373 1.128-0.174 0.21-0.423 0.446-0.678 0.686-0.012 0.011-0.023 0.022-0.035 0.033l-0.159 0.15c-0.142 0.134-0.216 0.205-0.267 0.26-0.014 0.015-0.022 0.024-0.027 0.031-0.001 0.004-0.003 0.008-0.004 0.012 0.001 0.008 0.002 0.023 0.006 0.049 0.011 0.078 0.033 0.182 0.075 0.376l0.035 0.164c0.064 0.299 0.123 0.575 0.152 0.795 0.024 0.181 0.070 0.569-0.124 0.927-0.221 0.408-0.64 0.685-1.12 0.709-0.426 0.021-0.76-0.213-0.903-0.315-0.179-0.127-0.391-0.307-0.619-0.499l-0.027-0.023c-0.175-0.148-0.271-0.228-0.343-0.281-0.007-0.005-0.013-0.009-0.019-0.013-0.005 0.004-0.012 0.008-0.019 0.013-0.073 0.053-0.168 0.133-0.343 0.281l-0.027 0.023c-0.228 0.193-0.44 0.372-0.619 0.499-0.143 0.102-0.477 0.336-0.903 0.315-0.48-0.024-0.899-0.301-1.12-0.709-0.194-0.358-0.148-0.745-0.124-0.927 0.029-0.22 0.088-0.496 0.152-0.795l0.035-0.164c0.041-0.194 0.063-0.298 0.075-0.376 0.004-0.025 0.005-0.040 0.006-0.049-0.001-0.004-0.002-0.009-0.004-0.012-0.005-0.006-0.013-0.016-0.027-0.031-0.051-0.055-0.125-0.126-0.267-0.26l-0.159-0.15c-0.012-0.011-0.023-0.022-0.035-0.033-0.255-0.241-0.504-0.476-0.678-0.686-0.168-0.203-0.454-0.599-0.373-1.128 0.023-0.148 0.069-0.292 0.138-0.426 0.253-0.489 0.735-0.631 0.991-0.688 0.266-0.059 0.606-0.091 0.952-0.123 0.016-0.002 0.032-0.003 0.049-0.005 0.245-0.023 0.372-0.035 0.463-0.052 0.009-0.002 0.016-0.003 0.023-0.004 0.004-0.008 0.010-0.019 0.017-0.033 0.043-0.088 0.092-0.213 0.182-0.446 0.006-0.015 0.011-0.029 0.017-0.044 0.135-0.348 0.262-0.679 0.392-0.926 0.112-0.214 0.374-0.671 0.92-0.791zM17.778 14.095c-0.066 0.17-0.131 0.334-0.199 0.474-0.088 0.182-0.206 0.379-0.394 0.555-0.087 0.081-0.181 0.154-0.282 0.218-0.221 0.139-0.445 0.201-0.645 0.238-0.177 0.032-0.383 0.051-0.588 0.070-0.009 0.001-0.019 0.002-0.028 0.003-0.005 0-0.009 0.001-0.014 0.001 0.008 0.008 0.017 0.016 0.026 0.024l0.159 0.15c0.018 0.017 0.036 0.034 0.055 0.052 0.209 0.196 0.459 0.43 0.61 0.738 0.088 0.18 0.147 0.372 0.174 0.57 0.038 0.271-0.002 0.541-0.052 0.785 0.039-0.031 0.077-0.060 0.114-0.087 0.147-0.107 0.327-0.218 0.554-0.285 0.333-0.099 0.687-0.099 1.020 0 0.227 0.067 0.407 0.179 0.553 0.285 0.037 0.027 0.075 0.056 0.114 0.087-0.049-0.244-0.089-0.514-0.052-0.785 0.027-0.198 0.086-0.39 0.174-0.57 0.151-0.308 0.402-0.543 0.61-0.738 0.019-0.018 0.037-0.035 0.055-0.052l0.159-0.15c0.009-0.008 0.017-0.016 0.026-0.024-0.004-0-0.009-0.001-0.014-0.001-0.009-0.001-0.019-0.002-0.028-0.003-0.205-0.019-0.411-0.038-0.588-0.070-0.201-0.036-0.424-0.099-0.645-0.238-0.101-0.063-0.196-0.136-0.282-0.218-0.187-0.176-0.305-0.373-0.394-0.555-0.068-0.14-0.134-0.305-0.199-0.474z"></path>
</svg>
