<svg xmlns="http://www.w3.org/2000/svg" width="30" height="20"><g transform="translate(0 0)"><g fill="none" class="nc-icon-wrapper"><path d="M29.278 9.989L24.31 4.867a.885.885 0 0 0-.622-.267h-3.167V.867A.858.858 0 0 0 19.667 0H3.6a.868.868 0 0 0-.867.867v2.6h-.655a.868.868 0 0 0 0 1.733h.655v1.733H.867A.851.851 0 0 0 0 7.79c0 .478.389.867.867.867h1.866V16.6c0 .478.39.867.867.867h1.844c.167.555.467 1.066.9 1.489A3.485 3.485 0 0 0 8.856 20a3.51 3.51 0 0 0 2.522-1.044 3.56 3.56 0 0 0 .889-1.49h8.255a3.56 3.56 0 0 0 .89 1.49A3.6 3.6 0 0 0 23.955 20a3.51 3.51 0 0 0 2.522-1.044 3.56 3.56 0 0 0 .889-1.49h1.289a.868.868 0 0 0 .866-.866v-6.011a.859.859 0 0 0-.244-.6zm-2.656-.267h-6.11v-3.4h2.821l3.29 3.4zM4.456 8.656h4.5a.868.868 0 0 0 0-1.734h-4.5V5.19h5.133a.868.868 0 0 0 0-1.733H4.456V1.733h14.333l-.011 14.011h-6.411a3.493 3.493 0 0 0-.978-1.833 3.529 3.529 0 0 0-2.522-1.044 3.51 3.51 0 0 0-2.523 1.044 3.53 3.53 0 0 0-.977 1.833h-.89V8.656h-.021zm5.71 9.077a1.843 1.843 0 0 1-1.3.545c-.488 0-.955-.19-1.3-.545a1.843 1.843 0 0 1-.544-1.3c0-.489.19-.955.545-1.3a1.843 1.843 0 0 1 1.3-.544c.489 0 .955.189 1.3.544a1.851 1.851 0 0 1 0 2.6zm15.09 0a1.843 1.843 0 0 1-1.3.545c-.49 0-.956-.19-1.3-.545a1.844 1.844 0 0 1 0-2.61 1.843 1.843 0 0 1 1.3-.545c.488 0 .955.189 1.3.544.344.345.544.811.544 1.3-.011.5-.2.956-.544 1.311zm2.2-1.989a3.566 3.566 0 0 0-6.023-1.844 3.543 3.543 0 0 0-.922 1.6v-4.044H27.8v4.288h-.344z" fill="#212121"></path></g></g></svg>