<!-- Generated by IcoMoon.io -->
<svg version="1.1" xmlns="http://www.w3.org/2000/svg" width="26" height="32" viewBox="0 0 26 32">
<title>delivery-2</title>
<path d="M25.6 20.269l-16.065-12.051c-0.284-0.211-0.662-0.247-0.982-0.087s-0.516 0.48-0.516 0.836v20.080c0 0.327 0.167 0.625 0.444 0.8 0.284 0.175 0.625 0.182 0.909 0.044l7.193-3.6 2.596 5.185c0.167 0.335 0.495 0.524 0.836 0.524 0.138 0 0.284-0.029 0.422-0.102 0.465-0.233 0.647-0.793 0.422-1.258l-2.596-5.185 7.193-3.593c0.291-0.145 0.487-0.429 0.516-0.756s-0.109-0.64-0.371-0.836zM9.905 27.535v-16.691l13.353 10.015-13.353 6.676z"></path>
<path d="M8.967 4.887c0.516 0 0.938-0.422 0.938-0.938v-3.011c0-0.516-0.422-0.938-0.938-0.938s-0.938 0.422-0.938 0.938v3.011c0.007 0.516 0.422 0.938 0.938 0.938z"></path>
<path d="M4.887 8.967c0-0.516-0.422-0.938-0.938-0.938h-3.011c-0.516 0.007-0.938 0.422-0.938 0.938s0.422 0.938 0.938 0.938h3.011c0.516 0 0.938-0.415 0.938-0.938z"></path>
<path d="M13.055 8.967c0 0.516 0.422 0.938 0.938 0.938h3.011c0.516 0 0.938-0.422 0.938-0.938s-0.422-0.938-0.938-0.938h-3.011c-0.516 0.007-0.938 0.422-0.938 0.938z"></path>
<path d="M3.956 2.625c-0.364-0.364-0.96-0.364-1.324 0s-0.364 0.96 0 1.324l2.131 2.131c0.364 0.364 0.96 0.364 1.324 0s0.364-0.96 0-1.324l-2.131-2.131z"></path>
<path d="M4.756 11.855l-2.131 2.131c-0.364 0.364-0.364 0.96 0 1.324s0.96 0.364 1.324 0l2.131-2.131c0.364-0.364 0.364-0.96 0-1.324s-0.953-0.364-1.324 0z"></path>
<path d="M13.185 6.080l2.131-2.131c0.364-0.364 0.364-0.96 0-1.324s-0.96-0.364-1.324 0l-2.138 2.131c-0.364 0.364-0.364 0.96 0 1.324 0.371 0.371 0.96 0.371 1.331 0z"></path>
</svg>
