<!-- Generated by IcoMoon.io -->
<svg version="1.1" xmlns="http://www.w3.org/2000/svg" width="20" height="32" viewBox="0 0 20 32">
<title>delivered-fresh</title>
<path d="M5.76 19.115c0.666 0.738 1.554 1.241 2.527 1.443 0.209 0.039 0.418 0.059 0.633 0.059 0.686 0.013 1.345-0.235 1.848-0.692 0.797-0.836 1.045-2.044 0.647-3.128 0.745-0.157 1.443-0.483 2.044-0.953 0.79-0.601 1.371-1.443 1.652-2.397 0.268-0.842 0.124-1.757-0.385-2.475l-0.007-0.013c-0.007-0.013-0.013-0.026-0.026-0.039-0.026-0.033-0.065-0.059-0.091-0.091l-0.007-0.007c-1.091-1.241-3.285-1.202-4.976 0.124-0.829 0.633-1.424 1.522-1.685 2.527-0.059-0.013-0.111-0.033-0.163-0.046-0.882-0.222-1.816 0.013-2.475 0.633-0.666 0.62-0.967 1.535-0.803 2.429 0.131 0.993 0.575 1.913 1.267 2.625zM8.464 19.598c-1.561-0.359-2.743-1.626-2.998-3.207-0.039-0.327-0.007-0.66 0.098-0.973 0.163 0.248 0.353 0.483 0.562 0.692 0.535 0.555 1.149 1.019 1.835 1.378l0.451 0.281c0.647 0.366 1.156 0.934 1.45 1.613-0.425 0.235-0.921 0.32-1.398 0.215zM14.165 13.185c-0.229 0.751-0.686 1.411-1.313 1.881-0.529 0.425-1.169 0.699-1.842 0.79-0.118-0.209-0.255-0.418-0.405-0.607 0.346-0.274 0.66-0.601 0.927-0.96l0.313-0.425c0.372-0.588 0.836-1.11 1.378-1.548 0.255-0.222 0.549-0.398 0.862-0.522 0.189 0.451 0.222 0.94 0.078 1.391zM10.227 11.716c0.842-0.758 2.031-1.006 3.102-0.64-0.261 0.144-0.509 0.307-0.738 0.503-0.601 0.483-1.117 1.058-1.528 1.704l-0.313 0.431c-0.235 0.307-0.509 0.581-0.823 0.81-0.32-0.281-0.679-0.522-1.065-0.712 0.189-0.842 0.673-1.58 1.365-2.096zM7.144 14.354c0.15 0 0.3 0.013 0.451 0.039 0.771 0.163 1.463 0.562 1.985 1.143 0.803 0.764 1.156 1.881 0.934 2.965-0.392-0.653-0.94-1.195-1.593-1.587l-0.451-0.281c-0.62-0.32-1.182-0.738-1.659-1.241-0.242-0.235-0.444-0.516-0.601-0.816 0.294-0.15 0.614-0.229 0.934-0.222z"></path>
<path d="M19.696 7.073l-0.647-3.291v-3.291c0-0.268-0.222-0.49-0.49-0.49h-17.417c-0.274 0-0.49 0.222-0.49 0.49v3.291l-0.647 3.291c-0.007 0.033-0.007 0.065-0.007 0.091v23.706c0 0.268 0.222 0.49 0.49 0.49h18.73c0.268 0 0.49-0.222 0.49-0.49v-23.706c-0.007-0.026-0.007-0.059-0.013-0.091zM0.98 30.38v-1.574h4.467c0.268 0 0.49-0.222 0.49-0.49s-0.222-0.49-0.49-0.49h-4.467v-20.611l0.562-2.9h13.296c0.268 0 0.49-0.222 0.49-0.49s-0.222-0.49-0.49-0.49h-13.205v-2.358h16.444v2.358h-1.672c-0.268 0-0.49 0.222-0.49 0.49s0.222 0.49 0.49 0.49h1.763l0.464 2.358h-16.522c-0.268 0-0.49 0.222-0.49 0.49s0.222 0.49 0.49 0.49h16.614v20.173h-11.513c-0.268 0-0.49 0.222-0.49 0.49s0.222 0.49 0.49 0.49h11.52v1.574h-17.75z"></path>
<path d="M3.958 23.216h11.781c0.268 0 0.49-0.222 0.49-0.49s-0.222-0.49-0.49-0.49h-11.781c-0.268 0-0.49 0.222-0.49 0.49s0.222 0.49 0.49 0.49z"></path>
<path d="M16.235 25.273c0-0.268-0.222-0.49-0.49-0.49h-11.788c-0.268 0-0.49 0.222-0.49 0.49s0.222 0.49 0.49 0.49h11.781c0.274 0 0.496-0.222 0.496-0.49z"></path>
</svg>
