<svg xmlns="http://www.w3.org/2000/svg" width="31" height="18"><g transform="translate(0 0)"><g fill="none" class="nc-icon-wrapper"><path d="M28.02 0H2.7C1.21 0 0 1.21 0 2.7v3.6c0 .5.4.9.9.9h.9c.99 0 1.8.81 1.8 1.8s-.81 1.8-1.8 1.8H.9c-.5 0-.9.4-.9.9v3.6C0 16.79 1.21 18 2.7 18h25.32c1.49 0 2.7-1.21 2.7-2.7v-3.6c0-.5-.4-.9-.9-.9h-.9c-.99 0-1.8-.81-1.8-1.8s.81-1.8 1.8-1.8h.9c.5 0 .9-.4.9-.9V2.7c0-1.49-1.21-2.7-2.7-2.7zm.9 5.4a3.61 3.61 0 0 0-3.6 3.6c0 1.98 1.62 3.6 3.6 3.6v2.7c0 .5-.4.9-.9.9H2.7c-.5 0-.9-.4-.9-.9v-2.7c1.98 0 3.6-1.62 3.6-3.6S3.78 5.4 1.8 5.4V2.7c0-.5.4-.9.9-.9h25.32c.5 0 .9.4.9.9v2.7z" fill="#212121"></path><path d="M18.96 9c-1.49 0-2.7 1.21-2.7 2.7 0 1.49 1.21 2.7 2.7 2.7 1.49 0 2.7-1.21 2.7-2.7 0-1.49-1.21-2.7-2.7-2.7zm0 3.6c-.5 0-.9-.4-.9-.9s.4-.9.9-.9.9.4.9.9-.4.9-.9.9z" fill="#212121"></path><path d="M14.46 6.3c0-1.49-1.21-2.7-2.7-2.7-1.49 0-2.7 1.21-2.7 2.7 0 1.49 1.21 2.7 2.7 2.7 1.49 0 2.7-1.21 2.7-2.7zm-3.6 0c0-.5.4-.9.9-.9s.9.4.9.9-.4.9-.9.9-.9-.4-.9-.9z" fill="#212121"></path><path d="M19.52 3.8a.892.892 0 0 0-1.26.14l-7.2 9c-.31.39-.25.95.14 1.26.39.31.95.25 1.26-.14l7.2-9c.31-.39.25-.95-.14-1.26z" fill="#212121"></path></g></g></svg>