<!-- Generated by IcoMoon.io -->
<svg version="1.1" xmlns="http://www.w3.org/2000/svg" width="32" height="32" viewBox="0 0 32 32">
<title>discount</title>
<path d="M11.172 16.45c0.156 0 0.313-0.057 0.434-0.178 0.242-0.242 0.242-0.626 0-0.868l-0.284-0.284c-0.242-0.242-0.626-0.242-0.868 0s-0.242 0.626 0 0.868l0.284 0.284c0.121 0.121 0.277 0.178 0.434 0.178z"></path>
<path d="M13.938 17.737l-0.363-0.363c-0.242-0.242-0.626-0.242-0.868 0s-0.242 0.626 0 0.868l0.363 0.363c0.121 0.121 0.277 0.178 0.434 0.178s0.313-0.057 0.434-0.178c0.242-0.242 0.242-0.626 0-0.868z"></path>
<path d="M14.99 19.65c-0.242 0.242-0.242 0.626 0 0.868l0.405 0.405c0.121 0.121 0.277 0.178 0.434 0.178s0.313-0.057 0.434-0.178c0.242-0.242 0.242-0.626 0-0.868l-0.405-0.405c-0.242-0.235-0.633-0.235-0.868 0z"></path>
<path d="M30.464 8.343l-2.020-2.020c-0.114-0.114-0.27-0.178-0.434-0.178s-0.32 0.064-0.434 0.178c-0.348 0.348-0.804 0.54-1.294 0.54s-0.953-0.192-1.294-0.54c-0.718-0.718-0.718-1.877 0-2.596 0.242-0.242 0.242-0.626 0-0.868l-2.034-2.034c-1.102-1.102-2.887-1.102-3.989 0l-10.34 10.347c-0.114 0.114-0.178 0.27-0.178 0.434v1.508h-1.508c-0.164 0-0.32 0.064-0.434 0.178l-5.682 5.682c-0.533 0.533-0.825 1.244-0.825 1.998s0.292 1.465 0.825 1.991l2.034 2.034c0.242 0.242 0.626 0.242 0.868 0 0.348-0.348 0.804-0.54 1.294-0.54s0.953 0.192 1.294 0.54c0.348 0.348 0.54 0.804 0.54 1.294s-0.192 0.953-0.54 1.294c-0.114 0.114-0.178 0.27-0.178 0.434s0.064 0.32 0.178 0.434l2.020 2.020c0.548 0.548 1.273 0.825 1.991 0.825 0.725 0 1.444-0.277 1.991-0.825l5.682-5.682c0.114-0.114 0.178-0.27 0.178-0.434v-1.508h1.508c0.164 0 0.32-0.064 0.434-0.178l3.698-3.698c0.242-0.242 0.242-0.626 0-0.868s-0.626-0.242-0.868 0l-3.52 3.513h-1.863c-0.334 0-0.612 0.277-0.612 0.612v1.863l-5.504 5.504c-0.626 0.626-1.636 0.626-2.261 0l-1.628-1.628c0.327-0.498 0.505-1.074 0.505-1.685 0-0.818-0.32-1.586-0.896-2.162s-1.344-0.896-2.162-0.896c-0.612 0-1.188 0.178-1.685 0.505l-1.643-1.643c-0.626-0.626-0.626-1.636 0-2.261l5.504-5.504h1.863c0.334 0 0.612-0.27 0.612-0.612v-1.863l10.176-10.155c0.626-0.626 1.636-0.626 2.261 0l1.643 1.643c-0.782 1.188-0.654 2.802 0.391 3.847 0.576 0.576 1.344 0.896 2.162 0.896 0.612 0 1.188-0.178 1.685-0.505l1.628 1.628c0.626 0.626 0.626 1.636 0 2.261l-2.759 2.759c-0.242 0.242-0.242 0.626 0 0.868s0.626 0.242 0.868 0l2.759-2.759c1.095-1.102 1.095-2.887-0.007-3.989z"></path>
<path d="M18.389 8.044c-0.327 0.092-0.512 0.427-0.427 0.754l1.984 7.125c0.078 0.27 0.32 0.448 0.59 0.448 0.057 0 0.107-0.007 0.164-0.021 0.327-0.092 0.512-0.427 0.427-0.754l-1.984-7.125c-0.092-0.327-0.427-0.512-0.754-0.427z"></path>
<path d="M21.817 10.327c-0.718 0.718-0.718 1.877 0 2.596 0.356 0.356 0.825 0.533 1.294 0.533s0.939-0.178 1.294-0.533c0.718-0.718 0.718-1.877 0-2.596-0.348-0.348-0.804-0.54-1.294-0.54s-0.953 0.192-1.294 0.54zM23.545 12.055c-0.242 0.242-0.626 0.242-0.868 0s-0.242-0.626 0-0.868c0.114-0.114 0.27-0.178 0.434-0.178s0.32 0.064 0.434 0.178c0.235 0.242 0.235 0.626 0 0.868z"></path>
<path d="M17.33 10.54c-0.348-0.348-0.804-0.54-1.294-0.54s-0.953 0.192-1.294 0.54c-0.711 0.718-0.718 1.877 0 2.596 0.356 0.356 0.825 0.533 1.294 0.533s0.939-0.178 1.294-0.533c0.711-0.718 0.711-1.884 0-2.596zM16.462 12.268c-0.242 0.242-0.626 0.242-0.868 0s-0.242-0.626 0-0.868c0.114-0.114 0.27-0.178 0.434-0.178s0.32 0.064 0.434 0.178c0.242 0.242 0.242 0.626 0 0.868z"></path>
<path d="M9.593 17.908c-0.242-0.242-0.626-0.242-0.868 0l-2.076 2.076c-0.242 0.242-0.242 0.626 0 0.868 0.121 0.121 0.277 0.178 0.434 0.178s0.313-0.057 0.434-0.178l2.076-2.076c0.235-0.242 0.235-0.633 0-0.868z"></path>
<path d="M8.988 22.928c0.156 0 0.313-0.057 0.434-0.178l2.076-2.076c0.242-0.242 0.242-0.626 0-0.868s-0.626-0.242-0.868 0l-2.076 2.076c-0.242 0.242-0.242 0.626 0 0.868 0.121 0.114 0.27 0.178 0.434 0.178z"></path>
<path d="M10.887 24.827c0.156 0 0.313-0.057 0.434-0.178l2.076-2.076c0.242-0.242 0.242-0.626 0-0.868s-0.626-0.242-0.868 0l-2.076 2.076c-0.242 0.242-0.242 0.626 0 0.868 0.121 0.121 0.277 0.178 0.434 0.178z"></path>
<path d="M25.33 15.988c-0.164 0-0.32 0.064-0.434 0.178s-0.178 0.27-0.178 0.434c0 0.164 0.064 0.32 0.178 0.434s0.27 0.178 0.434 0.178c0.164 0 0.32-0.064 0.434-0.178s0.178-0.27 0.178-0.434c0-0.164-0.064-0.32-0.178-0.434s-0.27-0.178-0.434-0.178z"></path>
</svg>
