<!-- Generated by IcoMoon.io -->
<svg version="1.1" xmlns="http://www.w3.org/2000/svg" width="32" height="32" viewBox="0 0 32 32">
<title>electronics</title>
<path d="M31.308 26.011l-2.279-5.316c-0.222-0.516-0.62-0.921-1.104-1.156 0.411-0.418 0.66-0.986 0.66-1.613v-12.362c0.007-1.267-1.025-2.299-2.286-2.299h-21.251c-1.26 0-2.292 1.032-2.292 2.299v12.369c0 0.627 0.255 1.195 0.66 1.613-0.483 0.235-0.882 0.64-1.104 1.156l-2.279 5.316c-0.020 0.052-0.033 0.111-0.033 0.176 0 1.267 1.032 2.299 2.299 2.299h26.756c1.267 0 2.299-1.032 2.299-2.299-0.007-0.065-0.020-0.124-0.046-0.183zM3.677 5.564c0-0.758 0.62-1.378 1.378-1.378h21.244c0.758 0 1.378 0.62 1.378 1.378v12.369c0 0.758-0.62 1.378-1.378 1.378h-21.251c-0.758 0-1.378-0.62-1.378-1.378v-12.369h0.007zM3.161 21.061c0.216-0.509 0.712-0.836 1.267-0.836h22.498c0.555 0 1.051 0.327 1.267 0.836l2.005 4.676h-29.042l2.005-4.676zM17.972 26.651v0.921h-4.591v-0.921h4.591zM0.999 26.651h11.461v0.921h-10.162c-0.601 0-1.11-0.385-1.3-0.921zM29.048 27.572h-10.162v-0.921h11.461c-0.189 0.535-0.699 0.921-1.3 0.921z"></path>
<path d="M3.638 23.895h1.835c0.255 0 0.457-0.202 0.457-0.457s-0.202-0.457-0.457-0.457h-1.136l0.392-0.921h21.891l0.392 0.921h-19.696c-0.255 0-0.457 0.202-0.457 0.457s0.202 0.457 0.457 0.457h20.395c0.157 0 0.3-0.078 0.385-0.209s0.098-0.294 0.039-0.431l-0.79-1.835c-0.072-0.17-0.235-0.281-0.424-0.281h-22.491c-0.183 0-0.353 0.111-0.425 0.281l-0.79 1.835c-0.059 0.144-0.046 0.307 0.039 0.431 0.085 0.137 0.229 0.209 0.385 0.209z"></path>
</svg>
