<!-- Generated by IcoMoon.io -->
<svg version="1.1" xmlns="http://www.w3.org/2000/svg" width="23" height="32" viewBox="0 0 23 32">
<title>esasy-pres</title>
<path d="M21.253 4.1h-4.080c-0.067-0.567-0.333-1.093-0.767-1.5-0.493-0.467-1.147-0.72-1.84-0.72h-0.46c-0.293-1.080-1.327-1.88-2.547-1.88s-2.247 0.8-2.54 1.873h-0.46c-1.347 0-2.46 0.973-2.607 2.22h-4.080c-1.033 0.007-1.873 0.847-1.873 1.88v24.153c0 1.033 0.84 1.873 1.873 1.873h19.373c1.033 0 1.873-0.84 1.873-1.873v-24.153c0.007-1.033-0.833-1.873-1.867-1.873zM8.56 3.127h1c0.347 0 0.627-0.28 0.627-0.627 0-0.693 0.62-1.253 1.373-1.253 0.76 0 1.373 0.56 1.373 1.253 0 0.347 0.28 0.627 0.627 0.627h1c0.373 0 0.72 0.133 0.987 0.38 0.253 0.233 0.393 0.547 0.393 0.873 0 0.073-0.007 0.147-0.020 0.22-0.12 0.6-0.687 1.033-1.353 1.033h-6c-0.373 0-0.72-0.133-0.987-0.38-0.133-0.127-0.233-0.267-0.3-0.427-0.013-0.027-0.020-0.060-0.033-0.087-0.007-0.013-0.013-0.027-0.013-0.047-0.007-0.013-0.007-0.033-0.013-0.047s-0.007-0.027-0.013-0.040v-0.007c-0.013-0.073-0.020-0.147-0.020-0.213 0-0.7 0.62-1.26 1.373-1.26zM21.873 30.127c0 0.347-0.28 0.627-0.627 0.627h-19.373c-0.347 0-0.627-0.28-0.627-0.627v-24.153c0-0.347 0.28-0.627 0.627-0.627h4.267c0.133 0.307 0.333 0.58 0.58 0.813 0.493 0.467 1.147 0.72 1.84 0.72h6c0.993 0 2.040-0.587 2.42-1.533h4.267c0.347 0 0.627 0.28 0.627 0.627v24.153z"></path>
<path d="M8.8 16.907h-2.6c-0.347 0-0.627-0.28-0.627-0.627v-1.2h-1.2c-0.347 0-0.627-0.28-0.627-0.627v-2.607c0-0.347 0.28-0.627 0.627-0.627h1.2v-1.2c0-0.347 0.28-0.627 0.627-0.627h2.607c0.347 0 0.627 0.28 0.627 0.627v1.2h1.2c0.347 0 0.627 0.28 0.627 0.627v2.607c0 0.347-0.28 0.627-0.627 0.627h-1.2v1.2c-0.007 0.347-0.287 0.627-0.633 0.627zM6.82 15.66h1.353v-1.2c0-0.347 0.28-0.627 0.627-0.627h1.2v-1.36h-1.2c-0.347 0-0.627-0.28-0.627-0.627v-1.2h-1.353v1.2c0 0.347-0.28 0.627-0.627 0.627h-1.193v1.36h1.2c0.347 0 0.627 0.28 0.627 0.627v1.2h-0.007z"></path>
<path d="M18.747 20.66h-11.873c-0.347 0-0.627-0.28-0.627-0.627s0.28-0.627 0.627-0.627h11.873c0.347 0 0.627 0.28 0.627 0.627s-0.28 0.627-0.627 0.627z"></path>
<path d="M4.373 20.66c-0.347 0-0.627-0.28-0.627-0.627s0.28-0.627 0.627-0.627c0.347 0 0.627 0.28 0.627 0.627s-0.28 0.627-0.627 0.627z"></path>
<path d="M18.747 24.413h-14.373c-0.347 0-0.627-0.28-0.627-0.627s0.28-0.627 0.627-0.627h14.373c0.347 0 0.627 0.28 0.627 0.627s-0.28 0.627-0.627 0.627z"></path>
<path d="M18.747 28.167h-14.373c-0.347 0-0.627-0.28-0.627-0.627s0.28-0.627 0.627-0.627h14.373c0.347 0 0.627 0.28 0.627 0.627 0 0.353-0.28 0.627-0.627 0.627z"></path>
</svg>
