<svg width="12" height="10" viewBox="0 0 12 10" fill="none" xmlns="http://www.w3.org/2000/svg">
    <path fill-rule="evenodd" clip-rule="evenodd" d="M6 2.68924C4.84482 2.68924 3.90837 3.62569 3.90837 4.78087C3.90837 5.93604 4.84482 6.8725 6 6.8725C7.15518 6.8725 8.09163 5.93604 8.09163 4.78087C8.09163 3.62569 7.15518 2.68924 6 2.68924ZM5.10359 4.78087C5.10359 4.28579 5.50492 3.88446 6 3.88446C6.49507 3.88446 6.89641 4.28579 6.89641 4.78087C6.89641 5.27594 6.49507 5.67728 6 5.67728C5.50492 5.67728 5.10359 5.27594 5.10359 4.78087Z" fill="black"/>
    <path fill-rule="evenodd" clip-rule="evenodd" d="M6 0C3.67664 0 2.17347 1.17286 1.27213 2.32002C0.824342 2.88993 0.520915 3.45702 0.329153 3.88092C0.232938 4.0936 0.163907 4.2723 0.118257 4.40012C0.0954105 4.46409 0.0783571 4.51549 0.0666324 4.55224C0.0607683 4.57062 0.0562315 4.58536 0.0529645 4.59618C0.0513308 4.60159 0.0500141 4.60603 0.0490071 4.60946C0.0485036 4.61117 0.0480775 4.61264 0.0477278 4.61384L0.0472606 4.61546L0.0470697 4.61613C0.0469862 4.61642 0.0469073 4.61669 0.621522 4.78087L0.0470697 4.61613L0 4.78087L0.0469074 4.94504L0.621522 4.78087C0.0469073 4.94504 0.0468238 4.94475 0.0469074 4.94504L0.0472606 4.94628L0.0477278 4.9479L0.0481863 4.94947L0.0490071 4.95228C0.0500141 4.95571 0.0513308 4.96015 0.0529645 4.96556C0.0562315 4.97638 0.0607683 4.99111 0.0666324 5.00949C0.0783571 5.04624 0.0954105 5.09765 0.118257 5.16162C0.163907 5.28944 0.232938 5.46813 0.329153 5.68082C0.520915 6.10471 0.824342 6.67181 1.27213 7.24171C2.17347 8.38888 3.67664 9.56174 6 9.56174C8.32336 9.56174 9.82653 8.38888 10.7279 7.24171C11.1757 6.67181 11.4791 6.10471 11.6708 5.68082C11.7671 5.46813 11.8361 5.28944 11.8817 5.16162C11.9046 5.09765 11.9216 5.04624 11.9334 5.00949C11.9392 4.99111 11.9438 4.97638 11.947 4.96556C11.9478 4.96308 11.9485 4.9608 11.9491 4.95874C11.9498 4.95629 11.9504 4.95414 11.951 4.95228L11.9516 4.95016L11.9523 4.9479L11.9527 4.94628L11.9529 4.94561C11.953 4.94532 11.9531 4.94504 11.3785 4.78087L11.9529 4.94561L12 4.78087L11.9531 4.61669L11.3785 4.78087C11.9531 4.61669 11.9532 4.61698 11.9531 4.61669L11.9527 4.61546L11.9523 4.61384C11.9519 4.61264 11.9515 4.61117 11.951 4.60946C11.95 4.60603 11.9487 4.60159 11.947 4.59618C11.9438 4.58536 11.9392 4.57062 11.9334 4.55224C11.9216 4.51549 11.9046 4.46409 11.8817 4.40012C11.8361 4.2723 11.7671 4.0936 11.6708 3.88092C11.4791 3.45702 11.1757 2.88993 10.7279 2.32002C9.82653 1.17286 8.32336 0 6 0ZM1.41812 5.18819C1.34245 5.0209 1.28777 4.88087 1.25149 4.78087C1.28777 4.68087 1.34245 4.54084 1.41812 4.37355C1.58119 4.01308 1.83802 3.53436 2.21195 3.05845C2.95403 2.11399 4.1401 1.19522 6 1.19522C7.8599 1.19522 9.04597 2.11399 9.78805 3.05845C10.162 3.53436 10.4188 4.01308 10.5819 4.37355C10.6576 4.54084 10.7122 4.68087 10.7485 4.78087C10.7122 4.88087 10.6576 5.0209 10.5819 5.18819C10.4188 5.54865 10.162 6.02738 9.78805 6.50328C9.04597 7.44775 7.8599 8.36652 6 8.36652C4.1401 8.36652 2.95403 7.44775 2.21195 6.50328C1.83802 6.02738 1.58119 5.54865 1.41812 5.18819Z" fill="black"/>
</svg>
