<!-- Generated by IcoMoon.io -->
<svg version="1.1" xmlns="http://www.w3.org/2000/svg" width="32" height="32" viewBox="0 0 32 32">
<title>fashion-payment</title>
<path d="M20.699 2.523c-0.108-0.076-0.244-0.103-0.373-0.074s-0.24 0.11-0.306 0.225c-0.003 0.006-0.007 0.011-0.011 0.016-0.151 0.215-0.449 0.267-0.665 0.117-0.213-0.148-0.507-0.097-0.656 0.115l-0.686 0.976c-0.149 0.212-0.097 0.504 0.115 0.653 0.082 0.057 0.177 0.085 0.27 0.085 0.148 0 0.294-0.070 0.386-0.2l0.462-0.657c0.434 0.12 0.905 0.028 1.261-0.251l0.694 0.484c0.213 0.148 0.506 0.097 0.656-0.115s0.097-0.504-0.116-0.653l-1.033-0.72z"></path>
<path d="M25.905 8.428l-0.462 0.657c-0.149 0.212-0.097 0.504 0.115 0.653 0.082 0.057 0.177 0.085 0.27 0.085 0.148 0 0.294-0.070 0.386-0.2l0.686-0.976c0.149-0.212 0.097-0.504-0.116-0.653-0.216-0.15-0.268-0.447-0.117-0.663 0.004-0.005 0.007-0.010 0.011-0.015 0.085-0.101 0.124-0.232 0.107-0.363s-0.088-0.248-0.197-0.324l-1.033-0.72c-0.213-0.148-0.507-0.097-0.656 0.115s-0.097 0.504 0.116 0.653l0.694 0.484c-0.142 0.428-0.068 0.901 0.194 1.266z"></path>
<path d="M23.406 18.959c0.224 0 0.431 0.089 0.585 0.251 0.179 0.188 0.476 0.197 0.666 0.019s0.198-0.474 0.019-0.663c-0.328-0.346-0.791-0.545-1.269-0.545-0.963 0-1.746 0.78-1.746 1.738s0.783 1.738 1.746 1.738c0.466 0 0.905-0.181 1.234-0.509 0.184-0.183 0.184-0.48 0-0.663s-0.482-0.183-0.666 0c-0.152 0.151-0.354 0.234-0.569 0.234-0.443 0-0.804-0.359-0.804-0.801s0.361-0.801 0.804-0.801z"></path>
<path d="M27.598 16.458v-3.754c0-1.275-1.042-2.312-2.322-2.312h-2.498c0.146-1.257-0.266-2.362-1.136-2.969-0.737-0.513-1.691-0.605-2.687-0.259-0.942 0.327-1.818 1.015-2.466 1.937-0.287 0.408-0.516 0.841-0.681 1.291h-3.065l6.588-9.368 9.142 6.373-1.393 1.981c-0.149 0.212-0.097 0.504 0.116 0.653s0.507 0.097 0.656-0.115l1.518-2.159c0.229-0.325 0.15-0.774-0.177-1.002l-9.501-6.623c-0.158-0.11-0.35-0.153-0.54-0.12s-0.356 0.138-0.467 0.296l-2.179 3.099v-1.869c0-0.397-0.324-0.72-0.723-0.72h-11.292c-0.398 0-0.723 0.323-0.723 0.72v2.566c0 0.259 0.211 0.469 0.471 0.469s0.471-0.21 0.471-0.469v-2.348h1.364v8.636h-1.253c-0.037 0-0.074 0.001-0.111 0.003v-4.416c0-0.259-0.211-0.469-0.471-0.469s-0.471 0.21-0.471 0.469v4.665c-0.753 0.383-1.269 1.163-1.269 2.060v14.113c0 1.275 1.042 2.312 2.322 2.312h3.515c0.26 0 0.471-0.21 0.471-0.469s-0.211-0.469-0.471-0.469h-3.515c-0.761 0-1.38-0.616-1.38-1.374v-14.113c0-0.601 0.389-1.112 0.929-1.299 0.012-0.003 0.024-0.007 0.036-0.012 0.131-0.041 0.271-0.064 0.416-0.064h20.455c0.761 0 1.381 0.617 1.381 1.374v3.689h-3.371c-1.864 0-3.382 1.51-3.382 3.367s1.517 3.367 3.382 3.367h3.371v3.689c0 0.758-0.619 1.374-1.381 1.374h-3.597c-0.26 0-0.471 0.21-0.471 0.469s0.211 0.469 0.471 0.469h3.597c1.28 0 2.322-1.037 2.322-2.312v-3.754c1.065-0.252 1.86-1.207 1.86-2.343v-1.918c-0-1.136-0.795-2.092-1.86-2.343zM17.26 9.639c1.074-1.527 2.797-2.176 3.843-1.448 0.602 0.42 0.867 1.243 0.726 2.2h-5.004c0.119-0.259 0.265-0.511 0.435-0.752zM15.565 4.744l-3.971 5.647h-2.32v-8.636h6.291v2.989zM7.016 1.755h1.316v8.636h-1.316v-8.636zM28.517 20.718c0 0.811-0.663 1.471-1.477 1.471h-3.753c-1.345 0-2.44-1.090-2.44-2.429s1.095-2.429 2.44-2.429h3.753c0.815 0 1.477 0.66 1.477 1.471v1.917z"></path>
<path d="M15.049 20.674c-3.136 0-5.688 2.541-5.688 5.663s2.552 5.663 5.688 5.663c3.136 0 5.688-2.541 5.688-5.663s-2.552-5.663-5.688-5.663zM15.049 31.063c-2.617 0-4.746-2.12-4.746-4.726s2.129-4.726 4.746-4.726c2.617 0 4.746 2.12 4.746 4.726s-2.129 4.726-4.746 4.726z"></path>
<path d="M15.451 25.868h-0.803c-0.237 0-0.429-0.192-0.429-0.427s0.193-0.427 0.429-0.427h1.537c0.26 0 0.471-0.21 0.471-0.469s-0.211-0.469-0.471-0.469h-0.578v-0.396c0-0.259-0.211-0.469-0.471-0.469s-0.471 0.21-0.471 0.469v0.396h-0.017c-0.756 0-1.371 0.612-1.371 1.365s0.615 1.365 1.371 1.365h0.803c0.237 0 0.429 0.191 0.429 0.427s-0.192 0.427-0.429 0.427h-1.537c-0.26 0-0.471 0.21-0.471 0.469s0.211 0.469 0.471 0.469h0.751v0.396c0 0.259 0.211 0.469 0.471 0.469s0.471-0.21 0.471-0.469v-0.405c0.683-0.077 1.215-0.656 1.215-1.356-0-0.752-0.615-1.364-1.371-1.364z"></path>
</svg>
