<!-- Generated by IcoMoon.io -->
<svg version="1.1" xmlns="http://www.w3.org/2000/svg" width="32" height="32" viewBox="0 0 32 32">
<title>fashion-quality</title>
<path d="M27.316 14.988c-2.022 0-3.105 1.464-4.109 3.663-1.339 2.931-2.713 4.611-3.769 4.611-0.195 0-0.787 0-1.303-1.149-0.161-0.359-0.557-0.559-0.941-0.475-1.901 0.416-3.295 1.279-4.144 2.564-0.706 1.068-0.838 2.159-0.855 2.714-0.007 0.23 0.078 0.447 0.237 0.612s0.374 0.254 0.604 0.254h6.289c0.089 0.7 0.163 1.389 0.22 2.055-1.788 1.293-3.803 1.336-5.2 1.135-1.605-0.231-3.223-0.848-4.789-1.445-0.622-0.237-1.265-0.483-1.904-0.703-1.911-0.659-3.425-0.944-4.813-0.898 0.743-5.989 2.497-12.254 3.709-14.45h2.146c-0.163 0.857-0.348 2.136-0.531 3.685-0.030 0.257 0.154 0.49 0.412 0.521 0.019 0.002 0.037 0.003 0.055 0.003 0.235 0 0.438-0.176 0.466-0.414 0.194-1.644 0.388-2.972 0.555-3.794h2.975c0.166 0.825 0.359 2.148 0.553 3.794 0.028 0.239 0.231 0.414 0.466 0.414 0.018 0 0.037-0.001 0.055-0.003 0.258-0.030 0.442-0.263 0.412-0.521-0.183-1.55-0.367-2.825-0.53-3.685h2.049c0.75 1.372 1.714 4.341 2.5 7.719 0.050 0.217 0.243 0.363 0.457 0.363 0.035 0 0.071-0.004 0.107-0.012 0.253-0.059 0.41-0.311 0.351-0.563-0.82-3.523-1.846-6.641-2.647-8.057 0.129-0.608 0.278-1.273 0.422-1.918 0.371-1.659 0.754-3.375 0.857-4.339 0.149-1.399 0.048-4.882 0.013-5.916-0.014-0.422-0.357-0.753-0.781-0.753h-1.102c-0.431 0-0.781 0.35-0.781 0.78v1.127c0 2.215-1.776 4.023-3.959 4.030h-0.014c-1.062 0-2.059-0.412-2.81-1.161s-1.163-1.744-1.163-2.804v-1.193c0-0.43-0.351-0.78-0.781-0.78h-1.102c-0.424 0-0.767 0.331-0.781 0.753-0.020 0.596-0.067 2.134-0.067 3.55 0 0.259 0.21 0.469 0.47 0.469s0.47-0.21 0.47-0.469c0-1.293 0.039-2.693 0.061-3.366h0.791v1.035c0 1.31 0.511 2.541 1.438 3.467 0.932 0.93 2.17 1.438 3.491 1.436 2.699-0.009 4.895-2.238 4.895-4.968v-0.97h0.791c0.038 1.172 0.123 4.354-0.013 5.632-0.097 0.911-0.474 2.6-0.839 4.234-0.129 0.58-0.262 1.176-0.382 1.734h-2.497c-0.013-0.001-0.027-0.001-0.041 0h-3.716c-0.015-0.001-0.030-0.001-0.045 0h-2.639c-0.114-0.531-0.241-1.098-0.364-1.65-0.373-1.668-0.758-3.394-0.856-4.318-0.012-0.112-0.023-0.25-0.033-0.42-0.016-0.258-0.238-0.454-0.498-0.439-0.259 0.016-0.456 0.238-0.44 0.496 0.011 0.185 0.023 0.336 0.037 0.462 0.104 0.978 0.495 2.729 0.874 4.423 0.145 0.65 0.295 1.321 0.424 1.927-0.637 1.157-1.398 3.32-2.106 5.991-0.81 3.053-1.443 6.381-1.782 9.368-0.016 0.141 0.033 0.282 0.133 0.383s0.24 0.151 0.382 0.137c1.407-0.144 2.946 0.107 4.991 0.812 0.624 0.215 1.26 0.458 1.875 0.692 1.613 0.615 3.282 1.252 4.99 1.497 0.467 0.067 0.926 0.1 1.373 0.1 1.793 0 3.412-0.535 4.741-1.576 0.124-0.097 0.191-0.25 0.178-0.407-0.058-0.721-0.136-1.471-0.231-2.235h0.287c0.418 0 0.786-0.264 0.916-0.658 0.4-1.207 1.252-2.56 2.339-3.712 0.822-0.872 1.579-1.406 2.040-1.578 0.074 0.332 0.111 0.974 0.111 1.918v3.187c0 0.465 0.379 0.844 0.846 0.844h0.778c0.466 0 0.845-0.379 0.845-0.844v-3.187c0-0.697 0.285-1.289 0.587-1.916 0.347-0.72 0.705-1.465 0.705-2.441 0-2.553-1.014-4.407-2.41-4.407zM28.174 21.43c-0.334 0.694-0.68 1.412-0.68 2.322v3.093h-0.59v-3.093c0-1.498-0.070-2.383-0.438-2.77-0.089-0.093-0.212-0.146-0.341-0.146-1.088 0-2.568 1.48-2.995 1.934-1.177 1.249-2.106 2.729-2.547 4.061-0.003 0.009-0.013 0.015-0.024 0.015h-0.811c-0.006-0-0.013-0-0.019 0h-6.591c0.059-1.090 0.609-3.457 4.175-4.272 0.505 1.080 1.22 1.627 2.125 1.627 1.504 0 3.060-1.736 4.624-5.16 1.050-2.299 1.902-3.114 3.255-3.114 0.616 0 1.471 1.206 1.471 3.469 0 0.763-0.297 1.381-0.613 2.035z"></path>
<path d="M30.101 7.555c-0.003-0.008-0.007-0.016-0.010-0.024l-1.395-3.277c-0.137-0.322-0.453-0.531-0.804-0.531h-7.483c-0.351 0-0.667 0.208-0.804 0.531l-0.175 0.411c-0.102 0.239 0.010 0.514 0.249 0.615s0.515-0.010 0.616-0.248l0.158-0.371h1.794l-0.375 2.594h-2.523l0.187-0.441c0.102-0.238-0.010-0.513-0.249-0.615s-0.515 0.010-0.616 0.248l-0.461 1.083c-0.004 0.008-0.007 0.016-0.010 0.024-0.124 0.306-0.063 0.66 0.158 0.907l5.141 5.759c0.164 0.184 0.4 0.291 0.647 0.292h0.010c0.247-0.001 0.483-0.108 0.647-0.292l5.141-5.759c0.22-0.247 0.282-0.601 0.158-0.907zM21.852 8.286l1.232 4.061-3.709-4.154h2.453c0.007 0.032 0.015 0.063 0.024 0.093zM25.409 10.094c-0.249-0.075-0.511 0.065-0.586 0.313l-0.674 2.221-1.345-4.436h2.69l-0.111 0.365c-0.075 0.248 0.065 0.509 0.314 0.585s0.511-0.065 0.586-0.313l0.165-0.544c0.009-0.030 0.017-0.061 0.024-0.093h2.453l-3.709 4.154 0.506-1.668c0.075-0.248-0.066-0.51-0.314-0.585zM28.953 7.255h-2.523l-0.375-2.594h1.794l1.105 2.594zM23.195 4.661h1.91l0.375 2.594h-2.66l0.375-2.594z"></path>
</svg>
