<!-- Generated by IcoMoon.io -->
<svg version="1.1" xmlns="http://www.w3.org/2000/svg" width="46" height="32" viewBox="0 0 46 32">
<title>featured</title>
<path d="M6.733-0c0.041 0 0.083 0 0.124 0h25.058c0.533-0 1.077-0 1.547 0.044 0.54 0.050 1.144 0.169 1.758 0.497s1.047 0.765 1.389 1.187c0.298 0.367 0.599 0.82 0.895 1.263l6.188 9.282c0.366 0.548 0.734 1.1 0.997 1.606 0.301 0.579 0.565 1.277 0.565 2.121s-0.264 1.542-0.565 2.121c-0.263 0.506-0.632 1.058-0.997 1.606l-6.188 9.282c-0.296 0.443-0.597 0.896-0.895 1.263-0.342 0.421-0.775 0.858-1.389 1.186s-1.217 0.447-1.758 0.497c-0.471 0.044-1.014 0.044-1.547 0.044h-25.058c-0.042 0-0.083 0-0.124 0-0.969 0-1.911 0-2.688-0.104-0.876-0.118-1.875-0.405-2.706-1.235s-1.117-1.83-1.235-2.706c-0.104-0.777-0.104-1.719-0.104-2.688 0-0.041 0-0.083 0-0.124v-18.286c0-0.042 0-0.083-0-0.124-0-0.969-0-1.911 0.104-2.688 0.118-0.876 0.405-1.875 1.235-2.706s1.83-1.117 2.706-1.235c0.777-0.104 1.719-0.104 2.688-0.104zM4.637 4.637c-0.001 0.005-0.002 0.011-0.002 0.017-0.058 0.435-0.063 1.061-0.063 2.203v18.286c0 1.142 0.005 1.769 0.063 2.203 0.001 0.006 0.002 0.011 0.002 0.017 0.005 0.001 0.011 0.002 0.017 0.002 0.435 0.058 1.061 0.063 2.203 0.063h24.982c0.641 0 0.966-0.002 1.198-0.024l0.012-0.001 0.007-0.009c0.147-0.181 0.329-0.451 0.685-0.984l6.095-9.143c0.437-0.656 0.661-0.998 0.796-1.256l0.006-0.012-0.006-0.012c-0.134-0.258-0.359-0.6-0.796-1.256l-6.095-9.143c-0.355-0.533-0.538-0.803-0.685-0.984l-0.007-0.009-0.012-0.001c-0.232-0.022-0.558-0.024-1.198-0.024h-24.982c-1.142 0-1.769 0.005-2.203 0.063-0.006 0.001-0.011 0.002-0.017 0.002z"></path>
<path d="M32 16c0 1.262-1.023 2.286-2.286 2.286s-2.286-1.023-2.286-2.286c0-1.262 1.023-2.286 2.286-2.286s2.286 1.023 2.286 2.286z"></path>
<path d="M25.143 16c0-2.525 2.047-4.571 4.571-4.571s4.571 2.047 4.571 4.571c0 2.525-2.047 4.571-4.571 4.571s-4.571-2.047-4.571-4.571z"></path>
</svg>
