<!-- Generated by IcoMoon.io -->
<svg version="1.1" xmlns="http://www.w3.org/2000/svg" width="32" height="32" viewBox="0 0 32 32">
<title>food-drink</title>
<path d="M31.562 18.828c-1.979-3.899-4.552-7.438-7.634-10.534-3.089-3.089-6.629-5.662-10.514-7.647-0.692-0.353-1.476-0.418-2.214-0.176s-1.339 0.751-1.691 1.443c-0.457 0.895-0.398 1.92 0.052 2.736l-8.771 24.47c-0.281 0.692-0.131 1.456 0.398 1.992 0.522 0.542 1.293 0.699 1.979 0.438l8.731-3.135c0.242-0.085 0.366-0.346 0.274-0.588-0.085-0.242-0.346-0.366-0.588-0.274l-8.738 3.135c-0.359 0.144-0.738 0.059-1.012-0.215-0.268-0.274-0.346-0.653-0.196-1.012 0-0.007 0.007-0.013 0.007-0.020l0.751-2.090c0.686 0.607 1.574 0.96 2.508 0.96 2.077 0 3.768-1.691 3.768-3.768s-1.691-3.768-3.768-3.768c-0.052 0-0.098 0-0.15 0.007l2.495-6.968c0.666 0.542 1.495 0.842 2.371 0.842 2.077 0 3.768-1.691 3.768-3.768 0-2.064-1.672-3.749-3.736-3.762l0.594-1.652c1.417 0.901 2.991 1.62 4.349 2.606 0.209 0.144 0.496 0.085 0.64-0.124s0.085-0.496-0.124-0.64c-1.247-0.842-2.567-1.62-3.918-2.312-0.973-0.496-1.365-1.698-0.869-2.678 0.242-0.477 0.653-0.823 1.156-0.986s1.038-0.124 1.515 0.118c3.801 1.94 7.262 4.46 10.279 7.484s5.531 6.491 7.465 10.299c0.496 0.98 0.111 2.175-0.869 2.678-0.96 0.509-2.194 0.091-2.665-0.869-2.508-4.937-5.989-9.13-10.331-12.467-0.202-0.157-0.49-0.118-0.647 0.085s-0.118 0.49 0.085 0.647c4.519 3.35 7.791 7.843 10.501 12.774l-13.211 4.741c-0.242 0.085-0.366 0.346-0.274 0.588 0.085 0.242 0.353 0.366 0.588 0.274l13.773-4.937c0.816 0.405 1.783 0.405 2.606-0.020 1.424-0.725 1.992-2.475 1.267-3.905zM4.911 21.695c1.567 0 2.847 1.28 2.847 2.847s-1.28 2.847-2.847 2.847c-0.836 0-1.626-0.366-2.162-0.999l1.247-3.487 0.418-1.162c0.163-0.033 0.327-0.046 0.496-0.046zM9.62 8.039c1.567 0 2.847 1.28 2.847 2.847s-1.28 2.847-2.847 2.847c-0.771 0-1.502-0.307-2.031-0.855l1.731-4.826c0.098-0.007 0.202-0.013 0.3-0.013z"></path>
<path d="M12.206 20.683c-0.255-0.007-0.464 0.196-0.47 0.444-0.059 2.109 1.652 3.873 3.762 3.866 2.077 0 3.768-1.691 3.768-3.768s-1.691-3.768-3.768-3.768c-1.13 0-2.188 0.503-2.913 1.378-0.163 0.196-0.131 0.483 0.065 0.647s0.483 0.131 0.647-0.065c0.542-0.66 1.345-1.038 2.201-1.038 1.567 0 2.847 1.28 2.847 2.847s-1.28 2.847-2.847 2.847c-1.6 0-2.893-1.332-2.847-2.926 0.013-0.242-0.189-0.457-0.444-0.464z"></path>
<path d="M15.131 15.778c0.046 0 0.091-0.007 0.131-0.020 0.072-0.020 1.705-0.529 2.149-1.809s-0.503-2.723-0.549-2.782c-0.111-0.17-0.32-0.242-0.516-0.183-0.072 0.020-1.704 0.529-2.149 1.809s0.503 2.723 0.549 2.782c0.085 0.124 0.229 0.202 0.385 0.202zM15.066 13.088c0.183-0.529 0.784-0.901 1.208-1.104 0.215 0.431 0.451 1.123 0.268 1.659-0.183 0.529-0.784 0.901-1.208 1.097-0.216-0.425-0.451-1.117-0.268-1.652z"></path>
<path d="M20.82 16.875c0.235 0.085 0.503-0.033 0.588-0.274 0.085-0.235-0.033-0.503-0.274-0.588-0.731-0.268-1.463-0.255-1.495-0.255-0.202 0.007-0.379 0.137-0.431 0.333-0.020 0.072-0.47 1.711 0.372 2.769 0.81 0.999 2.331 1.025 2.625 1.025 0.202-0.007 0.379-0.137 0.431-0.333 0.007-0.026 0.196-0.705 0.118-1.456-0.026-0.255-0.248-0.438-0.503-0.411s-0.438 0.248-0.411 0.503c0.026 0.281 0.007 0.555-0.020 0.764-0.477-0.052-1.175-0.222-1.522-0.66-0.346-0.431-0.34-1.13-0.274-1.593 0.222 0.020 0.516 0.072 0.797 0.176z"></path>
<path d="M8.509 16.353c-0.196-0.052-0.405 0.026-0.509 0.196-0.039 0.059-0.94 1.495-0.444 2.743 0.49 1.247 2.136 1.718 2.207 1.737 0.189 0.052 0.405-0.026 0.509-0.196 0.039-0.059 0.94-1.495 0.444-2.749-0.496-1.234-2.142-1.711-2.207-1.731zM9.665 20.023c-0.405-0.17-1.045-0.516-1.26-1.064-0.202-0.509 0-1.169 0.196-1.593 0.405 0.17 1.045 0.516 1.26 1.064 0.202 0.509 0 1.169-0.196 1.593z"></path>
</svg>
