<!-- Generated by IcoMoon.io -->
<svg version="1.1" xmlns="http://www.w3.org/2000/svg" width="41" height="32" viewBox="0 0 41 32">
<title>free-delivery</title>
<path d="M27.37 24.982c-0.667 0.049-1.161 0.634-1.112 1.301 0.049 0.593 0.519 1.070 1.112 1.112 0.667-0.049 1.161-0.634 1.112-1.301-0.049-0.593-0.519-1.070-1.112-1.112z"></path>
<path d="M30.317 26.357c0.667-0.049 1.161-0.634 1.112-1.301-0.049-0.593-0.519-1.070-1.112-1.112-0.667 0.049-1.161 0.634-1.112 1.301 0.041 0.593 0.511 1.062 1.112 1.112z"></path>
<path d="M0.7 13.817h7.938v2.388h-2.717c-0.387 0-0.7 0.313-0.7 0.7s0.313 0.7 0.7 0.7h2.717v2.388h-6.447c-0.387 0-0.7 0.313-0.7 0.7s0.313 0.7 0.7 0.7h6.447v2.923c0 0.28 0.173 0.535 0.436 0.642l15.15 6.291c0.074 0.033 0.148 0.049 0.231 0.049s0.165-0.017 0.239-0.049l15.15-6.291c0.264-0.107 0.428-0.362 0.436-0.642v-17.472c0.008-0.058 0.008-0.115 0-0.173v-0.058c-0.016-0.041-0.033-0.074-0.058-0.115l-0.041-0.058-0.082-0.091-0.049-0.041-0.091-0.041h-0.033l-15.183-6.208c-0.165-0.066-0.354-0.066-0.527 0l-15.323 6.184-0.082 0.091-0.041 0.058c-0.025 0.033-0.041 0.074-0.058 0.115v0.058c-0.008 0.058-0.008 0.115 0 0.173v5.591h-8.012c-0.387 0-0.7 0.313-0.7 0.7s0.313 0.7 0.7 0.7v0.091zM29.436 10.318l-4.949 2.058-5.525-2.314 13.084-5.55 5.723 2.305-8.333 3.499zM38.93 23.846l-13.759 5.714v-15.998l13.718-5.723 0.041 16.007zM24.479 1.483l5.747 2.297-13.067 5.525-5.978-2.487 13.298-5.336zM10.029 7.864l5.344 2.207 8.39 3.491v15.998l-13.726-5.714v-2.462h2.898c0.387 0 0.7-0.313 0.7-0.7s-0.313-0.7-0.7-0.7h-2.898v-2.388h6.637c0.387 0 0.7-0.313 0.7-0.7s-0.313-0.7-0.7-0.7h-6.637v-2.38h1.4c0.387 0 0.7-0.313 0.7-0.7s-0.313-0.7-0.7-0.7h-1.4v-4.553h-0.008z"></path>
</svg>
