<!-- Generated by IcoMoon.io -->
<svg version="1.1" xmlns="http://www.w3.org/2000/svg" width="47" height="32" viewBox="0 0 47 32">
<title>free-delivery-1</title>
<path d="M38.051 23.205c-1.135 0-2.221 0.446-3.035 1.251-0.815 0.815-1.27 1.881-1.27 3.016s0.446 2.201 1.27 3.016c0.824 0.805 1.891 1.251 3.035 1.251 2.327 0 4.228-1.91 4.228-4.267s-1.891-4.267-4.228-4.267zM38.051 29.838c-1.309 0-2.405-1.076-2.405-2.366s1.096-2.366 2.405-2.366c1.29 0 2.327 1.057 2.327 2.366 0.010 1.299-1.038 2.366-2.327 2.366z"></path>
<path d="M39.156 8.999c-0.175-0.165-0.398-0.242-0.63-0.242h-4.858c-0.524 0-0.95 0.427-0.95 0.95v7.767c0 0.524 0.427 0.95 0.95 0.95h7.719c0.524 0 0.95-0.427 0.95-0.95v-5.207c0-0.262-0.116-0.524-0.31-0.698l-2.87-2.57zM34.608 16.524v-5.886h3.549l2.279 2.046v3.84h-5.828z"></path>
<path d="M14.904 23.205c-1.135 0-2.221 0.446-3.035 1.251-0.815 0.815-1.27 1.881-1.27 3.016s0.446 2.201 1.27 3.016c0.824 0.805 1.891 1.251 3.035 1.251 2.327 0 4.228-1.91 4.228-4.267s-1.891-4.267-4.228-4.267zM14.904 29.838c-1.309 0-2.405-1.076-2.405-2.366s1.096-2.366 2.405-2.366c1.29 0 2.327 1.057 2.327 2.366 0.010 1.299-1.038 2.366-2.327 2.366z"></path>
<path d="M8.591 24.369h-1.91v-2.521c0-0.524-0.427-0.95-0.95-0.95s-0.95 0.427-0.95 0.95v3.471c0 0.524 0.427 0.95 0.95 0.95h2.851c0.524 0 0.95-0.427 0.95-0.95s-0.427-0.95-0.941-0.95z"></path>
<path d="M13.392 19.2c0-0.524-0.427-0.95-0.95-0.95h-11.491c-0.524 0-0.95 0.427-0.95 0.95s0.427 0.95 0.95 0.95h11.501c0.514 0 0.941-0.417 0.941-0.95z"></path>
<path d="M2.87 15.777l11.501 0.068c0.524 0 0.95-0.417 0.96-0.941 0.010-0.533-0.417-0.96-0.941-0.96l-11.51-0.058c-0.524 0-0.95 0.417-0.95 0.941-0.010 0.524 0.417 0.95 0.941 0.95z"></path>
<path d="M4.81 11.481h11.501c0.524 0 0.95-0.427 0.95-0.95s-0.427-0.95-0.95-0.95h-11.501c-0.524 0-0.95 0.427-0.95 0.95s0.427 0.95 0.95 0.95z"></path>
<path d="M46.196 10.201l-6.788-5.624c-0.175-0.145-0.378-0.213-0.611-0.213h-7.981v-3.413c0-0.524-0.427-0.95-0.95-0.95h-24.136c-0.514 0-0.941 0.427-0.941 0.95v6.933c0 0.524 0.427 0.95 0.95 0.95s0.95-0.427 0.95-0.95v-5.993h22.255v22.468h-7.767c-0.524 0-0.95 0.427-0.95 0.95s0.427 0.95 0.95 0.95h11.568c0.524 0 0.95-0.427 0.95-0.95s-0.427-0.95-0.95-0.95h-1.901v-18.104h7.641l6.177 5.12-0.068 12.975h-0.989c-0.524 0-0.95 0.427-0.95 0.95s0.427 0.95 0.95 0.95h1.92c0.524 0 0.95-0.417 0.95-0.941l0.068-14.371c-0.010-0.281-0.136-0.562-0.349-0.737z"></path>
</svg>
