<!-- Generated by IcoMoon.io -->
<svg version="1.1" xmlns="http://www.w3.org/2000/svg" width="32" height="32" viewBox="0 0 32 32">
<title>free-return</title>
<path d="M28.55 0h-25.1c-1.9 0-3.45 1.55-3.45 3.45v25.1c0 1.9 1.55 3.45 3.45 3.45h25.1c1.9 0 3.45-1.55 3.45-3.45v-25.1c0-1.9-1.55-3.45-3.45-3.45zM12.82 1.88h6.26v4.59c0 0.87-0.71 1.57-1.57 1.57h-3.11c-0.87 0-1.57-0.71-1.57-1.57v-4.59h-0.010zM30.13 28.55c0 0.87-0.71 1.57-1.57 1.57h-25.11c-0.87 0-1.57-0.71-1.57-1.57v-25.1c0-0.87 0.71-1.57 1.57-1.57h7.5v4.59c0 1.9 1.55 3.45 3.45 3.45h3.11c1.9 0 3.45-1.55 3.45-3.45v-4.59h7.6c0.87 0 1.57 0.71 1.57 1.57v25.1z"></path>
<path d="M19.010 16.48h-5.77l1.24-1.24c0.37-0.37 0.37-0.96 0-1.33s-0.96-0.37-1.33 0l-2.84 2.84c-0.18 0.18-0.27 0.41-0.27 0.66s0.1 0.49 0.27 0.66l2.84 2.84c0.18 0.18 0.42 0.27 0.66 0.27s0.48-0.090 0.66-0.27c0.37-0.37 0.37-0.96 0-1.33l-1.24-1.24h5.77c1.7 0 3.080 1.38 3.080 3.080s-1.38 3.080-3.080 3.080h-8.030c-0.52 0-0.94 0.42-0.94 0.94s0.42 0.94 0.94 0.94h8.030c2.73 0 4.95-2.22 4.95-4.95 0.020-2.72-2.21-4.95-4.94-4.95z"></path>
</svg>
