<!-- Generated by IcoMoon.io -->
<svg version="1.1" xmlns="http://www.w3.org/2000/svg" width="32" height="32" viewBox="0 0 32 32">
<title>furniture</title>
<path d="M29.633 7.16h-2.2c-0.293 0-0.567 0.073-0.807 0.193v-4.487c0-1.58-1.287-2.867-2.867-2.867h-16.12c-1.58 0-2.867 1.287-2.867 2.867v0.973c0 0.26 0.213 0.473 0.473 0.473s0.473-0.213 0.473-0.473v-0.973c0-1.053 0.86-1.913 1.913-1.913h16.12c1.053 0 1.913 0.86 1.913 1.913 0 13.36 0-1.747 0 11.687-0.367-0.26-0.82-0.413-1.3-0.413h-13.813c-0.26 0-0.473 0.213-0.473 0.473s0.213 0.473 0.473 0.473h13.82c0.687 0 1.253 0.533 1.3 1.213 0 1.3 0 0.707 0 1.72h-19.953v-1.627c0-0.72 0.587-1.307 1.307-1.307h1.307c0.26 0 0.473-0.213 0.473-0.473s-0.213-0.473-0.473-0.473h-1.307c-0.487 0-0.933 0.153-1.307 0.42v-8.5c0-0.26-0.213-0.473-0.473-0.473s-0.473 0.213-0.473 0.473v1.3c-0.24-0.127-0.52-0.2-0.807-0.2h-2.2c-0.973 0-1.767 0.787-1.767 1.76v9.573c0 3.56 2.727 6.493 6.2 6.827l-1.82 5.173c-0.26 0.733 0.287 1.507 1.067 1.507h1.173c0.393 0 0.76-0.207 0.967-0.547l3.693-6.1h8.833l3.693 6.1c0.2 0.333 0.573 0.547 0.967 0.547h1.173c0.78 0 1.327-0.773 1.067-1.507l-1.82-5.173c3.473-0.333 6.2-3.267 6.2-6.827v-5.213c0-0.26-0.213-0.473-0.473-0.473s-0.473 0.213-0.473 0.473v5.213c0 3.26-2.647 5.907-5.907 5.913h-0.007c-14.74 0-6.227 0-17.667 0-3.26 0-5.913-2.653-5.913-5.913v-9.573c0-0.447 0.36-0.807 0.807-0.807h2.2c0.447 0 0.807 0.367 0.807 0.807v9.127c-0.187 0.067-0.32 0.24-0.32 0.447 0 0.227 0.16 0.413 0.367 0.467 0.213 1.020 1.12 1.793 2.207 1.793h17.34c1.087 0 1.993-0.773 2.207-1.793 0.213-0.047 0.367-0.24 0.367-0.467 0-0.207-0.133-0.387-0.32-0.447 0-1.16 0 3.693 0-9.2 0.040-0.413 0.387-0.74 0.807-0.74h2.2c0.447 0 0.807 0.367 0.807 0.807v2.14c0 0.26 0.213 0.473 0.473 0.473s0.473-0.213 0.473-0.473v-2.14c0.020-0.967-0.767-1.753-1.74-1.753zM6.773 30.96c-0.033 0.053-0.093 0.087-0.153 0.087h-1.173c-0.12 0-0.207-0.12-0.167-0.24l1.92-5.46h2.967l-3.393 5.613zM25.947 31.047h-1.173c-0.060 0-0.12-0.033-0.153-0.087l-3.393-5.607h2.967l1.92 5.46c0.047 0.113-0.040 0.233-0.167 0.233zM24.367 19.8h-17.34c-0.553 0-1.027-0.347-1.213-0.827h19.773c-0.193 0.487-0.667 0.827-1.22 0.827z"></path>
<path d="M10.42 6.64c0.867 0 1.58-0.707 1.58-1.573s-0.707-1.573-1.573-1.573c-0.867 0-1.573 0.707-1.573 1.573-0.007 0.867 0.7 1.573 1.567 1.573zM10.42 4.44c0.347 0 0.627 0.28 0.627 0.627s-0.28 0.627-0.627 0.627c-0.347 0-0.627-0.28-0.627-0.627 0.007-0.347 0.287-0.627 0.627-0.627z"></path>
<path d="M15.7 6.64c0.867 0 1.573-0.707 1.573-1.573s-0.707-1.573-1.573-1.573c-0.867 0-1.573 0.707-1.573 1.573-0.007 0.867 0.7 1.573 1.573 1.573zM15.7 4.44c0.347 0 0.627 0.28 0.627 0.627s-0.28 0.627-0.627 0.627c-0.347 0-0.627-0.28-0.627-0.627s0.28-0.627 0.627-0.627z"></path>
<path d="M20.973 6.64c0.867 0 1.573-0.707 1.573-1.573s-0.707-1.573-1.573-1.573c-0.867 0-1.573 0.707-1.573 1.573s0.707 1.573 1.573 1.573zM20.973 4.44c0.347 0 0.627 0.28 0.627 0.627s-0.28 0.627-0.627 0.627c-0.347 0-0.627-0.28-0.627-0.627 0.007-0.347 0.287-0.627 0.627-0.627z"></path>
<path d="M10.42 11.967c0.867 0 1.573-0.707 1.573-1.573s-0.707-1.573-1.573-1.573c-0.867 0-1.573 0.707-1.573 1.573s0.707 1.573 1.573 1.573zM10.42 9.767c0.347 0 0.627 0.28 0.627 0.627s-0.28 0.627-0.627 0.627c-0.347 0-0.627-0.28-0.627-0.627 0.007-0.347 0.287-0.627 0.627-0.627z"></path>
<path d="M15.7 11.967c0.867 0 1.573-0.707 1.573-1.573s-0.707-1.573-1.573-1.573c-0.867 0-1.573 0.707-1.573 1.573-0.007 0.867 0.7 1.573 1.573 1.573zM15.7 9.767c0.347 0 0.627 0.28 0.627 0.627s-0.28 0.627-0.627 0.627c-0.347 0-0.627-0.28-0.627-0.627s0.28-0.627 0.627-0.627z"></path>
<path d="M20.973 11.967c0.867 0 1.573-0.707 1.573-1.573s-0.707-1.573-1.573-1.573c-0.867 0-1.573 0.707-1.573 1.573s0.707 1.573 1.573 1.573zM20.973 9.767c0.347 0 0.627 0.28 0.627 0.627s-0.28 0.627-0.627 0.627c-0.347 0-0.627-0.28-0.627-0.627 0.007-0.347 0.287-0.627 0.627-0.627z"></path>
</svg>
