<!-- Generated by IcoMoon.io -->
<svg version="1.1" xmlns="http://www.w3.org/2000/svg" width="34" height="32" viewBox="0 0 34 32">
<title>furniture-1</title>
<path d="M31.872 12.224c-0.384-1.6-1.744-2.896-3.36-3.248-0.128-0.032-0.272-0.016-0.4-0.032-1.2-5.216-5.792-8.944-11.216-8.944h-1.776c-5.44 0-10.016 3.728-11.232 8.944-0.848 0.112-1.664 0.432-2.32 1.008-0.992 0.848-1.568 2.080-1.568 3.376 0 1.392 0.672 2.704 1.776 3.536v8.016c0 1.312 0.72 2.448 1.776 3.056v1.376c0 1.472 1.2 2.672 2.672 2.672s2.672-1.2 2.672-2.672v-0.896h14.224v0.896c0 1.472 1.2 2.672 2.672 2.672s2.672-1.2 2.672-2.672v-1.376c1.056-0.624 1.776-1.744 1.776-3.056v-8.016c1.408-1.056 2.064-2.864 1.632-4.64zM15.104 1.776h1.776c4.496 0 8.32 3.040 9.424 7.312-0.56 0.16-1.088 0.416-1.552 0.8-1.040 0.848-1.648 2.112-1.648 3.456v4.448h-14.208v-4.272c0-2.080-1.344-3.888-3.2-4.448 1.104-4.256 4.912-7.296 9.408-7.296zM8 19.552h16c0.496 0 0.896 0.4 0.896 0.896s-0.4 0.896-0.896 0.896h-16c-0.496 0-0.896-0.4-0.896-0.896s0.4-0.896 0.896-0.896zM7.104 29.328c0 0.496-0.4 0.896-0.896 0.896s-0.896-0.4-0.896-0.896v-0.896h1.776v0.896h0.016zM26.672 29.328c0 0.496-0.4 0.896-0.896 0.896s-0.896-0.4-0.896-0.896v-0.896h1.776v0.896h0.016zM28.88 15.632c-0.272 0.16-0.448 0.448-0.448 0.768v8.496c0 0.976-0.8 1.776-1.776 1.776h-21.328c-0.976 0-1.776-0.8-1.776-1.776v-8.496c0-0.32-0.176-0.608-0.448-0.768-0.832-0.48-1.328-1.344-1.328-2.288 0-0.784 0.336-1.52 0.944-2.032s1.376-0.72 2.176-0.592c1.264 0.208 2.208 1.424 2.208 2.816v4.416c-1.040 0.368-1.776 1.344-1.776 2.496 0 1.472 1.2 2.672 2.672 2.672h16c1.472 0 2.672-1.2 2.672-2.672 0-1.152-0.752-2.128-1.776-2.496v-4.624c0-0.8 0.352-1.568 0.992-2.064 0.64-0.512 1.44-0.704 2.272-0.528 0.96 0.208 1.76 0.976 2 1.92 0.272 1.184-0.224 2.352-1.28 2.976z"></path>
</svg>
