<!-- Generated by IcoMoon.io -->
<svg version="1.1" xmlns="http://www.w3.org/2000/svg" width="32" height="32" viewBox="0 0 32 32">
<title>garden-care</title>
<path d="M28 23.5c-0.106 0-0.21-0.034-0.296-0.097s-0.149-0.152-0.181-0.253c-0.596-1.744-1.415-3.404-2.437-4.938l0.827-0.562c0.948 1.418 1.731 2.941 2.331 4.538 0.623-0.562 1.107-1.26 1.414-2.040s0.43-1.621 0.359-2.456c-2.45-3.168-7.253-5.046-8.678-5.55-0.307-0.109-0.56-0.332-0.706-0.623s-0.176-0.627-0.082-0.938c0.094-0.312 0.305-0.575 0.588-0.735s0.617-0.206 0.933-0.126c3.172 0.873 6.132 2.384 8.7 4.441 0.151-0.541 0.227-1.099 0.226-1.661-0.068-0.954-0.374-1.875-0.889-2.681-0.939-0.864-4.263-1.244-7.089-1.311-0.26-0.006-0.509-0.109-0.698-0.289s-0.304-0.423-0.323-0.683c-0.019-0.26 0.059-0.518 0.219-0.723s0.391-0.344 0.648-0.389c1.364-0.251 2.746-0.392 4.133-0.424 0.754-0.007 1.506 0.072 2.243 0.235-0.599-1.691-2.27-5.235-5.742-5.235-4.306 0-5.1 2.38-5.526 3.658-0.275 0.956-0.9 1.773-1.75 2.29-0.069 0.035-0.146 0.053-0.223 0.053s-0.154-0.018-0.223-0.053c-0.85-0.516-1.475-1.334-1.75-2.29-0.427-1.279-1.221-3.658-5.527-3.658-3.473 0-5.144 3.544-5.742 5.235 0.736-0.163 1.489-0.242 2.242-0.235 1.387 0.032 2.768 0.173 4.132 0.424 0.257 0.045 0.487 0.184 0.648 0.389s0.238 0.463 0.219 0.723c-0.019 0.26-0.135 0.503-0.323 0.683s-0.438 0.283-0.698 0.289c-2.824 0.067-6.15 0.45-7.088 1.311-0.514 0.806-0.819 1.727-0.889 2.681-0 0.561 0.076 1.12 0.228 1.661 2.568-2.057 5.528-3.568 8.7-4.441 0.316-0.079 0.65-0.034 0.933 0.126s0.494 0.424 0.588 0.735 0.065 0.648-0.082 0.938c-0.147 0.291-0.4 0.514-0.706 0.623-2.268 0.795-4.411 1.912-6.361 3.317l-0.6-0.797c2.032-1.466 4.263-2.631 6.627-3.462 0.052-0.018 0.096-0.052 0.127-0.097s0.047-0.098 0.046-0.153c-0-0.041-0.010-0.081-0.028-0.117s-0.044-0.069-0.076-0.094c-0.032-0.025-0.069-0.043-0.109-0.051s-0.081-0.008-0.121 0.002c-4.872 1.204-8.796 4.65-8.835 4.684-0.057 0.051-0.126 0.088-0.2 0.108s-0.152 0.023-0.227 0.009-0.146-0.046-0.208-0.093c-0.061-0.046-0.111-0.106-0.145-0.175-0.376-0.858-0.565-1.787-0.552-2.723 0.073-1.168 0.447-2.296 1.084-3.278 0.018-0.027 0.039-0.053 0.063-0.076 1.294-1.294 5.447-1.582 7.807-1.638 0.007 0 0.013-0.001 0.019-0.003s0.012-0.006 0.017-0.010c0.005-0.004 0.009-0.010 0.012-0.016s0.005-0.012 0.005-0.019c0-0.007-0.001-0.013-0.003-0.019s-0.006-0.012-0.010-0.017c-0.004-0.005-0.010-0.009-0.016-0.012s-0.012-0.005-0.019-0.005c-1.307-0.24-2.631-0.377-3.96-0.409-0.947-0.040-1.893 0.113-2.78 0.45-0.085 0.042-0.18 0.059-0.274 0.049s-0.183-0.047-0.257-0.105-0.13-0.137-0.161-0.227c-0.031-0.089-0.037-0.186-0.015-0.278 0.31-1.198 0.794-2.344 1.438-3.401 1.404-2.282 3.323-3.488 5.55-3.488 5.027 0 6.041 3.042 6.474 4.342 0.184 0.608 0.541 1.149 1.026 1.558 0.485-0.409 0.841-0.95 1.026-1.557 0.434-1.3 1.448-4.343 6.475-4.343 2.227 0 4.146 1.206 5.55 3.488 0.643 1.057 1.127 2.202 1.436 3.4 0.021 0.093 0.016 0.189-0.015 0.279s-0.088 0.168-0.162 0.227c-0.075 0.059-0.164 0.095-0.259 0.105s-0.19-0.008-0.275-0.050c-0.885-0.336-1.83-0.488-2.776-0.448-1.329 0.032-2.652 0.168-3.959 0.409-0.013 0.001-0.026 0.007-0.035 0.017s-0.013 0.023-0.013 0.036 0.007 0.026 0.017 0.035c0.010 0.009 0.023 0.013 0.036 0.013 2.36 0.056 6.514 0.344 7.807 1.638 0.023 0.023 0.044 0.049 0.063 0.076 0.637 0.981 1.011 2.11 1.084 3.278 0.013 0.937-0.174 1.865-0.55 2.723-0.034 0.069-0.084 0.129-0.145 0.175s-0.132 0.078-0.208 0.093c-0.075 0.015-0.153 0.012-0.227-0.008s-0.142-0.057-0.2-0.109c-0.039-0.035-3.962-3.48-8.834-4.684-0.040-0.010-0.081-0.011-0.121-0.003s-0.078 0.026-0.11 0.051c-0.032 0.025-0.059 0.057-0.077 0.094s-0.028 0.077-0.028 0.118c-0.001 0.055 0.015 0.108 0.046 0.153s0.076 0.079 0.127 0.097c1.509 0.534 6.633 2.543 9.227 6 0.050 0.067 0.083 0.146 0.095 0.229 0.022 0.156 0.507 3.837-2.718 5.987-0.082 0.055-0.179 0.084-0.278 0.084z"></path>
<path d="M24.428 17.31c-0.258-0.328-0.523-0.636-0.79-0.917l0.726-0.688c0.287 0.303 0.573 0.635 0.85 0.985l-0.786 0.619z"></path>
<path d="M16 32c-0.068 0-0.135-0.014-0.197-0.040-0.143-0.062-3.525-1.512-4.527-2.012-0.706-0.411-1.295-0.996-1.71-1.7-0.043-0.075-0.066-0.161-0.066-0.247 0-3.784 1.989-7.158 2.844-8.433 0.023-0.034 0.036-0.072 0.039-0.113s-0.005-0.081-0.024-0.117c-0.014-0.029-0.034-0.054-0.058-0.075s-0.052-0.037-0.083-0.047c-0.024-0.008-0.050-0.012-0.076-0.010s-0.051 0.008-0.074 0.020c-3.457 1.807-3.073 8.179-3.068 8.243 0.006 0.093-0.013 0.186-0.057 0.269s-0.11 0.151-0.191 0.198c-0.081 0.047-0.173 0.070-0.267 0.067s-0.184-0.032-0.262-0.084c-1.576-1.050-3.088-3.553-3.15-3.658-0.048-0.078-0.073-0.167-0.074-0.259 0-2.221 3.004-6.212 4.147-7.354 0.592-0.634 1.31-1.136 2.107-1.475 0.074-0.029 0.137-0.080 0.181-0.145s0.067-0.143 0.065-0.223c0-0.070-0.018-0.139-0.052-0.201s-0.084-0.113-0.143-0.149c-0.053-0.034-0.115-0.054-0.178-0.058s-0.127 0.008-0.184 0.036c-4.361 2.137-6.446 8.652-6.467 8.719-0.023 0.074-0.063 0.142-0.117 0.198s-0.12 0.098-0.193 0.124-0.151 0.034-0.228 0.025c-0.077-0.010-0.151-0.037-0.215-0.080-3.223-2.151-2.74-5.832-2.717-5.988 0.012-0.083 0.045-0.162 0.095-0.229 0.429-0.565 0.908-1.090 1.431-1.568l0.678 0.735c-0.445 0.407-0.856 0.85-1.228 1.325-0.072 0.835 0.051 1.676 0.358 2.456s0.792 1.478 1.414 2.039c0.673-1.8 2.817-6.727 6.75-8.65 0.209-0.103 0.442-0.15 0.675-0.137s0.459 0.085 0.656 0.209c0.203 0.126 0.371 0.302 0.488 0.511s0.177 0.444 0.177 0.683c0.002 0.281-0.082 0.557-0.241 0.789s-0.385 0.411-0.648 0.511c-0.666 0.29-1.265 0.716-1.757 1.25-1.15 1.15-3.721 4.723-3.85 6.512 0.571 0.917 1.235 1.773 1.981 2.554 0.046-2.079 0.526-6.465 3.62-8.081 0.141-0.074 0.294-0.118 0.453-0.131s0.317 0.006 0.468 0.056c0.157 0.051 0.301 0.133 0.426 0.241s0.227 0.239 0.301 0.386c0.097 0.194 0.14 0.411 0.126 0.628s-0.085 0.426-0.205 0.606c-0.618 0.924-2.62 4.182-2.673 7.735 0.306 0.49 0.725 0.9 1.223 1.194 0.84 0.421 3.525 1.58 4.277 1.904 0.75-0.323 3.437-1.483 4.277-1.904 0.498-0.294 0.918-0.704 1.225-1.194-0.050-3.553-2.054-6.811-2.674-7.734-0.121-0.181-0.191-0.39-0.205-0.607s0.030-0.433 0.126-0.628c0.074-0.147 0.176-0.278 0.301-0.386s0.27-0.189 0.426-0.24c0.151-0.050 0.31-0.069 0.468-0.056s0.312 0.057 0.453 0.131c3.094 1.617 3.573 6 3.62 8.082 0.746-0.781 1.409-1.637 1.98-2.554-0.128-1.79-2.7-5.365-3.85-6.513-0.493-0.534-1.092-0.96-1.758-1.25-0.263-0.1-0.489-0.279-0.647-0.511s-0.243-0.508-0.241-0.789c-0.001-0.24 0.060-0.476 0.177-0.685s0.285-0.386 0.489-0.512c0.197-0.125 0.423-0.197 0.656-0.209s0.465 0.035 0.675 0.137c0.597 0.296 1.161 0.656 1.68 1.074l-0.626 0.781c-0.462-0.372-0.964-0.693-1.496-0.957-0.057-0.027-0.12-0.040-0.184-0.036s-0.125 0.024-0.178 0.058c-0.060 0.037-0.109 0.088-0.143 0.149s-0.052 0.13-0.052 0.201c-0.002 0.079 0.021 0.157 0.065 0.222s0.107 0.117 0.18 0.146c0.798 0.339 1.516 0.841 2.108 1.475 1.144 1.139 4.148 5.13 4.148 7.351 0 0.091-0.025 0.18-0.071 0.258-0.063 0.106-1.575 2.608-3.15 3.659-0.078 0.052-0.168 0.081-0.262 0.084s-0.186-0.020-0.267-0.067c-0.081-0.047-0.147-0.115-0.191-0.198s-0.064-0.176-0.057-0.269c0.005-0.064 0.382-6.439-3.069-8.243-0.023-0.011-0.048-0.018-0.074-0.020s-0.052 0.002-0.076 0.010c-0.061 0.020-0.112 0.064-0.141 0.122-0.018 0.036-0.026 0.077-0.023 0.118s0.016 0.080 0.039 0.113c0.854 1.276 2.843 4.65 2.843 8.434 0 0.088-0.023 0.174-0.067 0.25-0.415 0.704-1.004 1.289-1.71 1.7-1 0.5-4.383 1.95-4.527 2.012-0.062 0.026-0.129 0.039-0.197 0.038z"></path>
<path d="M16.5 29.5h-1v2h1v-2z"></path>
<path d="M16.5 10.5h-1v18h1v-18z"></path>
<path d="M16.5 8.5h-1v1h1v-1z"></path>
<path d="M16.5 6.5h-1v1h1v-1z"></path>
</svg>
