<!-- Generated by IcoMoon.io -->
<svg version="1.1" xmlns="http://www.w3.org/2000/svg" width="30" height="32" viewBox="0 0 30 32">
<title>gift-r</title>
<path d="M15.238 2.169c0.909-1.092 2.278-1.788 3.81-1.788 2.735 0 4.952 2.217 4.952 4.952 0 0.982-0.286 1.897-0.779 2.667h6.874v11.429h-1.524v12.19h-26.667v-12.19h-1.524v-11.429h6.874c-0.493-0.77-0.779-1.685-0.779-2.667 0-2.735 2.217-4.952 4.952-4.952 1.532 0 2.901 0.695 3.81 1.788zM14.095 5.333c0-1.473-1.194-2.667-2.667-2.667s-2.667 1.194-2.667 2.667c0 1.473 1.194 2.667 2.667 2.667s2.667-1.194 2.667-2.667zM2.667 10.286v6.857h11.429v-6.857h-11.429zM21.714 5.333c0-1.473-1.194-2.667-2.667-2.667s-2.667 1.194-2.667 2.667c0 1.473 1.194 2.667 2.667 2.667s2.667-1.194 2.667-2.667zM16.381 10.286v6.857h11.429v-6.857h-11.429zM26.286 19.429h-9.905v9.905h9.905v-9.905zM14.095 19.429h-9.905v9.905h9.905v-9.905z"></path>
</svg>
