<svg xmlns="http://www.w3.org/2000/svg" width="45" height="47"><g transform="translate(0 0)"><g fill="none" class="nc-icon-wrapper"><path fill-rule="evenodd" clip-rule="evenodd" d="M22.5.834C10.074.834 0 11.131 0 23.834c0 12.701 10.071 22.998 22.496 23h.008C34.929 46.832 45 36.535 45 23.834c0-12.703-10.074-23-22.5-23zM3.02 18.622a21.045 21.045 0 0 0-.652 5.212c0 1.8.227 3.547.652 5.212v-.37h9.184a32.933 32.933 0 0 1-.362-4.842c0-1.663.13-3.283.362-4.842H3.02v-.37zm.638-2.051h8.995a35.446 35.446 0 0 1 3.179-8.717c.873-1.661 1.806-3.085 2.706-4.2-6.858 1.399-12.46 6.36-14.88 12.917zm10.944 2.42a30.563 30.563 0 0 0-.392 4.843c0 1.665.142 3.287.392 4.842h15.796c.25-1.555.392-3.177.392-4.842 0-1.665-.142-3.287-.392-4.842H14.602zm15.311-2.42H15.087a32.941 32.941 0 0 1 2.831-7.572c1-1.9 2.054-3.407 2.971-4.42.46-.507.864-.866 1.186-1.088.246-.17.384-.218.425-.23.041.012.179.06.425.23.322.222.725.58 1.186 1.088.917 1.013 1.972 2.52 2.97 4.42a32.941 32.941 0 0 1 2.832 7.572zm2.883 2.42c.232 1.56.362 3.18.362 4.843 0 1.663-.13 3.283-.362 4.842h9.184v.37c.425-1.665.652-3.411.652-5.212 0-1.8-.227-3.547-.652-5.212v.37h-9.184zm8.546-2.42h-8.995a35.446 35.446 0 0 0-3.179-8.717c-.873-1.661-1.806-3.085-2.706-4.2 6.858 1.399 12.46 6.36 14.88 12.917zM18.538 44.015c-6.858-1.4-12.46-6.361-14.88-12.918h8.995a35.446 35.446 0 0 0 3.179 8.717c.873 1.661 1.806 3.085 2.706 4.2zm-.62-5.346a32.944 32.944 0 0 1-2.831-7.572h14.826a32.944 32.944 0 0 1-2.831 7.572c-1 1.9-2.054 3.407-2.971 4.42-.46.507-.864.866-1.186 1.088-.246.17-.384.218-.425.23a1.66 1.66 0 0 1-.425-.23c-.322-.222-.725-.58-1.186-1.088-.917-1.013-1.972-2.52-2.97-4.42zm11.25 1.145a35.446 35.446 0 0 0 3.179-8.717h8.995c-2.42 6.557-8.022 11.518-14.88 12.918.9-1.116 1.833-2.54 2.706-4.2z" fill="#212121"></path></g></g></svg>