<!-- Generated by IcoMoon.io -->
<svg version="1.1" xmlns="http://www.w3.org/2000/svg" width="32" height="32" viewBox="0 0 32 32">
<title>health-beauty</title>
<path d="M7.747 6.187c-0.26 0-0.467 0.207-0.467 0.467v0.040c0 0.26 0.207 0.467 0.467 0.467s0.467-0.207 0.467-0.467v-0.040c0-0.26-0.207-0.467-0.467-0.467z"></path>
<path d="M28.353 2.053l-1.707-0.987c-1.207-0.7-2.587-1.067-3.98-1.067h-5.573c-0.347 0-0.633 0.287-0.633 0.633v2.12c0 0.347 0.287 0.633 0.633 0.633h1.133v2.267h-0.933c-0.46 0-0.827 0.373-0.827 0.827v1.193h-0.1c-1.713 0-3.1 1.393-3.1 3.1v10.18c0 0.26 0.207 0.467 0.467 0.467s0.467-0.207 0.467-0.467v-10.173c0-1.193 0.973-2.167 2.167-2.167h7.98c1.193 0 2.167 0.973 2.167 2.167v19.033c0 0.687-0.56 1.253-1.253 1.253h-3.653c-0.26 0-0.467 0.207-0.467 0.467s0.207 0.467 0.467 0.467h3.653c1.207 0 2.187-0.98 2.187-2.187v-19.033c0-1.713-1.393-3.1-3.1-3.1h-0.1v-1.2c0-0.46-0.373-0.827-0.827-0.827h-0.933v-2.267h5.52c0.327 0 0.607-0.213 0.687-0.527 0.080-0.32-0.053-0.647-0.34-0.807zM17.4 7.673v-1.087h5.913v1.087h-5.913zM21.547 5.653h-2.373v-2.267h2.373v2.267zM17.4 2.447v-1.507h5.267c1.233 0 2.447 0.327 3.513 0.94l0.98 0.567h-9.76z"></path>
<path d="M21.727 23.833c-0.22 0.133-0.3 0.42-0.167 0.64 0.087 0.147 0.247 0.233 0.407 0.233 0.080 0 0.16-0.020 0.24-0.067 1.1-0.653 1.787-1.853 1.787-3.127v-3.34c0-2.007-1.627-3.633-3.633-3.633s-3.633 1.627-3.633 3.633v2.793c0 0.26 0.207 0.467 0.467 0.467s0.467-0.207 0.467-0.467v-2.793c0-1.487 1.207-2.693 2.693-2.693s2.693 1.207 2.693 2.693v3.34c0.007 0.94-0.5 1.833-1.32 2.32z"></path>
<path d="M17.54 22.26h-5.047v-9.893c0-0.9-0.66-1.647-1.527-1.78v-0.78c0-0.433-0.353-0.78-0.78-0.78h-0.173v-3.627c0-0.547-0.44-0.987-0.987-0.987h-2.56c-0.547 0-0.987 0.44-0.987 0.987v3.62h-0.173c-0.433 0-0.78 0.353-0.78 0.78v0.78c-0.767 0.12-1.393 0.733-1.507 1.527-0.033 0.253 0.14 0.493 0.4 0.527 0.253 0.040 0.493-0.14 0.527-0.4 0.060-0.42 0.427-0.74 0.853-0.74h5.893c0.473 0 0.86 0.387 0.86 0.86v3.213h-7.613v-1.633c0-0.26-0.207-0.467-0.467-0.467s-0.473 0.22-0.473 0.48v16.253c0 0.993 0.807 1.8 1.8 1.8h0.18c0.26 0 0.467-0.207 0.467-0.467s-0.207-0.467-0.467-0.467h-0.18c-0.473 0-0.86-0.387-0.86-0.86v-8.22h7.62v0.273h-2.453c-1.813 0-3.287 1.473-3.287 3.287v4.647c0 0.993 0.807 1.807 1.807 1.807h11.393c0.993 0 1.807-0.807 1.807-1.807v-4.647c0-1.813-1.473-3.287-3.287-3.287zM6.413 5.4c0-0.027 0.020-0.047 0.047-0.047h2.56c0.027 0 0.047 0.020 0.047 0.047v3.62h-2.653v-3.62zM10.033 9.96v0.607h-4.573v-0.607h4.573zM3.94 21.053v-4.533h7.62v4.533h-7.62zM19.020 31.060h-11.393c-0.48 0-0.867-0.387-0.867-0.867v-3.473h13.127v3.473c0 0.48-0.387 0.867-0.867 0.867zM19.887 25.787h-13.127v-0.24c0-1.293 1.053-2.347 2.347-2.347h8.433c1.293 0 2.347 1.053 2.347 2.347v0.24z"></path>
</svg>
