<!-- Generated by IcoMoon.io -->
<svg version="1.1" xmlns="http://www.w3.org/2000/svg" width="37" height="32" viewBox="0 0 37 32">
<title>heart-1</title>
<path d="M30.313 6.973c-2.546-3.282-7.658-2.732-9.447 1.017-0.939 1.968-3.74 1.968-4.679 0-1.789-3.749-6.901-4.299-9.447-1.017l-0.521 0.672c-2.238 2.885-1.915 6.999 0.746 9.499l11.561 10.861 11.562-10.861c2.661-2.5 2.985-6.614 0.746-9.499l-0.521-0.672zM18.526 5.319c3.33-4.887 10.659-5.294 14.448-0.411l0.521 0.672c3.304 4.258 2.827 10.33-1.101 14.019l-11.71 11c-0.011 0.010-0.022 0.021-0.034 0.032-0.171 0.161-0.377 0.355-0.575 0.507-0.234 0.18-0.585 0.408-1.063 0.501-0.321 0.063-0.652 0.063-0.973 0-0.478-0.094-0.829-0.321-1.063-0.501-0.198-0.153-0.404-0.346-0.575-0.507-0.011-0.011-0.023-0.021-0.034-0.032l-11.71-11c-3.928-3.69-4.405-9.762-1.101-14.019l0.521-0.672c3.789-4.883 11.119-4.476 14.448 0.411z"></path>
</svg>
