<!-- Generated by IcoMoon.io -->
<svg version="1.1" xmlns="http://www.w3.org/2000/svg" width="24" height="32" viewBox="0 0 24 32">
<title>increase-energy</title>
<path d="M12.089 32c-0.159 0-0.317-0.056-0.445-0.167-0.476-0.416-11.644-10.308-11.644-19.833 0-6.617 5.423-12 12.089-12s12.089 5.383 12.089 12c0 9.525-11.169 19.417-11.644 19.833-0.128 0.111-0.286 0.167-0.445 0.167zM12.089 1.333c-5.925 0-10.746 4.785-10.746 10.667 0 7.891 8.665 16.477 10.746 18.425 2.081-1.948 10.746-10.535 10.746-18.425 0-5.881-4.821-10.667-10.746-10.667z"></path>
<path d="M10.746 18.667c-0.085 0-0.171-0.016-0.252-0.049-0.301-0.12-0.471-0.437-0.406-0.752l0.803-3.864h-2.16c-0.246 0-0.471-0.133-0.588-0.347-0.118-0.213-0.11-0.473 0.021-0.68l4.701-7.333c0.173-0.271 0.521-0.384 0.818-0.259 0.301 0.12 0.471 0.437 0.406 0.752l-0.802 3.865h2.16c0.246 0 0.471 0.133 0.588 0.347 0.118 0.212 0.109 0.472-0.023 0.679l-4.701 7.333c-0.125 0.196-0.341 0.308-0.565 0.308zM9.955 12.667h1.762c0.201 0 0.394 0.089 0.521 0.247 0.128 0.155 0.179 0.36 0.137 0.556l-0.231 1.109 2.079-3.245h-1.762c-0.201 0-0.394-0.089-0.521-0.247-0.128-0.155-0.179-0.36-0.137-0.556l0.231-1.109-2.079 3.245z"></path>
</svg>
