<svg xmlns="http://www.w3.org/2000/svg" width="36" height="21"><g transform="translate(0 0)"><g fill="none" class="nc-icon-wrapper"><path d="M32.8 0H8C6.24 0 4.8 1.453 4.8 3.229V4.44c0 .444.36.807.8.807.44 0 .8-.363.8-.807V3.229c0-.161.04-.323.08-.484l8.96 7.749-8.96 7.749a2.04 2.04 0 0 1-.08-.484v-1.211a.806.806 0 0 0-.8-.807c-.44 0-.8.363-.8.807v1.211c0 1.776 1.44 3.229 3.2 3.229h24.8c1.76 0 3.2-1.453 3.2-3.229V3.229C36 1.453 34.56 0 32.8 0zM7.68 1.655c.08-.04.2-.04.32-.04h24.8c.12 0 .24 0 .32.04l-12.2 10.534a.836.836 0 0 1-1.04 0L7.68 1.655zM32.8 19.372H8c-.12 0-.24 0-.32-.04l9-7.789 2.16 1.897a2.3 2.3 0 0 0 1.56.605c.56 0 1.12-.202 1.56-.605l2.16-1.897 9 7.789c-.08.04-.2.04-.32.04zm1.6-1.614c0 .161-.04.323-.08.484l-8.96-7.749 8.96-7.749c.04.161.08.323.08.484v14.53zm-32-9.283c0-.444.36-.807.8-.807H8c.44 0 .8.363.8.807 0 .444-.36.807-.8.807H3.2c-.44 0-.8-.363-.8-.807zM8 13.318H.8c-.44 0-.8-.363-.8-.807 0-.444.36-.807.8-.807H8c.44 0 .8.363.8.807 0 .444-.36.807-.8.807z" fill="#82D175"></path></g></g></svg>