<!-- Generated by IcoMoon.io -->
<svg version="1.1" xmlns="http://www.w3.org/2000/svg" width="32" height="32" viewBox="0 0 32 32">
<title>mall-fashion</title>
<path d="M13.399 19.377h-3.009c-0.145 0-0.272-0.104-0.302-0.247l-0.639-3.079c-0.092-0.444-0.487-0.767-0.937-0.767h-0.633c-0.257 0-0.465 0.21-0.465 0.469s0.208 0.469 0.465 0.469h0.633c0.012 0 0.023 0.009 0.026 0.021l0.639 3.079c0.12 0.575 0.63 0.993 1.213 0.993h3.009c0.512 0 0.979-0.324 1.16-0.807l0.221-0.588c0.004-0.009 0.007-0.018 0.010-0.027l0.449-1.197c0.002-0.006 0.005-0.011 0.007-0.017l0.308-0.82c0.090-0.239 0.057-0.508-0.087-0.718s-0.382-0.336-0.636-0.336h-4.255c-0.257 0-0.465 0.21-0.465 0.469s0.208 0.469 0.465 0.469h4.027l-0.116 0.311h-1.546c-0.257 0-0.465 0.21-0.465 0.469s0.208 0.469 0.465 0.469h1.195l-0.106 0.282h-1.879c-0.257 0-0.465 0.21-0.465 0.469s0.208 0.469 0.465 0.469h1.525c-0.053 0.102-0.159 0.168-0.274 0.168z"></path>
<path d="M10.509 22.668c0.565 0 1.024-0.463 1.024-1.031s-0.459-1.031-1.024-1.031c-0.565 0-1.024 0.463-1.024 1.031s0.459 1.031 1.024 1.031zM10.509 21.542c0.051 0 0.093 0.042 0.093 0.094s-0.042 0.094-0.093 0.094c-0.051 0-0.093-0.042-0.093-0.094s0.042-0.094 0.093-0.094z"></path>
<path d="M12.174 21.636c0 0.569 0.46 1.031 1.024 1.031s1.024-0.463 1.024-1.031c0-0.569-0.459-1.031-1.024-1.031s-1.024 0.463-1.024 1.031zM13.292 21.636c0 0.052-0.042 0.094-0.093 0.094s-0.093-0.042-0.093-0.094 0.042-0.094 0.093-0.094c0.051 0 0.093 0.042 0.093 0.094z"></path>
<path d="M1.308 11.92c0.257 0 0.465-0.21 0.465-0.469v-5.082c0-0.396 0.32-0.719 0.714-0.719h4.319v1.45c-0.843 0.21-1.469 0.978-1.469 1.891 0 1.074 0.868 1.948 1.934 1.948s1.934-0.874 1.934-1.948c0-0.913-0.626-1.681-1.469-1.891v-1.45h7.542v1.45c-0.843 0.21-1.469 0.979-1.469 1.891 0 1.074 0.868 1.948 1.935 1.948s1.934-0.874 1.934-1.948c0-0.913-0.626-1.681-1.469-1.891v-1.45h4.319c0.393 0 0.714 0.323 0.714 0.719v13.387c0 0.259 0.208 0.469 0.465 0.469s0.465-0.21 0.465-0.469v-13.387c0-0.913-0.738-1.656-1.645-1.656h-4.319c-0.012-2.601-2.117-4.713-4.702-4.713s-4.69 2.112-4.702 4.713h-4.319c-0.907 0-1.645 0.743-1.645 1.656v5.082c0 0.259 0.208 0.469 0.465 0.469zM8.275 8.992c0 0.557-0.45 1.011-1.003 1.011s-1.004-0.453-1.004-1.011c0-0.388 0.218-0.726 0.538-0.895v0.664c0 0.259 0.208 0.469 0.465 0.469s0.465-0.21 0.465-0.469v-0.664c0.32 0.169 0.538 0.507 0.538 0.895zM16.747 8.992c0 0.557-0.45 1.011-1.003 1.011s-1.004-0.453-1.004-1.011c0-0.388 0.219-0.726 0.538-0.895v0.664c0 0.259 0.208 0.469 0.465 0.469s0.465-0.21 0.465-0.469v-0.664c0.32 0.169 0.538 0.507 0.538 0.895zM11.508 0.938c2.072 0 3.759 1.692 3.771 3.776h-7.542c0.012-2.084 1.699-3.776 3.771-3.776z"></path>
<path d="M19.932 26.146c0.838 0 1.519-0.686 1.519-1.53s-0.682-1.53-1.519-1.53c-0.838 0-1.52 0.687-1.52 1.53s0.682 1.53 1.52 1.53zM19.932 24.023c0.325 0 0.589 0.266 0.589 0.593s-0.264 0.593-0.589 0.593c-0.325 0-0.589-0.266-0.589-0.593s0.264-0.593 0.589-0.593z"></path>
<path d="M23.646 27.016c-0.838 0-1.52 0.687-1.52 1.53s0.682 1.53 1.52 1.53 1.52-0.686 1.52-1.53c0-0.844-0.682-1.53-1.52-1.53zM23.646 29.139c-0.325 0-0.589-0.266-0.589-0.593s0.264-0.593 0.589-0.593c0.324 0 0.589 0.266 0.589 0.593s-0.264 0.593-0.589 0.593z"></path>
<path d="M24.72 23.628c-0.182-0.183-0.476-0.183-0.658 0l-5.206 5.243c-0.182 0.183-0.182 0.48 0 0.663 0.091 0.092 0.21 0.137 0.329 0.137s0.238-0.046 0.329-0.137l5.206-5.243c0.182-0.183 0.182-0.48 0-0.663z"></path>
<path d="M30.837 24.901c0.201-0.144 0.321-0.379 0.321-0.627v-2.114c0-0.55-0.444-0.998-0.991-0.998h-11.996c0.228-0.702 0.343-1.435 0.343-2.187 0-3.89-3.143-7.055-7.006-7.055s-7.005 3.165-7.005 7.055c0 1.711 0.615 3.361 1.734 4.647 1.107 1.273 2.629 2.104 4.285 2.339 0.022 0.003 0.044 0.005 0.066 0.005 0.228 0 0.427-0.169 0.46-0.403 0.036-0.256-0.141-0.493-0.396-0.53-1.435-0.204-2.755-0.925-3.715-2.029-0.969-1.115-1.503-2.545-1.503-4.029 0-3.373 2.725-6.118 6.074-6.118s6.075 2.744 6.075 6.118c0 0.757-0.134 1.491-0.4 2.187h-1.386c-0.546 0-0.991 0.448-0.991 0.998v1.954c-0.735 0.48-1.574 0.796-2.442 0.919-0.255 0.036-0.432 0.273-0.396 0.53 0.033 0.234 0.232 0.404 0.46 0.404 0.022 0 0.043-0.002 0.065-0.005 0.962-0.137 1.893-0.479 2.717-0.997 0.487 0.39 0.775 0.987 0.775 1.616 0 0.665-0.322 1.293-0.86 1.68-0.201 0.145-0.32 0.379-0.32 0.627v0.538h-12.32c-0.393 0-0.714-0.322-0.714-0.719v-15.381c0-0.259-0.208-0.469-0.465-0.469s-0.465 0.21-0.465 0.469v15.381c0 0.913 0.738 1.656 1.645 1.656h12.32v0.638c0 0.55 0.444 0.998 0.991 0.998h14.37c0.546 0 0.991-0.448 0.991-0.998v-2.114c0-0.248-0.12-0.482-0.32-0.627-0.539-0.387-0.861-1.016-0.861-1.681s0.322-1.293 0.86-1.681zM30.227 24.189c-0.741 0.566-1.181 1.454-1.181 2.392s0.44 1.826 1.181 2.392v2.029c0 0.033-0.027 0.060-0.060 0.060h-14.37c-0.033 0-0.060-0.027-0.060-0.060v-2.029c0.741-0.566 1.181-1.454 1.181-2.392s-0.44-1.826-1.181-2.392v-2.029c0-0.033 0.027-0.060 0.060-0.060h14.37c0.033 0 0.060 0.027 0.060 0.060v2.029z"></path>
<path d="M27.349 22.754c-0.257 0-0.465 0.21-0.465 0.469v0.412c0 0.259 0.209 0.469 0.465 0.469s0.465-0.21 0.465-0.469v-0.412c0-0.259-0.208-0.469-0.465-0.469z"></path>
<path d="M27.349 24.856c-0.257 0-0.465 0.21-0.465 0.469v0.412c0 0.259 0.209 0.469 0.465 0.469s0.465-0.21 0.465-0.469v-0.412c0-0.259-0.208-0.469-0.465-0.469z"></path>
<path d="M27.349 26.958c-0.257 0-0.465 0.21-0.465 0.469v0.412c0 0.259 0.209 0.469 0.465 0.469s0.465-0.21 0.465-0.469v-0.412c0-0.259-0.208-0.469-0.465-0.469z"></path>
<path d="M27.349 29.059c-0.257 0-0.465 0.21-0.465 0.469v0.412c0 0.259 0.209 0.469 0.465 0.469s0.465-0.21 0.465-0.469v-0.412c0-0.259-0.208-0.469-0.465-0.469z"></path>
</svg>
