<!-- Generated by IcoMoon.io -->
<svg version="1.1" xmlns="http://www.w3.org/2000/svg" width="33" height="32" viewBox="0 0 33 32">
<title>medica-saving</title>
<path d="M30.427 14.128c-0.354 0-0.64 0.286-0.64 0.64s0.286 0.64 0.64 0.64c0.538 0 0.98 0.436 0.98 0.98s-0.436 0.98-0.98 0.98h-1.212c-0.109-1.995-0.729-3.928-1.804-5.61s-2.553-3.050-4.303-3.99c0.041-0.306 0.061-0.613 0.061-0.926 0-3.779-3.064-6.843-6.829-6.843s-6.829 3.064-6.829 6.829c0 0.15 0.007 0.293 0.014 0.436-0.014 0.007-0.020 0.007-0.034 0.014l-2.826-1.634c-0.361-0.211-0.797-0.211-1.164 0-0.361 0.204-0.579 0.586-0.579 1.001v4.092c-0.837 1.042-1.477 2.206-1.913 3.459h-1.239c-0.974 0-1.77 0.797-1.77 1.77v4.051c0 0.974 0.797 1.77 1.77 1.77h1.239c0.79 2.274 2.274 4.262 4.242 5.665v2.839c0 0.749 0.606 1.355 1.355 1.355h2.376c0.511 0 0.974-0.279 1.205-0.735l0.701-1.362c0.368 0.034 0.735 0.054 1.103 0.054h3.622c0.368 0 0.735-0.020 1.103-0.054l0.701 1.362c0.232 0.456 0.694 0.735 1.205 0.735h2.376c0.749 0 1.355-0.606 1.355-1.355v-2.839c2.887-2.056 4.671-5.304 4.861-8.824h1.212c1.246 0 2.254-1.008 2.254-2.254 0-1.239-1.008-2.247-2.254-2.247zM16.34 1.28c3.064 0 5.556 2.492 5.556 5.556 0 0.98-0.252 1.927-0.735 2.757-0.926-0.504-1.913-0.858-2.928-1.049 0.143-0.266 0.225-0.572 0.225-0.892 0-1.089-0.946-1.981-2.117-1.981-0.463 0-0.837-0.313-0.837-0.701s0.374-0.701 0.837-0.701c0.463 0 0.837 0.313 0.837 0.701 0 0.354 0.286 0.64 0.64 0.64s0.64-0.286 0.64-0.64c0-0.885-0.62-1.634-1.477-1.886v-0.095c0-0.354-0.286-0.64-0.64-0.64s-0.64 0.286-0.64 0.64v0.088c-0.858 0.252-1.477 1.008-1.477 1.886 0 1.089 0.946 1.981 2.117 1.981 0.463 0 0.837 0.313 0.837 0.701s-0.374 0.701-0.837 0.701c-0.463 0-0.837-0.313-0.837-0.701 0-0.354-0.286-0.64-0.64-0.64s-0.64 0.286-0.64 0.64c0 0.32 0.082 0.626 0.232 0.892-1.014 0.191-2.002 0.545-2.928 1.055-0.483-0.837-0.735-1.784-0.735-2.764-0.007-3.064 2.485-5.549 5.549-5.549zM23.36 26.594c-0.177 0.116-0.286 0.32-0.286 0.531v3.173c0 0.041-0.034 0.075-0.075 0.075h-2.376c-0.027 0-0.054-0.014-0.068-0.041l-0.899-1.75c-0.123-0.238-0.388-0.374-0.654-0.34-0.456 0.061-0.919 0.095-1.382 0.095h-3.622c-0.456 0-0.926-0.034-1.382-0.095-0.266-0.034-0.531 0.102-0.654 0.34l-0.899 1.75c-0.014 0.027-0.041 0.041-0.068 0.041h-2.376c-0.041 0-0.075-0.034-0.075-0.075v-3.173c0-0.211-0.109-0.409-0.286-0.531-2.008-1.334-3.486-3.336-4.174-5.624-0.082-0.272-0.327-0.456-0.613-0.456h-1.702c-0.272 0-0.497-0.225-0.497-0.497v-1.389h0.892c0.354 0 0.64-0.286 0.64-0.64s-0.286-0.64-0.64-0.64h-0.885v-1.389c0-0.272 0.225-0.497 0.497-0.497h1.702c0.279 0 0.531-0.184 0.613-0.456 0.402-1.341 1.062-2.567 1.961-3.643 0.095-0.116 0.15-0.259 0.15-0.409v-4.119l2.934 1.702c0.177 0.102 0.395 0.116 0.586 0.027 0.007 0 0.014-0.007 0.020-0.007 0.157 0.599 0.395 1.171 0.715 1.716-0.415 0.3-0.81 0.64-1.185 1.014-0.252 0.252-0.252 0.654 0 0.906s0.654 0.252 0.906 0c3.411-3.404 8.953-3.404 12.357 0 0.123 0.123 0.286 0.184 0.449 0.184s0.327-0.061 0.449-0.184c0.252-0.252 0.252-0.654 0-0.906-0.374-0.374-0.776-0.715-1.192-1.021 0.232-0.388 0.415-0.803 0.565-1.226 3.152 1.838 5.154 5.27 5.154 8.946-0.007 3.466-1.723 6.679-4.603 8.606z"></path>
<path d="M7.891 13.528c-0.17 0-0.334 0.068-0.449 0.184-0.123 0.116-0.184 0.286-0.184 0.449 0 0.17 0.068 0.334 0.184 0.449s0.286 0.184 0.449 0.184c0.17 0 0.334-0.068 0.449-0.184s0.184-0.286 0.184-0.449c0-0.17-0.068-0.334-0.184-0.449s-0.279-0.184-0.449-0.184z"></path>
</svg>
