<!-- Generated by IcoMoon.io -->
<svg version="1.1" xmlns="http://www.w3.org/2000/svg" width="30" height="32" viewBox="0 0 30 32">
<title>medica-riview</title>
<path d="M6.733 8.94c0.34 0 0.614-0.274 0.614-0.614s-0.274-0.614-0.614-0.614c-0.34 0-0.614 0.274-0.614 0.614s0.274 0.614 0.614 0.614z"></path>
<path d="M12.245 19.161h-1.835v-1.835c0-0.34-0.274-0.614-0.614-0.614s-0.614 0.274-0.614 0.614v1.835h-1.835c-0.34 0-0.614 0.274-0.614 0.614s0.274 0.614 0.614 0.614h1.835v1.835c0 0.34 0.274 0.614 0.614 0.614s0.614-0.274 0.614-0.614v-1.835h1.835c0.34 0 0.614-0.274 0.614-0.614s-0.274-0.614-0.614-0.614z"></path>
<path d="M22.080 17.92l-2.488 1.437v-5.316c0-0.66-0.215-1.313-0.614-1.835l-3.063-4.082v-1.737c0.712-0.255 1.221-0.934 1.221-1.731v-2.821c0-1.012-0.823-1.835-1.835-1.835h-11.017c-1.012 0-1.835 0.823-1.835 1.835v2.815c0 0.797 0.509 1.476 1.221 1.731v1.737l-3.063 4.082c-0.392 0.529-0.607 1.182-0.607 1.842v11.86c0 1.685 1.371 3.063 3.063 3.063h9.842c1.371 2.299 4.33 3.069 6.655 1.731l7.425-4.284c2.325-1.339 3.154-4.336 1.789-6.687-1.358-2.351-4.349-3.154-6.694-1.802zM12.826 24.059h-11.605v-8.999h17.143v5.002l-3.709 2.142c-0.771 0.451-1.398 1.084-1.829 1.855zM3.67 1.835c0-0.34 0.274-0.614 0.614-0.614h11.017c0.34 0 0.614 0.274 0.614 0.614v2.815c0 0.34-0.274 0.614-0.614 0.614h-11.017c-0.34 0-0.614-0.274-0.614-0.614v-2.815zM4.774 8.692c0.078-0.104 0.124-0.235 0.124-0.366v-1.835h9.796v1.221h-5.512c-0.34 0-0.614 0.274-0.614 0.614s0.274 0.614 0.614 0.614h5.819l2.998 3.997c0.196 0.261 0.32 0.575 0.353 0.901h-17.117c0.039-0.327 0.157-0.633 0.353-0.901l3.187-4.245zM1.221 25.894v-0.62h11.122c-0.196 0.797-0.196 1.639 0.033 2.456h-9.313c-1.012 0.007-1.842-0.823-1.842-1.835zM18.939 29.629c-1.757 1.012-4.003 0.411-5.015-1.345-1.019-1.776-0.405-4.010 1.345-5.015l3.324-1.92 3.67 6.361-3.324 1.92zM26.364 25.345l-3.037 1.757-3.67-6.361 3.037-1.757c1.757-1.012 4.003-0.411 5.015 1.345 1.019 1.763 0.398 4.003-1.345 5.015z"></path>
</svg>
