<!-- Generated by IcoMoon.io -->
<svg version="1.1" xmlns="http://www.w3.org/2000/svg" width="31" height="32" viewBox="0 0 31 32">
<title>money-return</title>
<path d="M31.289 15.653c0 4.181-1.628 8.107-4.58 11.065-2.958 2.951-6.884 4.58-11.065 4.58s-8.107-1.628-11.065-4.58c-2.951-2.958-4.58-6.884-4.58-11.065 0-0.683 0.043-1.372 0.135-2.041 0.043-0.334 0.348-0.569 0.683-0.526s0.569 0.348 0.526 0.683c-0.078 0.619-0.121 1.252-0.121 1.884 0 7.95 6.471 14.421 14.421 14.421s14.421-6.471 14.421-14.421c0-7.95-6.471-14.421-14.421-14.421-4.089 0-7.9 1.692-10.631 4.679h1.927c0.334 0 0.612 0.27 0.612 0.612 0 0.334-0.277 0.612-0.612 0.612h-3.236c-0.334 0-0.612-0.27-0.612-0.612v-3.243c0-0.334 0.27-0.612 0.612-0.612 0.334 0 0.612 0.27 0.612 0.612v1.586c1.252-1.316 2.731-2.411 4.345-3.221 2.183-1.081 4.53-1.636 6.983-1.636 4.181 0 8.107 1.628 11.065 4.58 2.951 2.958 4.58 6.884 4.58 11.065zM7.275 15.653c0-4.615 3.755-8.37 8.37-8.37s8.37 3.755 8.37 8.37c0 4.615-3.755 8.37-8.37 8.37-4.615-0.007-8.37-3.755-8.37-8.37zM8.498 15.653c0 3.94 3.207 7.147 7.147 7.147s7.147-3.207 7.147-7.147c0-3.94-3.207-7.147-7.147-7.147s-7.147 3.207-7.147 7.147zM15.644 16.3c0.811 0 1.472 0.562 1.472 1.252s-0.661 1.252-1.472 1.252c-0.555 0-0.832-0.164-1.323-0.633-0.249-0.235-0.633-0.22-0.86 0.028-0.235 0.249-0.22 0.633 0.028 0.86 0.427 0.405 0.875 0.775 1.564 0.91l0.014 0.54c0.007 0.334 0.277 0.597 0.612 0.597 0.007 0 0.007 0 0.014 0 0.334-0.007 0.604-0.292 0.597-0.626l-0.014-0.519c1.188-0.256 2.076-1.237 2.076-2.404 0-1.365-1.209-2.475-2.695-2.475-0.811 0-1.472-0.562-1.472-1.252s0.661-1.252 1.472-1.252c0.412 0 1.173 0.334 1.337 0.583 0.185 0.284 0.562 0.363 0.846 0.178s0.363-0.562 0.178-0.846c-0.341-0.526-1.109-0.896-1.756-1.052l-0.014-0.633c-0.007-0.334-0.292-0.604-0.626-0.597s-0.604 0.292-0.597 0.626l0.014 0.59c-1.188 0.256-2.076 1.237-2.076 2.404-0.014 1.358 1.195 2.468 2.681 2.468zM4.743 15.653c0-6.009 4.892-10.901 10.901-10.901s10.901 4.892 10.901 10.901c0 6.009-4.892 10.901-10.901 10.901s-10.901-4.892-10.901-10.901zM5.966 15.653c0 5.333 4.345 9.678 9.678 9.678s9.678-4.345 9.678-9.678c0-5.333-4.345-9.678-9.678-9.678s-9.678 4.345-9.678 9.678z"></path>
</svg>
