<!-- Generated by IcoMoon.io -->
<svg version="1.1" xmlns="http://www.w3.org/2000/svg" width="32" height="32" viewBox="0 0 32 32">
<title>need</title>
<path d="M27.315 4.685c-3.025-3.020-7.040-4.685-11.315-4.685s-8.29 1.665-11.315 4.685c-3.020 3.025-4.685 7.040-4.685 11.315s1.665 8.29 4.685 11.315c3.025 3.020 7.040 4.685 11.315 4.685s8.29-1.665 11.315-4.685c3.020-3.025 4.685-7.040 4.685-11.315s-1.665-8.29-4.685-11.315zM26.625 25.3l-4.365-4.365c1.075-1.36 1.715-3.075 1.715-4.935s-0.64-3.575-1.715-4.935l4.365-4.365c2.18 2.485 3.5 5.74 3.5 9.3s-1.325 6.81-3.5 9.3zM9.9 16c0-3.365 2.735-6.1 6.1-6.1s6.1 2.735 6.1 6.1c0 3.365-2.735 6.1-6.1 6.1s-6.1-2.735-6.1-6.1zM25.3 5.375l-4.365 4.365c-1.36-1.075-3.075-1.715-4.935-1.715s-3.575 0.64-4.935 1.715l-4.365-4.365c2.485-2.18 5.74-3.5 9.3-3.5s6.81 1.325 9.3 3.5zM5.375 6.7l4.365 4.365c-1.075 1.36-1.715 3.075-1.715 4.935s0.64 3.575 1.715 4.935l-4.365 4.365c-2.18-2.485-3.5-5.74-3.5-9.3s1.325-6.81 3.5-9.3zM6.7 26.625l4.365-4.365c1.36 1.075 3.075 1.715 4.935 1.715s3.575-0.64 4.935-1.715l4.365 4.365c-2.485 2.18-5.74 3.5-9.3 3.5s-6.81-1.325-9.3-3.5z"></path>
</svg>
