<!-- Generated by IcoMoon.io -->
<svg version="1.1" xmlns="http://www.w3.org/2000/svg" width="26" height="32" viewBox="0 0 26 32">
<title>newsletter</title>
<path d="M19.432 9.543h-12.772c-0.185 0-0.335-0.151-0.335-0.337v-3.45c0-0.186 0.15-0.337 0.335-0.337h12.772c0.185 0 0.335 0.151 0.335 0.337v3.45c0 0.186-0.15 0.337-0.335 0.337zM6.995 8.87h12.103v-2.777h-12.103v2.777z"></path>
<path d="M19.432 12.575h-0.707c-0.185 0-0.335-0.151-0.335-0.337s0.15-0.337 0.335-0.337h0.707c0.185 0 0.335 0.151 0.335 0.337s-0.15 0.337-0.335 0.337z"></path>
<path d="M17.052 12.575h-10.392c-0.185 0-0.335-0.151-0.335-0.337s0.15-0.337 0.335-0.337h10.392c0.185 0 0.335 0.151 0.335 0.337s-0.15 0.337-0.335 0.337z"></path>
<path d="M19.432 18.639h-0.707c-0.185 0-0.335-0.151-0.335-0.337s0.15-0.337 0.335-0.337h0.707c0.185 0 0.335 0.151 0.335 0.337s-0.15 0.337-0.335 0.337z"></path>
<path d="M17.052 18.639h-10.392c-0.185 0-0.335-0.151-0.335-0.337s0.15-0.337 0.335-0.337h10.392c0.185 0 0.335 0.151 0.335 0.337s-0.15 0.337-0.335 0.337z"></path>
<path d="M19.432 15.607h-12.772c-0.185 0-0.335-0.151-0.335-0.337s0.15-0.337 0.335-0.337h12.772c0.185 0 0.335 0.151 0.335 0.337s-0.15 0.337-0.335 0.337z"></path>
<path d="M16.378 23.058c0.259 0 0.469-0.211 0.469-0.471s-0.21-0.471-0.469-0.471c-0.259 0-0.469 0.211-0.469 0.471s0.21 0.471 0.469 0.471z"></path>
<path d="M26.089 16.121c-0.012-0.094-0.066-0.18-0.143-0.234l-3.128-2.141v-12.918c0.009-0.274-0.337-0.441-0.543-0.263l-2.142 1.723-2.268-1.728c-0.122-0.093-0.292-0.091-0.411 0.006l-2.133 1.722-2.27-1.728c-0.122-0.093-0.291-0.091-0.411 0.006l-2.132 1.716-2.065-1.713c-0.121-0.1-0.295-0.103-0.418-0.006l-2.194 1.719-2.004-1.71c-0.205-0.187-0.56-0.021-0.551 0.257v12.918l-3.128 2.141c-0.090 0.062-0.147 0.168-0.146 0.278v14.15c-0.015 0.904 0.775 1.699 1.673 1.683h22.747c0.898 0.016 1.688-0.779 1.673-1.683 0 0-0.001-14.18-0.003-14.194zM22.818 14.56l2.345 1.605-2.345 1.606v-3.211zM0.929 16.165l2.345-1.605v3.211l-2.345-1.605zM0.669 16.802l8.857 6.064c0.153 0.105 0.361 0.065 0.465-0.089s0.064-0.363-0.088-0.468l-5.959-4.080v-16.674l1.661 1.417c0.121 0.103 0.297 0.107 0.422 0.009l2.197-1.721 2.068 1.715c0.122 0.101 0.298 0.102 0.422 0.003l2.141-1.723 2.27 1.729c0.122 0.093 0.292 0.091 0.411-0.006l2.133-1.722 2.267 1.728c0.122 0.093 0.291 0.091 0.411-0.005l1.802-1.45v16.701l-4.529 3.101c-0.153 0.105-0.192 0.314-0.088 0.468s0.312 0.194 0.465 0.089l7.427-5.085v13.514c0 0.214-0.066 0.415-0.186 0.583l-12.003-8.218c-0.114-0.078-0.263-0.078-0.376 0l-12.003 8.217c-0.12-0.168-0.186-0.369-0.186-0.583v-13.514zM24.419 31.326h-22.747c-0.073 0-0.146-0.008-0.217-0.024l11.59-7.935 11.59 7.935c-0.071 0.016-0.143 0.024-0.217 0.024z"></path>
</svg>
