<!-- Generated by IcoMoon.io -->
<svg version="1.1" xmlns="http://www.w3.org/2000/svg" width="38" height="32" viewBox="0 0 38 32">
<title>pet-supplies</title>
<path d="M36.139 7.435c-1.092-1.826-2.616-3.576-3.671-4.499-2.541-2.24-4.762-2.165-5.873-1.92-0.584 0.132-1.129 0.376-1.6 0.696-1.694-1.148-3.727-1.713-6.155-1.713-2.485 0-4.555 0.602-6.287 1.807-0.452-0.301-0.96-0.527-1.525-0.64-1.092-0.245-3.313-0.339-5.854 1.92-1.035 0.904-2.579 2.654-3.671 4.48-1.619 2.748-1.939 5.045-0.922 6.871 1.186 2.127 3.049 2.692 4.329 2.861-0.188 0.96-0.301 2.014-0.301 3.238 0 2.259 0.527 4.235 1.562 5.854 0.922 1.431 2.24 2.579 3.915 3.388 2.936 1.431 6.381 1.6 8.734 1.6 2.334 0 5.779-0.169 8.734-1.6 1.675-0.828 2.993-1.958 3.915-3.388 1.035-1.619 1.562-3.576 1.562-5.854 0-1.28-0.132-2.372-0.32-3.369 1.299-0.151 3.144-0.734 4.329-2.861 1.035-1.826 0.715-4.122-0.904-6.871zM6.248 13.007c-0.207 0.584-0.433 1.148-0.621 1.713-1.186-0.056-2.108-0.395-2.767-1.562s0.132-2.955 0.904-4.254c0.941-1.581 2.296-3.106 3.144-3.878 1.675-1.468 2.955-1.468 3.558-1.318 0.019 0 0.038 0 0.038 0.019-1.6 1.958-2.56 4.424-3.369 6.814-0.301 0.922-0.602 1.694-0.885 2.466zM19.876 20.122c-0.358 0.358-0.791 0.602-1.035 0.602-0.263 0-0.678-0.245-1.035-0.602s-0.602-0.791-0.602-1.054c0-0.226 0.075-0.301 0.226-0.358 0.264-0.113 0.696-0.151 1.43-0.151s1.167 0.056 1.431 0.151c0.151 0.056 0.226 0.132 0.226 0.358-0.019 0.264-0.282 0.696-0.64 1.054zM29.288 24.96c-0.659 1.035-1.638 1.864-2.88 2.466-1.976 0.96-4.348 1.242-6.268 1.318v-5.666c0.696-0.301 1.261-0.772 1.581-1.092 0.508-0.508 1.374-1.581 1.374-2.899 0-1.261-0.678-2.296-1.826-2.767-0.621-0.264-1.318-0.358-2.447-0.358-1.111 0-1.826 0.113-2.447 0.358-1.148 0.489-1.826 1.525-1.826 2.767 0 1.336 0.866 2.391 1.374 2.899 0.32 0.32 0.885 0.791 1.581 1.092v5.666c-1.939-0.075-4.292-0.358-6.268-1.318-1.242-0.602-2.202-1.431-2.88-2.466-0.772-1.186-1.148-2.673-1.148-4.424 0-2.711 0.621-4.348 1.468-6.607 0.301-0.791 0.602-1.6 0.922-2.56 0.772-2.278 1.694-4.612 3.162-6.268 1.525-1.694 3.445-2.504 6.080-2.504 2.616 0 4.555 0.791 6.080 2.504 1.487 1.656 2.391 3.991 3.144 6.249 0.32 0.96 0.621 1.769 0.922 2.56 0.847 2.259 1.468 3.896 1.468 6.607 0 1.769-0.395 3.256-1.167 4.442zM34.784 13.026c-0.659 1.167-1.581 1.506-2.767 1.562-0.188-0.527-0.376-1.054-0.584-1.581-0.282-0.772-0.584-1.544-0.885-2.466-0.809-2.447-1.788-4.951-3.464-6.927 0.038-0.019 0.075-0.019 0.113-0.019 0.621-0.132 1.901-0.151 3.558 1.318 0.866 0.753 2.202 2.296 3.144 3.878 0.753 1.28 1.544 3.068 0.885 4.235z"></path>
<path d="M15.321 9.016c-0.715 0-1.299 0.584-1.299 1.299v1.976c0 0.715 0.584 1.299 1.299 1.299s1.299-0.584 1.299-1.299v-1.958c0.019-0.734-0.565-1.318-1.299-1.318z"></path>
<path d="M22.323 9.016c-0.715 0-1.299 0.584-1.299 1.299v1.976c0 0.715 0.584 1.299 1.299 1.299s1.299-0.584 1.299-1.299v-1.958c0-0.734-0.584-1.318-1.299-1.318z"></path>
</svg>
