<svg height="32" viewBox="0 0 32 32" width="32" xmlns="http://www.w3.org/2000/svg"><path d="m30.971 23.034c-.056-.046-6.445-4.619-8.179-4.318-.834.147-1.31.715-2.264 1.853-.154.184-.523.622-.81.934-.603-.197-1.192-.437-1.762-.717-2.938-1.43-5.312-3.805-6.742-6.742-.28-.57-.52-1.158-.717-1.762.314-.286.754-.658.941-.814 1.131-.949 1.699-1.426 1.846-2.261.302-1.726-4.272-8.12-4.318-8.178-.422-.598-1.09-.976-1.819-1.029-1.854 0-7.147 6.866-7.147 8.022 0 .067.098 6.898 8.52 15.467 8.56 8.413 15.39 8.51 15.458 8.51 1.157 0 8.022-5.293 8.022-7.147-.053-.73-.43-1.398-1.029-1.819zm-7.11 6.827c-.933-.077-6.664-.834-13.832-7.874-7.077-7.205-7.814-12.954-7.888-13.845 1.398-2.195 3.086-4.19 5.019-5.933.043.043.099.107.173.19 1.482 2.024 2.76 4.19 3.813 6.467-.344.344-.706.669-1.085.971-.589.45-1.13.957-1.613 1.517l-.259.363.077.438c.226.978.571 1.923 1.029 2.818 1.64 3.368 4.363 6.09 7.731 7.73.893.458 1.838.805 2.818 1.03l.438.077.363-.259c.562-.486 1.072-1.029 1.523-1.619.334-.398.781-.931.949-1.082 2.283 1.051 4.456 2.331 6.483 3.816.088.075.15.133.192.17-1.742 1.933-3.738 3.622-5.931 5.021v.003z"/></svg>