<!-- Generated by IcoMoon.io -->
<svg version="1.1" xmlns="http://www.w3.org/2000/svg" width="32" height="32" viewBox="0 0 32 32">
<title>plane-1</title>
<path d="M22.33 1.862c1.809-1.809 4.741-1.809 6.55 0s1.809 4.741 0 6.55l-2.425 2.425 4.168 12.505-5.3 5.3-6.021-10.652-4.801 4.801 1.638 3.126-4.825 4.825-11.314-11.314 4.825-4.825 3.126 1.637 4.801-4.801-10.652-6.021 5.3-5.3 12.505 4.168 2.425-2.425zM27.093 3.649c-0.822-0.822-2.155-0.822-2.977 0l-3.529 3.529-12.505-4.168-1.846 1.846 10.652 6.021-8.464 8.464-3.126-1.637-1.725 1.725 7.741 7.741 1.725-1.725-1.637-3.126 8.465-8.464 6.021 10.652 1.846-1.846-4.168-12.505 3.529-3.529c0.822-0.822 0.822-2.155 0-2.977z"></path>
</svg>
