<!-- Generated by IcoMoon.io -->
<svg version="1.1" xmlns="http://www.w3.org/2000/svg" width="32" height="32" viewBox="0 0 32 32">
<title>popular</title>
<path d="M5.237 0c0.032 0 0.064 0 0.097 0h3.556c0.032 0 0.065 0 0.097 0 0.754-0 1.487-0 2.091 0.081 0.681 0.092 1.459 0.315 2.104 0.96s0.869 1.423 0.96 2.104c0.081 0.604 0.081 1.337 0.081 2.091 0 0.032-0 0.064-0 0.097v3.556c0 0.032 0 0.065 0 0.097 0 0.754 0 1.487-0.081 2.091-0.092 0.681-0.315 1.459-0.96 2.104s-1.423 0.869-2.104 0.96c-0.604 0.081-1.337 0.081-2.091 0.081-0.032 0-0.064-0-0.097-0h-3.556c-0.032 0-0.064 0-0.097 0-0.754 0-1.487 0-2.091-0.081-0.681-0.092-1.459-0.315-2.104-0.96s-0.869-1.423-0.96-2.104c-0.081-0.604-0.081-1.337-0.081-2.091 0-0.032 0-0.064 0-0.097v-3.556c0-0.032 0-0.064 0-0.097-0-0.754-0-1.487 0.081-2.091 0.092-0.681 0.315-1.459 0.96-2.104s1.423-0.869 2.104-0.96c0.604-0.081 1.337-0.081 2.091-0.081zM3.607 3.607c-0.001 0.004-0.001 0.009-0.002 0.013-0.045 0.338-0.049 0.826-0.049 1.714v3.556c0 0.888 0.004 1.376 0.049 1.714 0.001 0.004 0.001 0.009 0.002 0.013 0.004 0.001 0.009 0.001 0.013 0.002 0.338 0.045 0.826 0.049 1.714 0.049h3.556c0.888 0 1.376-0.004 1.714-0.049 0.004-0.001 0.009-0.001 0.013-0.002 0.001-0.004 0.001-0.009 0.002-0.013 0.045-0.338 0.049-0.825 0.049-1.714v-3.556c0-0.888-0.004-1.376-0.049-1.714-0.001-0.004-0.001-0.009-0.002-0.013-0.004-0.001-0.009-0.001-0.013-0.002-0.338-0.045-0.825-0.049-1.714-0.049h-3.556c-0.888 0-1.376 0.004-1.714 0.049-0.004 0.001-0.009 0.001-0.013 0.002z"></path>
<path d="M5.237 17.778c0.032 0 0.064 0 0.097 0h3.556c0.032 0 0.065 0 0.097 0 0.754-0 1.487-0 2.091 0.081 0.681 0.092 1.459 0.315 2.104 0.961s0.869 1.423 0.96 2.104c0.081 0.604 0.081 1.337 0.081 2.091 0 0.032-0 0.065-0 0.097v3.556c0 0.032 0 0.065 0 0.097 0 0.754 0 1.487-0.081 2.091-0.092 0.681-0.315 1.459-0.96 2.104s-1.423 0.869-2.104 0.961c-0.604 0.081-1.337 0.081-2.091 0.081-0.032 0-0.064 0-0.097 0h-3.556c-0.032 0-0.064 0-0.097 0-0.754 0-1.487 0-2.091-0.081-0.681-0.092-1.459-0.315-2.104-0.961s-0.869-1.423-0.96-2.104c-0.081-0.604-0.081-1.337-0.081-2.091 0-0.032 0-0.064 0-0.097v-3.556c0-0.032 0-0.065 0-0.097-0-0.754-0-1.487 0.081-2.091 0.092-0.681 0.315-1.459 0.96-2.104s1.423-0.869 2.104-0.961c0.604-0.081 1.337-0.081 2.091-0.081zM3.607 21.384c-0.001 0.004-0.001 0.009-0.002 0.013-0.045 0.338-0.049 0.825-0.049 1.714v3.556c0 0.888 0.004 1.376 0.049 1.714 0.001 0.004 0.001 0.009 0.002 0.013 0.004 0.001 0.009 0.001 0.013 0.002 0.338 0.046 0.826 0.049 1.714 0.049h3.556c0.888 0 1.376-0.004 1.714-0.049 0.004-0.001 0.009-0.001 0.013-0.002 0.001-0.004 0.001-0.009 0.002-0.013 0.045-0.338 0.049-0.825 0.049-1.714v-3.556c0-0.888-0.004-1.376-0.049-1.714-0.001-0.004-0.001-0.009-0.002-0.013-0.004-0.001-0.009-0.001-0.013-0.002-0.338-0.046-0.825-0.049-1.714-0.049h-3.556c-0.888 0-1.376 0.004-1.714 0.049-0.004 0.001-0.009 0.001-0.013 0.002z"></path>
<path d="M23.014 17.778c0.032 0 0.065 0 0.097 0h3.556c0.032 0 0.065 0 0.097 0 0.754-0 1.487-0 2.091 0.081 0.681 0.092 1.459 0.315 2.104 0.961s0.869 1.423 0.961 2.104c0.081 0.604 0.081 1.337 0.081 2.091 0 0.032 0 0.065 0 0.097v3.556c0 0.032 0 0.065 0 0.097 0 0.754 0 1.487-0.081 2.091-0.092 0.681-0.315 1.459-0.961 2.104s-1.423 0.869-2.104 0.961c-0.604 0.081-1.337 0.081-2.091 0.081-0.032 0-0.064 0-0.097 0h-3.556c-0.032 0-0.065 0-0.097 0-0.754 0-1.487 0-2.091-0.081-0.681-0.092-1.459-0.315-2.104-0.961s-0.869-1.423-0.961-2.104c-0.081-0.604-0.081-1.337-0.081-2.091 0-0.032 0-0.064 0-0.097v-3.556c0-0.032 0-0.065 0-0.097-0-0.754-0-1.487 0.081-2.091 0.092-0.681 0.315-1.459 0.961-2.104s1.423-0.869 2.104-0.961c0.604-0.081 1.337-0.081 2.091-0.081zM21.384 21.384c-0.001 0.004-0.001 0.009-0.002 0.013-0.046 0.338-0.049 0.825-0.049 1.714v3.556c0 0.888 0.004 1.376 0.049 1.714 0.001 0.004 0.001 0.009 0.002 0.013 0.004 0.001 0.009 0.001 0.013 0.002 0.338 0.046 0.825 0.049 1.714 0.049h3.556c0.888 0 1.376-0.004 1.714-0.049 0.004-0.001 0.009-0.001 0.013-0.002 0.001-0.004 0.001-0.009 0.002-0.013 0.046-0.338 0.049-0.825 0.049-1.714v-3.556c0-0.888-0.004-1.376-0.049-1.714-0.001-0.004-0.001-0.009-0.002-0.013-0.004-0.001-0.009-0.001-0.013-0.002-0.338-0.046-0.825-0.049-1.714-0.049h-3.556c-0.888 0-1.376 0.004-1.714 0.049-0.004 0.001-0.009 0.001-0.013 0.002z"></path>
<path d="M23.014 0c0.032 0 0.065 0 0.097 0h3.556c0.032 0 0.065 0 0.097 0 0.754-0 1.487-0 2.091 0.081 0.681 0.092 1.459 0.315 2.104 0.96s0.869 1.423 0.961 2.104c0.081 0.604 0.081 1.337 0.081 2.091 0 0.032 0 0.064 0 0.097v3.556c0 0.032 0 0.065 0 0.097 0 0.754 0 1.487-0.081 2.091-0.092 0.681-0.315 1.459-0.961 2.104s-1.423 0.869-2.104 0.96c-0.604 0.081-1.337 0.081-2.091 0.081-0.032 0-0.064-0-0.097-0h-3.556c-0.032 0-0.065 0-0.097 0-0.754 0-1.487 0-2.091-0.081-0.681-0.092-1.459-0.315-2.104-0.96s-0.869-1.423-0.961-2.104c-0.081-0.604-0.081-1.337-0.081-2.091 0-0.032 0-0.064 0-0.097v-3.556c0-0.032 0-0.064 0-0.097-0-0.754-0-1.487 0.081-2.091 0.092-0.681 0.315-1.459 0.961-2.104s1.423-0.869 2.104-0.96c0.604-0.081 1.337-0.081 2.091-0.081zM21.384 3.607c-0.001 0.004-0.001 0.009-0.002 0.013-0.046 0.338-0.049 0.826-0.049 1.714v3.556c0 0.888 0.004 1.376 0.049 1.714 0.001 0.004 0.001 0.009 0.002 0.013 0.004 0.001 0.009 0.001 0.013 0.002 0.338 0.045 0.825 0.049 1.714 0.049h3.556c0.888 0 1.376-0.004 1.714-0.049 0.004-0.001 0.009-0.001 0.013-0.002 0.001-0.004 0.001-0.009 0.002-0.013 0.046-0.338 0.049-0.825 0.049-1.714v-3.556c0-0.888-0.004-1.376-0.049-1.714-0.001-0.004-0.001-0.009-0.002-0.013-0.004-0.001-0.009-0.001-0.013-0.002-0.338-0.045-0.825-0.049-1.714-0.049h-3.556c-0.888 0-1.376 0.004-1.714 0.049-0.004 0.001-0.009 0.001-0.013 0.002z"></path>
</svg>
