<svg width="63" height="65" xmlns="http://www.w3.org/2000/svg" viewBox="0 0 63 65"><title>quality</title><g fill="none" class="nc-icon-wrapper"><path d="M22.972 14.103A14.85 14.85 0 0 1 27.1 19.29a15.081 15.081 0 0 1 1.484 6.54v38.642c0 .29-.235.525-.526.525H.525A.525.525 0 0 1 0 64.472V25.83c0-2.34.535-4.562 1.484-6.54a14.848 14.848 0 0 1 4.167-5.219l-.002-.002a.526.526 0 0 1 .852.412v12.242a8.23 8.23 0 0 0 2.295 5.725c1.41 1.462 3.356 2.37 5.495 2.37 2.14 0 4.085-.908 5.496-2.37a8.23 8.23 0 0 0 2.295-5.725V14.48a.525.525 0 0 1 .89-.378zm3.183 5.639a13.847 13.847 0 0 0-3.022-4.121v11.102c0 2.51-.992 4.793-2.59 6.45-1.604 1.662-3.817 2.694-6.252 2.694-2.434 0-4.647-1.032-6.25-2.694a9.275 9.275 0 0 1-2.591-6.45V15.62a13.844 13.844 0 0 0-3.022 4.12 14.038 14.038 0 0 0-1.377 6.09v38.117h26.481V25.83c0-2.186-.496-4.253-1.377-6.088z" fill="#000000"></path><path d="M14.296 1.52c2.432 0 4.643.993 6.245 2.592a8.794 8.794 0 0 1 2.597 6.235v16.686a8.795 8.795 0 0 1-2.597 6.235 8.822 8.822 0 0 1-6.245 2.593 8.822 8.822 0 0 1-6.244-2.593 8.794 8.794 0 0 1-2.597-6.235V10.347c0-2.428.994-4.635 2.597-6.235a8.822 8.822 0 0 1 6.244-2.592zm0 1.049c-2.141 0-4.09.875-5.501 2.285a7.748 7.748 0 0 0-2.29 5.493v16.686c0 2.139.877 4.083 2.29 5.493a7.773 7.773 0 0 0 5.501 2.286c2.142 0 4.09-.876 5.502-2.286a7.749 7.749 0 0 0 2.29-5.493V10.347a7.749 7.749 0 0 0-2.29-5.493 7.773 7.773 0 0 0-5.501-2.285z" fill="#000000"></path><path d="M23.065 28.145a8.83 8.83 0 0 1-2.931 5.5 8.81 8.81 0 0 1-5.84 2.215 8.809 8.809 0 0 1-5.84-2.215 8.83 8.83 0 0 1-2.933-5.522.525.525 0 0 1 .387-.572 22.72 22.72 0 0 1 3.956-.965 28.925 28.925 0 0 1 4.43-.336c1.539 0 3.029.118 4.43.336 1.451.226 2.797.559 3.995.979l-.172.494.174-.495a.525.525 0 0 1 .344.581zm-3.625 4.717a7.792 7.792 0 0 0 2.521-4.449 22.087 22.087 0 0 0-3.396-.794 27.879 27.879 0 0 0-4.27-.32c-1.503 0-2.938.113-4.271.32a22.09 22.09 0 0 0-3.397.794 7.793 7.793 0 0 0 2.521 4.45 7.76 7.76 0 0 0 5.146 1.948 7.761 7.761 0 0 0 5.146-1.949z" fill="#000000"></path><path d="M42.674.998H54.73c.283 0 .514.223.525.503l2.149 20.095h.001a.525.525 0 0 1-.522.58H40.52a.525.525 0 0 1-.518-.616l2.15-20.093.52.055-.522-.056a.525.525 0 0 1 .523-.468zM54.26 2.047H43.145l-2.041 19.08H56.3l-2.04-19.08z" fill="#000000"></path><path d="M44.12 29.01h9.177a9.68 9.68 0 0 1 6.853 2.846A9.65 9.65 0 0 1 63 38.698v11.454a9.62 9.62 0 0 1-2.031 5.912 9.766 9.766 0 0 1-4.852 3.354v3.906c0 .29-.235.524-.525.524H41.826a.525.525 0 0 1-.526-.524v-3.906a9.765 9.765 0 0 1-4.852-3.354 9.619 9.619 0 0 1-2.03-5.912V38.698a9.65 9.65 0 0 1 2.849-6.842 9.681 9.681 0 0 1 6.853-2.845zm9.177 1.05H44.12a8.632 8.632 0 0 0-6.11 2.538 8.605 8.605 0 0 0-2.542 6.1v11.454c0 1.982.676 3.812 1.81 5.273a8.704 8.704 0 0 0 4.64 3.082.525.525 0 0 1 .433.516V62.8h12.715v-3.768a.525.525 0 0 1 .393-.515l.133.507-.132-.506a8.704 8.704 0 0 0 4.68-3.092 8.578 8.578 0 0 0 1.81-5.273V38.698a8.605 8.605 0 0 0-2.543-6.1 8.632 8.632 0 0 0-6.11-2.538z" fill="#000000"></path><path d="M45.073 29.009h7.276v-6.836h-7.276v6.836zm7.802 1.05h-8.328a.525.525 0 0 1-.525-.526V21.65c0-.29.235-.525.526-.525h8.327c.29 0 .525.235.525.525v7.884c0 .29-.235.525-.525.525z" fill="#000000"></path><path d="M39.523 45.049a.525.525 0 1 0 0 1.049h22.943a.525.525 0 1 0 0-1.05H39.523z" fill="#000000"></path></g></svg>