<svg width="58" height="44" viewBox="0 0 58 44" fill="none" xmlns="http://www.w3.org/2000/svg">
<path d="M13.1825 17.5471C12.5377 17.5471 11.919 17.647 11.3031 17.7381C11.5026 17.0562 11.7079 16.3626 12.0375 15.7395C12.3671 14.8342 12.8818 14.0494 13.3936 13.2588C13.8215 12.4035 14.5762 11.8244 15.1313 11.0926C15.7125 10.3813 16.5047 9.90808 17.1322 9.3173C17.748 8.70007 18.5547 8.39145 19.1966 7.95645C19.8674 7.56553 20.4515 7.13347 21.076 6.92772L22.6345 6.27522L24.005 5.69619L22.6027 0L20.8765 0.423245C20.3243 0.564327 19.6506 0.728923 18.8843 0.92585C18.1008 1.07281 17.2652 1.47548 16.3341 1.84289C15.4147 2.26025 14.3506 2.54242 13.3618 3.21256C12.3671 3.85331 11.2193 4.38824 10.2073 5.24649C9.22709 6.1312 8.04451 6.89833 7.17131 8.02405C6.21715 9.07629 5.27456 10.1814 4.54304 11.4394C3.69586 12.6386 3.12047 13.9554 2.51328 15.2574C1.96391 16.5595 1.52153 17.891 1.16011 19.1842C0.474846 21.7766 0.168358 24.2397 0.0498108 26.3471C-0.0484966 28.4574 0.00933126 30.2122 0.13077 31.4819C0.174141 32.0815 0.2551 32.6635 0.312928 33.0661L0.385212 33.5599L0.460389 33.5423C0.974655 35.9843 2.15851 38.2284 3.87502 40.015C5.59152 41.8016 7.77053 43.0577 10.16 43.638C12.5494 44.2183 15.0517 44.099 17.3772 43.2941C19.7028 42.4892 21.7567 41.0314 23.3013 39.0894C24.8459 37.1474 25.818 34.8006 26.1054 32.3204C26.3927 29.8403 25.9834 27.3281 24.9249 25.0745C23.8663 22.8209 22.2018 20.918 20.1238 19.5859C18.0457 18.2538 15.6392 17.5469 13.1825 17.5471ZM44.9879 17.5471C44.3431 17.5471 43.7243 17.647 43.1084 17.7381C43.308 17.0562 43.5132 16.3626 43.8429 15.7395C44.1725 14.8342 44.6871 14.0494 45.1989 13.2588C45.6268 12.4035 46.3815 11.8244 46.9366 11.0926C47.5178 10.3813 48.3101 9.90808 48.9375 9.3173C49.5534 8.70007 50.3601 8.39145 51.0019 7.95645C51.6728 7.56553 52.2568 7.13347 52.8814 6.92772L54.4398 6.27522L55.8103 5.69619L54.408 0L52.6818 0.423245C52.1296 0.564327 51.4559 0.728923 50.6897 0.92585C49.9061 1.07281 49.0705 1.47548 48.1395 1.84289C47.2229 2.26319 46.156 2.54242 45.1671 3.2155C44.1725 3.85625 43.0246 4.39118 42.0126 5.24943C41.0324 6.13413 39.8498 6.90127 38.9766 8.02405C38.0225 9.07629 37.0799 10.1814 36.3484 11.4394C35.5012 12.6386 34.9258 13.9554 34.3186 15.2574C33.7692 16.5595 33.3269 17.891 32.9654 19.1842C32.2802 21.7766 31.9737 24.2397 31.8551 26.3471C31.7568 28.4574 31.8147 30.2122 31.9361 31.4819C31.9795 32.0815 32.0604 32.6635 32.1183 33.0661L32.1905 33.5599L32.2657 33.5423C32.78 35.9843 33.9638 38.2284 35.6804 40.015C37.3969 41.8016 39.5759 43.0577 41.9653 43.638C44.3547 44.2183 46.857 44.099 49.1826 43.2941C51.5081 42.4892 53.562 41.0314 55.1066 39.0894C56.6512 37.1474 57.6234 34.8006 57.9107 32.3204C58.198 29.8403 57.7887 27.3281 56.7302 25.0745C55.6716 22.8209 54.0071 20.918 51.9291 19.5859C49.8511 18.2538 47.4445 17.5469 44.9879 17.5471Z" fill="#000"/>
</svg>
