<!-- Generated by IcoMoon.io -->
<svg version="1.1" xmlns="http://www.w3.org/2000/svg" width="29" height="32" viewBox="0 0 29 32">
<title>recommend</title>
<path d="M11.087 0h6.626c2.167-0 3.953-0 5.367 0.19 1.484 0.2 2.796 0.635 3.845 1.685s1.485 2.361 1.685 3.845c0.19 1.414 0.19 3.201 0.19 5.367v11.169c0 2.034 0 3.74-0.186 5.011-0.187 1.281-0.64 2.699-2.066 3.392s-2.82 0.173-3.944-0.471c-1.115-0.64-2.456-1.693-4.055-2.95l-1.184-0.931c-0.98-0.77-1.605-1.258-2.117-1.569-0.475-0.289-0.697-0.326-0.849-0.326s-0.374 0.037-0.849 0.326c-0.512 0.311-1.137 0.799-2.117 1.569l-1.184 0.931c-1.599 1.256-2.94 2.31-4.055 2.95-1.123 0.644-2.518 1.164-3.944 0.471s-1.879-2.111-2.066-3.392c-0.186-1.272-0.186-2.977-0.186-5.011v-11.169c-0-2.167-0-3.953 0.19-5.367 0.2-1.485 0.635-2.796 1.685-3.845s2.361-1.485 3.845-1.685c1.414-0.19 3.201-0.19 5.367-0.19zM6.146 3.361c-1.13 0.152-1.653 0.42-2.009 0.776s-0.624 0.879-0.776 2.009c-0.158 1.176-0.161 2.746-0.161 5.054v10.924c0 2.201 0.004 3.669 0.152 4.681 0.072 0.492 0.163 0.755 0.233 0.888 0.031 0.059 0.051 0.079 0.054 0.082 0 0 0.002 0.003 0.011 0.007 0.010 0.005 0.012 0.004 0.012 0.004 0.004 0 0.032 0.004 0.097-0.008 0.148-0.027 0.411-0.118 0.843-0.365 0.887-0.509 2.044-1.412 3.774-2.772l1.151-0.904c0.889-0.698 1.665-1.308 2.36-1.731 0.751-0.457 1.556-0.792 2.512-0.792s1.761 0.336 2.512 0.792c0.696 0.423 1.472 1.033 2.36 1.732l1.151 0.904c1.731 1.36 2.887 2.264 3.774 2.772 0.431 0.248 0.694 0.338 0.843 0.365 0.065 0.012 0.094 0.009 0.097 0.008 0 0 0.003-0 0.012-0.004s0.011-0.007 0.011-0.007 0.023-0.024 0.054-0.082c0.070-0.133 0.162-0.396 0.234-0.888 0.148-1.012 0.152-2.48 0.152-4.681v-10.924c0-2.308-0.003-3.878-0.161-5.054-0.152-1.13-0.42-1.653-0.776-2.009s-0.879-0.624-2.009-0.776c-1.176-0.158-2.746-0.161-5.054-0.161h-6.4c-2.308 0-3.878 0.003-5.054 0.161z"></path>
</svg>
