<svg xmlns="http://www.w3.org/2000/svg" width="28" height="24"><g transform="translate(0 0)"><g fill="none" class="nc-icon-wrapper"><path d="M3.542 13.702a.845.845 0 0 1-.602.262.81.81 0 0 1-.603-.262l-2.083-2.15a.902.902 0 0 1 0-1.254.837.837 0 0 1 1.216 0l.655.677a12.145 12.145 0 0 1 3.363-7.473C7.688 1.244 10.606 0 13.714 0c2.22 0 4.378.644 6.239 1.876a11.943 11.943 0 0 1 4.208 4.866.888.888 0 0 1-.391 1.178.837.837 0 0 1-1.142-.404c-1.681-3.545-5.097-5.749-8.914-5.749-5.096 0-9.315 3.993-9.855 9.11l.56-.579a.837.837 0 0 1 1.217 0 .902.902 0 0 1 0 1.255l-2.094 2.149zm23.633-1.255l-2.083-2.149a.837.837 0 0 0-1.216 0l-2.083 2.15a.902.902 0 0 0 0 1.254c.338.349.877.349 1.216 0l.56-.578c-.54 5.116-4.758 9.109-9.855 9.109-3.817 0-7.232-2.204-8.913-5.75-.212-.436-.72-.621-1.142-.403a.892.892 0 0 0-.392 1.178 11.943 11.943 0 0 0 4.209 4.866A11.346 11.346 0 0 0 13.714 24c3.109 0 6.027-1.244 8.227-3.513a12.03 12.03 0 0 0 3.362-7.472l.656.676c.169.175.391.262.602.262a.845.845 0 0 0 .603-.262.899.899 0 0 0 .01-1.244zm-13.46 6.72a.867.867 0 0 0 .856-.883v-.513a3.388 3.388 0 0 0 1.543-.927c.603-.644.931-1.484.9-2.368-.032-.916-.402-1.68-1.11-2.28-.55-.469-1.227-.774-1.873-1.069-1.29-.589-1.86-.927-1.892-1.658a1.429 1.429 0 0 1 .402-1.058c.306-.327.73-.513 1.163-.513.592 0 1.12.338 1.396.884.21.436.73.61 1.152.382a.887.887 0 0 0 .37-1.19c-.433-.861-1.174-1.483-2.051-1.723v-.535c0-.49-.38-.883-.857-.883a.867.867 0 0 0-.856.883v.524a3.32 3.32 0 0 0-1.555.95 3.251 3.251 0 0 0-.877 2.355c.074 1.91 1.65 2.63 2.918 3.208 1.343.61 1.935.97 1.967 1.778.01.403-.137.785-.412 1.08-.296.316-.72.502-1.153.502-.592 0-1.12-.338-1.396-.884a.835.835 0 0 0-1.152-.382.887.887 0 0 0-.37 1.19 3.298 3.298 0 0 0 2.04 1.723v.524c-.02.49.37.883.846.883z" fill="#212121"></path></g></g></svg>