<!-- Generated by IcoMoon.io -->
<svg version="1.1" xmlns="http://www.w3.org/2000/svg" width="32" height="32" viewBox="0 0 32 32">
<title>return-fashion</title>
<path d="M26.667 12.882v-6.626l3.2-3.232v11.090h1.067v-12.391h-0.005c0-0.070-0.009-0.14-0.036-0.206-0.082-0.201-0.277-0.332-0.493-0.332h-25.6c-0.142 0-0.277 0.057-0.377 0.158l-4.266 4.309c-0.097 0.098-0.157 0.232-0.157 0.381v20.471c0 0.298 0.238 0.539 0.533 0.539h25.6c0.295 0 0.533-0.241 0.533-0.539v-6.443c0.671 0.993 1.067 2.19 1.067 3.48 0 3.416-2.751 6.195-6.133 6.195-0.295 0-0.533 0.241-0.533 0.539s0.238 0.539 0.533 0.539h1.067c5.146 0 9.333-4.23 9.333-9.428 0-3.751-2.186-6.988-5.333-8.505zM25.913 5.495h-9.692l3.2-3.232h9.692l-3.2 3.232zM14.556 5.653c-0.1 0.101-0.156 0.238-0.156 0.381v3.771h-2.133v-3.548l3.954-3.994h1.692l-3.356 3.39zM5.021 2.263h9.692l-3.2 3.232h-9.692l3.2-3.232zM1.067 25.966v-19.394h10.133v3.771c0 0.298 0.238 0.539 0.533 0.539h3.2c0.295 0 0.533-0.241 0.533-0.539v-3.771h10.133v5.872c-0.924-0.31-1.908-0.484-2.933-0.484h-0.8v-2.694c0-0.202-0.111-0.387-0.289-0.479-0.179-0.093-0.392-0.077-0.554 0.041l-7.467 5.387c-0.14 0.101-0.223 0.264-0.223 0.439s0.083 0.337 0.223 0.438l7.467 5.387c0.162 0.117 0.375 0.132 0.554 0.041 0.178-0.092 0.289-0.277 0.289-0.479v-2.688c1.423 0.062 2.722 0.616 3.733 1.497v7.116h-24.533zM26.692 28.679c1.302-1.317 2.108-3.133 2.108-5.137 0-4.010-3.23-7.273-7.2-7.273h-0.267c-0.295 0-0.533 0.241-0.533 0.539v2.186l-6.015-4.34 6.015-4.34v2.186c0 0.298 0.238 0.539 0.533 0.539h1.333c4.558 0 8.267 3.746 8.267 8.35 0 3.129-1.713 5.862-4.241 7.292z"></path>
<path d="M2.133 23.811h6.4v1.077h-6.4v-1.077z"></path>
<path d="M2.133 21.657h6.4v1.077h-6.4v-1.077z"></path>
</svg>
