<!-- Generated by IcoMoon.io -->
<svg version="1.1" xmlns="http://www.w3.org/2000/svg" width="16" height="32" viewBox="0 0 16 32">
<title>rocket-1</title>
<path d="M8.193 5.72c-1.316 0-2.386 1.054-2.386 2.349s1.071 2.348 2.386 2.348c1.316 0 2.387-1.053 2.387-2.348s-1.071-2.349-2.387-2.349zM8.193 10.026c-1.097 0-1.989-0.878-1.989-1.957s0.892-1.958 1.989-1.958c1.097 0 1.989 0.878 1.989 1.958s-0.892 1.957-1.989 1.957z"></path>
<path d="M15.076 22.005c-0.614-0.939-1.286-1.533-1.554-1.749 0.603-1.84 0.907-3.731 0.907-5.662 0-5.018-2.107-9.874-6.092-14.043-0.075-0.079-0.214-0.079-0.29 0-3.986 4.169-6.092 9.025-6.092 14.043 0 1.838 0.275 3.64 0.821 5.396-0.27 0.216-0.954 0.812-1.581 1.757-0.726 1.095-1.502 2.881-1.073 5.169 0.015 0.079 0.078 0.142 0.158 0.157 0.013 0.002 0.025 0.003 0.038 0.003 0.067 0 0.131-0.034 0.168-0.091 0.019-0.030 1.882-2.909 3.931-3.205 0.282 0.503 0.589 1.002 0.919 1.495 0.009 0.014 0.018 0.027 0.028 0.041 0.049 0.073 0.099 0.146 0.149 0.219 0.064 0.094 0.129 0.187 0.195 0.28 0 0 0 0 0 0 0.009 0.012 0.018 0.023 0.029 0.032 0.003 0.003 0.006 0.005 0.009 0.007 0.008 0.007 0.017 0.013 0.026 0.018 0.004 0.002 0.008 0.004 0.013 0.006 0.009 0.004 0.018 0.008 0.027 0.011 0.005 0.001 0.009 0.003 0.014 0.004 0.010 0.002 0.020 0.004 0.031 0.004 0.003 0 0.006 0.001 0.009 0.001l0.37 0.010c-0.068 0.348-0.104 0.703-0.104 1.060 0 1.529 0.639 3.006 1.848 4.27 0.038 0.039 0.090 0.061 0.145 0.061s0.107-0.022 0.145-0.061c1.211-1.266 1.851-2.743 1.85-4.27 0-0.317-0.029-0.639-0.087-0.959l0.387 0.010c0.002 0 0.004 0 0.005 0 0 0 0 0 0 0s0 0 0 0c0.002 0 0.004-0.001 0.006-0.001 0.014-0 0.027-0.002 0.040-0.005 0.007-0.002 0.012-0.004 0.019-0.007 0.009-0.003 0.017-0.005 0.026-0.009 0.006-0.003 0.012-0.008 0.017-0.011 0.007-0.005 0.015-0.009 0.022-0.015 0.010-0.008 0.018-0.018 0.026-0.028 0.002-0.003 0.005-0.004 0.007-0.007 0.001-0.001 0.002-0.002 0.002-0.003 0.065-0.090 0.128-0.181 0.192-0.271 0.043-0.062 0.086-0.124 0.129-0.186 0.016-0.024 0.033-0.048 0.049-0.072 0.308-0.454 0.595-0.912 0.863-1.374 2.048 0.292 3.916 3.175 3.935 3.205 0.037 0.058 0.101 0.091 0.168 0.091 0.012 0 0.025-0.001 0.037-0.004 0.080-0.015 0.143-0.078 0.158-0.157 0.429-2.287-0.332-4.069-1.046-5.161zM0.44 26.359c-0.181-1.551 0.182-3.024 1.081-4.385 0.515-0.78 1.082-1.319 1.387-1.579 0.344 1.024 0.782 2.033 1.312 3.023-1.691 0.328-3.172 2.114-3.779 2.941zM8.126 30.814c-1.045-1.155-1.596-2.48-1.596-3.846 0-0.353 0.037-0.705 0.109-1.049l2.989 0.079c0.063 0.324 0.095 0.65 0.095 0.97 0 1.364-0.551 2.69-1.598 3.846zM10.64 25.169c-0.006 0.009-0.012 0.017-0.018 0.026-0.085 0.126-0.173 0.251-0.261 0.376-0.012 0.018-0.025 0.036-0.037 0.053l-4.346-0.115c-0.037-0.052-0.073-0.104-0.109-0.156-0.397-0.575-0.764-1.164-1.096-1.756 0.83-0.911 2.010-1.431 3.258-1.431 1.343 0 2.624 0.617 3.452 1.657-0.26 0.45-0.542 0.901-0.843 1.346zM11.692 23.456c-0.905-1.057-2.251-1.681-3.66-1.681-1.315 0-2.56 0.529-3.459 1.461-0.56-1.047-1.015-2.114-1.363-3.2-0.003-0.026-0.011-0.050-0.024-0.074-0.553-1.747-0.832-3.54-0.832-5.369 0-4.856 2.018-9.562 5.839-13.622 3.821 4.060 5.84 8.767 5.84 13.623 0 1.919-0.308 3.799-0.917 5.627-0.016 0.026-0.025 0.055-0.027 0.083-0.362 1.069-0.828 2.12-1.396 3.152zM15.804 26.608c-0.607-0.828-2.087-2.611-3.777-2.94 0.545-0.986 0.998-1.991 1.358-3.011 0.696 0.605 2.792 2.72 2.419 5.952z"></path>
<path d="M12.503 26.11c-0.11 0-0.199 0.088-0.199 0.196v1.458c0 0.108 0.089 0.196 0.199 0.196s0.199-0.088 0.199-0.196v-1.458c0-0.108-0.089-0.196-0.199-0.196z"></path>
<path d="M11.896 29.025c-0.11 0-0.199 0.088-0.199 0.196v1.456c0 0.108 0.089 0.196 0.199 0.196s0.199-0.088 0.199-0.196v-1.456c0-0.108-0.089-0.196-0.199-0.196z"></path>
<path d="M14.118 27.038c-0.11 0-0.199 0.088-0.199 0.196v1.456c0 0.108 0.089 0.196 0.199 0.196s0.199-0.088 0.199-0.196v-1.456c0-0.108-0.089-0.196-0.199-0.196z"></path>
<path d="M13.513 29.952c-0.11 0-0.199 0.088-0.199 0.196v1.458c0 0.108 0.089 0.196 0.199 0.196s0.199-0.088 0.199-0.196v-1.458c0-0.108-0.089-0.196-0.199-0.196z"></path>
<path d="M2.741 26.308c-0.11 0-0.199 0.088-0.199 0.196v1.457c0 0.108 0.089 0.196 0.199 0.196s0.199-0.088 0.199-0.196v-1.457c0-0.108-0.089-0.196-0.199-0.196z"></path>
<path d="M2.135 29.223c-0.11 0-0.199 0.088-0.199 0.196v1.457c0 0.108 0.089 0.196 0.199 0.196s0.199-0.088 0.199-0.196v-1.457c0-0.108-0.089-0.196-0.199-0.196z"></path>
<path d="M4.356 27.236c-0.11 0-0.199 0.088-0.199 0.196v1.458c0 0.108 0.089 0.196 0.199 0.196s0.199-0.088 0.199-0.196v-1.458c0-0.108-0.089-0.196-0.199-0.196z"></path>
<path d="M3.751 30.151c-0.11 0-0.199 0.088-0.199 0.196v1.457c0 0.108 0.089 0.196 0.199 0.196s0.199-0.088 0.199-0.196v-1.457c0-0.108-0.089-0.196-0.199-0.196z"></path>
</svg>
