<!-- Generated by IcoMoon.io -->
<svg version="1.1" xmlns="http://www.w3.org/2000/svg" width="32" height="32" viewBox="0 0 32 32">
<title>searches</title>
<path d="M14.222 3.556c-5.891 0-10.667 4.776-10.667 10.667s4.776 10.667 10.667 10.667c5.891 0 10.667-4.776 10.667-10.667s-4.776-10.667-10.667-10.667zM0 14.222c0-7.855 6.367-14.222 14.222-14.222s14.222 6.367 14.222 14.222c0 7.855-6.367 14.222-14.222 14.222s-14.222-6.367-14.222-14.222z"></path>
<path d="M11.501 7.652c0.863-0.357 1.787-0.541 2.721-0.541 0.982 0 1.778 0.796 1.778 1.778s-0.796 1.778-1.778 1.778c-0.467 0-0.929 0.092-1.361 0.271s-0.823 0.441-1.153 0.771c-0.33 0.33-0.592 0.722-0.771 1.153s-0.271 0.894-0.271 1.361c0 0.982-0.796 1.778-1.778 1.778s-1.778-0.796-1.778-1.778c0-0.934 0.184-1.859 0.541-2.721s0.881-1.647 1.542-2.307c0.66-0.66 1.444-1.184 2.307-1.542z"></path>
<path d="M23.632 23.632c0.694-0.694 1.82-0.694 2.514 0l5.333 5.333c0.694 0.694 0.694 1.82 0 2.514s-1.82 0.694-2.514 0l-5.333-5.333c-0.694-0.694-0.694-1.82 0-2.514z"></path>
</svg>
