<!-- Generated by IcoMoon.io -->
<svg version="1.1" xmlns="http://www.w3.org/2000/svg" width="30" height="32" viewBox="0 0 30 32">
<title>search-1</title>
<path d="M29.593 27.076l-5.79-5.79c1.754-2.296 2.716-5.082 2.718-8.023 0-3.543-1.38-6.874-3.885-9.38-2.505-2.504-5.835-3.883-9.38-3.883-3.543 0-6.874 1.38-9.378 3.885-5.171 5.173-5.171 13.587 0 18.758 2.505 2.505 5.835 3.885 9.38 3.885 2.94 0 5.726-0.962 8.022-2.718l5.79 5.79c0.348 0.348 0.806 0.523 1.263 0.523s0.915-0.175 1.263-0.523c0.695-0.696 0.695-1.826-0.004-2.524zM6.402 20.119c-3.78-3.78-3.78-9.929 0-13.709 1.832-1.83 4.265-2.839 6.856-2.839s5.024 1.009 6.855 2.839c1.832 1.832 2.839 4.265 2.839 6.856s-1.009 5.024-2.839 6.856c-1.83 1.832-4.265 2.839-6.855 2.839s-5.026-1.009-6.856-2.84z"></path>
</svg>
