<!-- Generated by IcoMoon.io -->
<svg version="1.1" xmlns="http://www.w3.org/2000/svg" width="40" height="32" viewBox="0 0 40 32">
<title>secure-payment</title>
<path d="M2.86 0c-1.56 0-2.86 1.3-2.86 2.86v21.9c0 1.57 1.3 2.86 2.86 2.86h17.74v1.43c0 1.57 1.29 2.85 2.85 2.85h8.34c1.57 0 2.85-1.29 2.85-2.85v-1.43h2.5c1.57 0 2.85-1.29 2.85-2.86v-21.9c0.010-1.56-1.28-2.86-2.84-2.86h-34.29zM2.86 1.91h34.28c0.54 0 0.95 0.41 0.95 0.96v4.28h-36.18v-4.29c0-0.54 0.41-0.95 0.95-0.95zM38.1 9.050v15.71c0 0.54-0.4 0.96-0.95 0.96h-2.5v-2.96c0-1.28-0.86-2.36-2.030-2.72v-1.71c0-2.75-2.24-4.99-5-4.99s-5 2.24-5 4.99v1.71c-1.16 0.36-2.020 1.44-2.020 2.72v2.96h-17.74c-0.54 0-0.96-0.41-0.96-0.96v-15.71h36.2zM27.62 15.24c1.73 0 3.090 1.36 3.090 3.090v1.57h-6.19v-1.57c0-1.73 1.37-3.090 3.1-3.090zM6.67 16.67c-0.53 0-0.95 0.42-0.96 0.95 0 0.53 0.43 0.96 0.96 0.96h9.52c0.53 0 0.96-0.43 0.96-0.96s-0.43-0.95-0.96-0.95h-9.52zM6.67 21.43c-0.53 0-0.96 0.43-0.96 0.96s0.43 0.95 0.96 0.95h6.66c0.52 0 0.95-0.43 0.95-0.95 0-0.53-0.42-0.96-0.95-0.96h-6.66zM23.45 21.81h8.34c0.54 0 0.95 0.4 0.95 0.95v6.29c0 0.54-0.4 0.95-0.95 0.95h-8.34c-0.54 0-0.96-0.4-0.96-0.95 0-2.1 0-4.19 0.010-6.29 0.010-0.74 0.5-0.95 0.95-0.95zM27.62 23.52c-0.53 0-0.96 0.43-0.96 0.96v2.85c0 0.53 0.43 0.96 0.96 0.96s0.95-0.43 0.95-0.96v-2.85c0-0.53-0.42-0.96-0.95-0.96z"></path>
</svg>
