<!-- Generated by IcoMoon.io -->
<svg version="1.1" xmlns="http://www.w3.org/2000/svg" width="25" height="32" viewBox="0 0 25 32">
<title>seed-supply</title>
<path d="M25.132 1.825l-1.389-1.389c-0.58-0.58-1.525-0.58-2.105-0l-0.779 0.779c-0.061 0.061-0.132 0.070-0.168 0.070s-0.108-0.009-0.169-0.070l-0.779-0.779c-0.58-0.58-1.525-0.58-2.105 0l-0.779 0.779c-0.093 0.093-0.244 0.093-0.337 0l-0.779-0.779c-0.58-0.58-1.525-0.58-2.105 0l-0.779 0.779c-0.093 0.093-0.244 0.093-0.337 0l-0.779-0.779c-0.58-0.58-1.525-0.58-2.105 0l-0.779 0.779c-0.093 0.093-0.244 0.093-0.337 0l-0.779-0.779c-0.58-0.58-1.525-0.58-2.105 0l-0.779 0.779c-0.093 0.093-0.244 0.093-0.337 0l-0.779-0.779c-0.58-0.58-1.525-0.58-2.105 0l-1.389 1.39c-0.117 0.117-0.183 0.276-0.183 0.442v27.466c0 0.166 0.066 0.325 0.183 0.442l1.389 1.389c0.58 0.58 1.525 0.58 2.105 0l0.779-0.779c0.093-0.093 0.244-0.093 0.337 0l0.779 0.779c0.58 0.58 1.525 0.58 2.105 0l0.779-0.779c0.093-0.093 0.244-0.093 0.337 0l0.779 0.779c0.58 0.58 1.525 0.58 2.105 0l0.779-0.779c0.093-0.093 0.244-0.093 0.337 0l0.779 0.779c0.58 0.58 1.525 0.58 2.105 0l0.779-0.779c0.093-0.093 0.244-0.093 0.337 0l0.779 0.779c0.58 0.58 1.525 0.58 2.105 0l0.779-0.779c0.061-0.061 0.132-0.070 0.169-0.070s0.108 0.009 0.168 0.070l0.779 0.779c0.29 0.29 0.671 0.435 1.052 0.435s0.762-0.145 1.053-0.435l1.389-1.389c0.117-0.117 0.183-0.276 0.183-0.442v-27.467c0-0.166-0.066-0.325-0.183-0.442zM2.521 1.319c0.093-0.093 0.244-0.093 0.337 0l0.779 0.779c0.58 0.58 1.525 0.58 2.105 0l0.779-0.779c0.093-0.093 0.244-0.093 0.337 0l0.779 0.779c0.58 0.58 1.525 0.58 2.105 0l0.779-0.779c0.093-0.093 0.244-0.093 0.337 0l0.779 0.779c0.58 0.58 1.525 0.58 2.105 0l0.779-0.779c0.093-0.093 0.244-0.093 0.337 0l0.779 0.779c0.281 0.281 0.655 0.436 1.053 0.436s0.771-0.155 1.053-0.436l0.779-0.779c0.093-0.093 0.244-0.093 0.337 0l0.779 0.779c0.281 0.281 0.655 0.436 1.052 0.436h0c0.397 0 0.771-0.155 1.052-0.436l0.779-0.779c0.093-0.093 0.244-0.093 0.337 0l1.206 1.206v1.616h-8.563c-0.345 0-0.625 0.28-0.625 0.625s0.28 0.625 0.625 0.625h8.563v21.216h-22.751v-21.216h8.563c0.345 0 0.625-0.28 0.625-0.625s-0.28-0.625-0.625-0.625h-8.563v-1.616l1.207-1.206zM22.858 30.681c-0.093 0.093-0.244 0.093-0.337 0l-0.779-0.779c-0.281-0.281-0.655-0.436-1.052-0.436-0 0-0 0-0 0-0.398 0-0.771 0.155-1.052 0.436l-0.779 0.779c-0.093 0.093-0.244 0.093-0.337 0l-0.779-0.779c-0.281-0.281-0.655-0.436-1.053-0.436s-0.771 0.155-1.053 0.436l-0.779 0.779c-0.093 0.093-0.244 0.093-0.337 0l-0.779-0.779c-0.58-0.58-1.525-0.58-2.105 0l-0.779 0.779c-0.093 0.093-0.244 0.093-0.337 0l-0.779-0.779c-0.58-0.58-1.525-0.58-2.105 0l-0.779 0.779c-0.093 0.093-0.244 0.093-0.337 0l-0.779-0.779c-0.58-0.58-1.525-0.58-2.105 0l-0.779 0.779c-0.093 0.093-0.244 0.093-0.337 0l-1.206-1.206v-1.616h22.751v1.616l-1.206 1.206z"></path>
<path d="M4.956 16c0 4.264 3.469 7.733 7.733 7.733s7.733-3.469 7.733-7.733-3.469-7.733-7.733-7.733c-4.264 0-7.733 3.469-7.733 7.733zM9.287 21.517l1.673-1.673c0.462-0.462 1.076-0.716 1.729-0.716s1.267 0.254 1.729 0.716l1.673 1.673c-0.99 0.612-2.155 0.967-3.402 0.967s-2.412-0.354-3.402-0.967zM13.314 15.117c0-0.849 0.691-1.54 1.54-1.54h0.335v0.335c0 0.849-0.691 1.54-1.54 1.54h-0.335v-0.335zM12.064 15.452h-0.335c-0.849 0-1.54-0.691-1.54-1.54v-0.335h0.335c0.849 0 1.54 0.691 1.54 1.54v0.335zM12.689 9.517c3.575 0 6.483 2.908 6.483 6.483 0 1.875-0.801 3.567-2.078 4.752l-1.792-1.792c-0.548-0.548-1.239-0.902-1.988-1.029v-1.229h0.335c1.538 0 2.79-1.251 2.79-2.79v-0.96c0-0.345-0.28-0.625-0.625-0.625h-0.96c-0.873 0-1.653 0.403-2.165 1.033-0.512-0.629-1.292-1.033-2.165-1.033h-0.96c-0.345 0-0.625 0.28-0.625 0.625v0.96c0 1.538 1.251 2.79 2.79 2.79h0.335v1.229c-0.749 0.127-1.44 0.481-1.988 1.029l-1.792 1.792c-1.277-1.185-2.078-2.877-2.078-4.752 0-3.575 2.908-6.483 6.483-6.483z"></path>
<path d="M12.689 5.392c0.345 0 0.625-0.28 0.625-0.625s-0.28-0.625-0.625-0.625c-0.345 0-0.625 0.28-0.625 0.625s0.28 0.625 0.625 0.625z"></path>
</svg>
