<svg xmlns="http://www.w3.org/2000/svg" width="38" height="49"><g transform="translate(0 0)"><g fill="none" class="nc-icon-wrapper"><path d="M15.972 31.587l13.042-13.004-1.773-1.778-11.269 11.237-5.556-5.54-1.773 1.777 7.33 7.308z" fill="#212121"></path><path fill-rule="evenodd" clip-rule="evenodd" d="M27.786 4.673L18.83.834 9.87 4.673 0 3.263v21.28a23.222 23.222 0 0 0 11.778 20.206l7.213 4.085 7.044-4.061a23.222 23.222 0 0 0 11.622-20.118V3.263l-9.87 1.41zM10.213 7.258l8.616-3.693 8.615 3.693 7.703-1.1v18.497A20.711 20.711 0 0 1 24.78 42.598l-5.801 3.345-5.965-3.379A20.711 20.711 0 0 1 2.51 24.542V6.157l7.703 1.1z" fill="#212121"></path></g></g></svg>