<svg width="12" height="11" viewBox="0 0 12 11" fill="none" xmlns="http://www.w3.org/2000/svg">
<path fill-rule="evenodd" clip-rule="evenodd" d="M2.4 1.93765V0H1.2V1.93765C0.500885 2.18933 0 2.86842 0 3.66667C0 4.46491 0.500885 5.144 1.2 5.39568V11H2.4V5.39568C3.09912 5.144 3.6 4.46491 3.6 3.66667C3.6 2.86842 3.09912 2.18933 2.4 1.93765ZM1.2 3.66667C1.2 3.32916 1.46863 3.05556 1.8 3.05556C2.13137 3.05556 2.4 3.32916 2.4 3.66667C2.4 4.00417 2.13137 4.27778 1.8 4.27778C1.46863 4.27778 1.2 4.00417 1.2 3.66667Z" fill="black"/>
<path fill-rule="evenodd" clip-rule="evenodd" d="M5.4 6.21543C4.70088 6.46711 4.2 7.1462 4.2 7.94444C4.2 8.74269 4.70088 9.42178 5.4 9.67346V11H6.6V9.67346C7.29912 9.42178 7.8 8.74269 7.8 7.94444C7.8 7.1462 7.29912 6.46711 6.6 6.21543V0H5.4V6.21543ZM5.4 7.94444C5.4 7.60694 5.66863 7.33333 6 7.33333C6.33137 7.33333 6.6 7.60694 6.6 7.94444C6.6 8.28195 6.33137 8.55556 6 8.55556C5.66863 8.55556 5.4 8.28195 5.4 7.94444Z" fill="black"/>
<path fill-rule="evenodd" clip-rule="evenodd" d="M10.8 3.15988V0H9.6V3.15988C8.90089 3.41155 8.4 4.09064 8.4 4.88889C8.4 5.68713 8.90089 6.36622 9.6 6.6179V11H10.8V6.6179C11.4991 6.36622 12 5.68713 12 4.88889C12 4.09064 11.4991 3.41155 10.8 3.15988ZM9.6 4.88889C9.6 4.55138 9.86863 4.27778 10.2 4.27778C10.5314 4.27778 10.8 4.55138 10.8 4.88889C10.8 5.2264 10.5314 5.5 10.2 5.5C9.86863 5.5 9.6 5.2264 9.6 4.88889Z" fill="black"/>
</svg>
