<!-- Generated by IcoMoon.io -->
<svg version="1.1" xmlns="http://www.w3.org/2000/svg" width="34" height="32" viewBox="0 0 34 32">
<title>smooth-taste</title>
<path d="M27.548 21.753c4.807 0 5.725-4.793 5.816-5.336 0.104-0.612-0.070-1.238-0.473-1.711s-0.988-0.744-1.607-0.744h-3.562c0.070-0.445 0.104-0.897 0.104-1.35v-2.546c0-0.925-0.744-1.67-1.67-1.67h-18.922c-0.925 0-1.67 0.744-1.67 1.67v2.546c0 0.904 0.139 1.802 0.397 2.664 0.090 0.292 0.397 0.466 0.689 0.376s0.466-0.397 0.376-0.689c-0.202-0.689-0.32-1.398-0.341-2.115h2.776c0.306 0 0.557-0.25 0.557-0.557s-0.25-0.557-0.557-0.557h-2.783v-1.67c0-0.306 0.25-0.557 0.557-0.557h18.922c0.306 0 0.557 0.25 0.557 0.557v1.67h-13.913c-0.306 0-0.557 0.25-0.557 0.557s0.25 0.557 0.557 0.557h13.906c-0.063 1.753-0.668 3.443-1.725 4.835-0.981 1.308-2.282 3.645-3.005 7.409h-1.468c-0.306 0-0.557 0.25-0.557 0.557s0.25 0.557 0.557 0.557h7.353c0.292 0 0.529 0.237 0.529 0.529v0.063c0 0.16-0.070 0.313-0.195 0.417l-2.073 1.656c-0.097 0.077-0.216 0.118-0.334 0.118h-6.943c-0.306 0-0.557 0.25-0.557 0.557s0.25 0.557 0.557 0.557h6.943c0.376 0 0.737-0.125 1.030-0.362l2.080-1.663c0.39-0.313 0.612-0.786 0.612-1.287v-0.063c0-0.904-0.737-1.642-1.642-1.642h-4.744c0.536-1.53 1.746-3.332 4.424-3.332zM25.871 18.351c0.737-0.981 1.287-2.094 1.614-3.277h3.798c0.292 0 0.577 0.132 0.765 0.355s0.264 0.515 0.216 0.8c-0.118 0.737-0.904 4.41-4.717 4.41-1.273-0.035-2.518 0.376-3.52 1.169 0.445-1.231 1.064-2.393 1.843-3.457z"></path>
<path d="M11.652 31.764c1.899-0.070 3.694-0.87 5.009-2.247 1.377-1.301 2.191-3.089 2.261-4.981 0.035-1.162-0.403-2.282-1.21-3.117-1.955-1.941-5.6-1.475-8.118 1.050-1.377 1.301-2.191 3.089-2.261 4.981-0.056 1.162 0.383 2.289 1.203 3.117 0.828 0.814 1.955 1.252 3.117 1.197zM15.875 28.73c-2.087 2.087-5.023 2.56-6.546 1.050-0.028-0.028-0.049-0.070-0.077-0.097 0.355-0.202 0.758-0.327 1.169-0.355 1.739-0.132 3.123-1.517 3.263-3.256 0.070-1.245 1.064-2.247 2.317-2.31 0.563-0.049 1.106-0.223 1.593-0.508 0.153 0.41 0.223 0.849 0.223 1.28-0.083 1.593-0.779 3.096-1.941 4.195zM10.379 23.256c1.099-1.169 2.616-1.857 4.216-1.934 0.863-0.028 1.704 0.292 2.33 0.883 0.028 0.028 0.049 0.070 0.077 0.097-0.355 0.202-0.758 0.327-1.169 0.355-1.739 0.139-3.123 1.517-3.263 3.256-0.070 1.252-1.064 2.247-2.317 2.31-0.563 0.049-1.106 0.223-1.593 0.508-0.153-0.41-0.223-0.849-0.223-1.287 0.090-1.593 0.779-3.096 1.941-4.188z"></path>
<path d="M9.509 20.424c0.090 0.181 0.278 0.292 0.48 0.299s0.39-0.097 0.494-0.271c0.104-0.174 0.104-0.39 0.007-0.563-1.071-1.962-2.831-3.137-4.703-3.144-0.334 0-0.668 0.035-0.995 0.111-2.783 0.626-4.793 3.736-4.786 7.402-0.007 4.139 2.588 7.506 5.781 7.513 0.334 0 0.675-0.035 1.002-0.118 0.257-0.063 0.431-0.292 0.424-0.557-0.014-0.939-0.369-1.843-0.988-2.546-0.494-0.536-0.765-1.245-0.758-1.976-0.007-0.73 0.264-1.44 0.758-1.983 1.308-1.523 1.308-3.777 0-5.301-0.355-0.403-0.605-0.897-0.717-1.419 0.090-0.007 0.181-0.014 0.271-0.014 1.482 0.007 2.838 0.939 3.729 2.567zM6.101 21.941c0.007 0.737-0.264 1.447-0.758 1.99-1.308 1.523-1.308 3.777 0 5.301 0.355 0.403 0.605 0.897 0.717 1.426-0.090 0.007-0.174 0.014-0.264 0.014-2.581-0.007-4.682-2.88-4.675-6.4-0.007-2.817 1.384-5.315 3.318-6.122 0.153 0.675 0.466 1.301 0.911 1.823 0.487 0.529 0.758 1.238 0.751 1.969z"></path>
<path d="M13.732 2.038c0.452-0.334 0.723-0.863 0.737-1.426 0-0.306-0.25-0.557-0.557-0.557s-0.557 0.25-0.557 0.557c0 0.257-0.111 0.362-0.376 0.612-0.452 0.334-0.73 0.863-0.737 1.433 0.007 0.563 0.285 1.092 0.737 1.433 0.264 0.243 0.376 0.355 0.376 0.612s-0.111 0.369-0.376 0.612c-0.452 0.334-0.723 0.863-0.737 1.426 0 0.306 0.25 0.557 0.557 0.557s0.557-0.25 0.557-0.557c0-0.257 0.111-0.362 0.376-0.612 0.452-0.334 0.723-0.863 0.737-1.433-0.007-0.563-0.285-1.092-0.737-1.433-0.264-0.243-0.376-0.355-0.376-0.612s0.111-0.369 0.376-0.612z"></path>
<path d="M17.071 2.038c0.452-0.334 0.723-0.863 0.737-1.426 0-0.306-0.25-0.557-0.557-0.557s-0.557 0.25-0.557 0.557c0 0.257-0.111 0.362-0.376 0.612-0.452 0.334-0.723 0.863-0.737 1.433 0.007 0.563 0.285 1.092 0.737 1.433 0.264 0.23 0.376 0.341 0.376 0.598s-0.111 0.369-0.376 0.612c-0.452 0.334-0.723 0.863-0.737 1.426 0 0.306 0.25 0.557 0.557 0.557s0.557-0.25 0.557-0.557c0-0.257 0.111-0.362 0.376-0.612 0.452-0.334 0.723-0.863 0.737-1.433-0.014-0.563-0.285-1.092-0.737-1.433-0.264-0.237-0.376-0.348-0.376-0.598 0-0.257 0.111-0.369 0.376-0.612z"></path>
<path d="M20.41 2.038c0.452-0.334 0.723-0.863 0.737-1.426 0-0.306-0.25-0.557-0.557-0.557s-0.557 0.25-0.557 0.557c0 0.257-0.111 0.362-0.376 0.612-0.452 0.334-0.723 0.863-0.737 1.433 0.007 0.563 0.285 1.092 0.737 1.433 0.264 0.243 0.376 0.355 0.376 0.612s-0.111 0.369-0.376 0.612c-0.452 0.334-0.723 0.863-0.737 1.426 0 0.306 0.25 0.557 0.557 0.557s0.557-0.25 0.557-0.557c0-0.257 0.111-0.362 0.376-0.612 0.452-0.334 0.723-0.863 0.737-1.433-0.007-0.563-0.285-1.092-0.737-1.433-0.264-0.243-0.376-0.355-0.376-0.612s0.111-0.369 0.376-0.612z"></path>
</svg>
