<!-- Generated by IcoMoon.io -->
<svg version="1.1" xmlns="http://www.w3.org/2000/svg" width="32" height="32" viewBox="0 0 32 32">
<title>sports</title>
<path d="M6.596 18.389c-0.294-0.039-0.522 0.163-0.555 0.424-0.033 0.255 0.144 0.509 0.431 0.549 0.268 0.033 0.516-0.157 0.549-0.424s-0.157-0.516-0.425-0.549z"></path>
<path d="M32 19.753c0-2.442-1.985-4.408-4.408-4.408-1.541 0-1.626-0.17-3.481-1.247 0.229-0.464-0.32-0.921-0.731-0.614l-0.137 0.104-1.593-0.934c0.274-0.457-0.287-0.96-0.712-0.64l-0.17 0.124-1.587-0.927c0.32-0.457-0.255-1.006-0.699-0.673l-0.196 0.157-3.383-1.972c-0.777-0.451-1.783-0.235-2.286 0.529l-0.17 0.255c-0.385 0.575-0.385 1.319 0 1.894l0.222 0.333-1.561 0.777c-0.973 0.49-2.175 0.183-2.789-0.738l-0.869-1.306c-0.927-1.391-3.004-1.3-3.807 0.17-1.104 2.024-1.097 1.998-1.241 2.305-0.705 1.391-1.078 3.383-0.79 5.29l-0.927 2.325c-0.091 0.229 0 0.483 0.209 0.607 2.318 1.326 4.95 2.024 7.621 2.024h18.913c1.985 0 3.84-1.221 4.545-3.278 0.013-0.046 0.026-0.105 0.026-0.157zM31.001 19.42c-1.495 0.535-3.461 0.823-5.068 0.823-2.423 0-4.859-0.111-7.282-0.327l2.116-2.821c2.024 0.79 4.153 1.189 6.335 1.189 0.953 0 1.659-0.895 1.424-1.829 1.339 0.379 2.338 1.548 2.475 2.965zM13.264 10.042c0.196-0.294 0.34-0.575 0.771-0.575 0.281 0 0.163-0.020 3.396 1.868l-0.908 0.679c-0.215 0.163-0.261 0.47-0.098 0.686s0.47 0.261 0.686 0.098l1.241-0.927 1.561 0.908-0.94 0.705c-0.215 0.163-0.261 0.47-0.098 0.686s0.47 0.261 0.686 0.098l1.273-0.953 1.561 0.908-0.973 0.731c-0.215 0.163-0.261 0.47-0.098 0.686s0.47 0.261 0.686 0.098l1.3-0.973 1.652 0.96c0.692 0.405 1.495 0.601 2.142 0.601 0.274 0 0.49 0.215 0.49 0.49s-0.215 0.49-0.49 0.49c-3.455 0-6.766-1.084-9.509-3.017l-3.853-2.717-0.477-0.718c-0.163-0.248-0.163-0.562 0-0.81zM4.506 11.094c0.451-0.823 1.613-0.875 2.129-0.091l0.869 1.306c0.888 1.339 2.625 1.783 4.042 1.071l1.796-0.895c3.918 2.769 4.624 3.357 6.498 4.212l-2.331 3.109c-0.581-0.059-1.156-0.124-1.731-0.196-0.157-0.882-0.64-1.626-1.273-2.136-0.908-0.725-1.913-1.293-3.004-1.691l-7.967-2.893 0.973-1.796zM27.435 22.202h-18.913c-2.358 0-4.682-0.581-6.759-1.691l0.679-1.691 2.083 0.281c0.268 0.033 0.516-0.15 0.549-0.418s-0.15-0.516-0.418-0.549l-2.096-0.281c-0.17-1.378 0.026-2.789 0.549-4.075l8.059 2.932c0.993 0.359 1.907 0.875 2.73 1.535 0.379 0.307 0.686 0.731 0.842 1.234-0.007 0-6.256-0.836-6.315-0.836-0.268 0-0.49 0.222-0.49 0.49 0 0.248 0.189 0.457 0.431 0.49 6.622 0.882 10.913 1.613 17.567 1.613 1.476 0 3.174-0.229 4.611-0.627-0.699 0.98-1.848 1.593-3.109 1.593z"></path>
</svg>
