<!-- Generated by IcoMoon.io -->
<svg version="1.1" xmlns="http://www.w3.org/2000/svg" width="32" height="32" viewBox="0 0 32 32">
<title>star-bestseller</title>
<path d="M15.969 4.67c-0.38 0.663-0.805 1.711-1.454 3.329l-0.086 0.214c-0.332 0.828-0.625 1.558-0.932 2.142-0.332 0.633-0.74 1.213-1.362 1.676s-1.295 0.686-1.997 0.822c-0.648 0.126-1.431 0.196-2.319 0.275l-0.417 0.037c-1.611 0.144-2.638 0.24-3.319 0.401-0.017 0.004-0.033 0.008-0.049 0.012 0.010 0.013 0.021 0.026 0.032 0.039 0.446 0.54 1.206 1.237 2.402 2.325l0.817 0.743c0.546 0.497 1.029 0.936 1.404 1.341 0.405 0.438 0.758 0.913 0.993 1.513 0.076 0.195 0.14 0.395 0.19 0.599 0.154 0.626 0.139 1.218 0.061 1.809-0.072 0.546-0.214 1.184-0.374 1.905l-0.12 0.541c-0.323 1.458-0.535 2.422-0.612 3.103-0.005 0.043-0.009 0.084-0.012 0.121 0.032-0.020 0.066-0.042 0.103-0.065 0.574-0.374 1.341-0.996 2.498-1.94l0.054-0.044c0.694-0.565 1.299-1.059 1.839-1.42 0.577-0.386 1.195-0.703 1.936-0.821 0.501-0.080 1.012-0.080 1.514 0 0.74 0.118 1.358 0.435 1.936 0.821 0.54 0.361 1.145 0.854 1.839 1.42l0.054 0.044c1.158 0.944 1.924 1.565 2.499 1.94 0.036 0.024 0.071 0.045 0.103 0.065-0.003-0.038-0.007-0.078-0.012-0.121-0.077-0.681-0.288-1.645-0.612-3.103l-0.12-0.541c-0.16-0.721-0.301-1.359-0.374-1.905-0.078-0.591-0.093-1.183 0.061-1.809 0.050-0.204 0.114-0.404 0.19-0.599 0.235-0.6 0.588-1.076 0.993-1.513 0.374-0.405 0.857-0.844 1.404-1.341l0.817-0.743c1.196-1.088 1.957-1.786 2.402-2.325 0.011-0.013 0.022-0.026 0.032-0.039-0.016-0.004-0.032-0.008-0.049-0.012-0.681-0.161-1.709-0.257-3.319-0.401l-0.417-0.037c-0.888-0.079-1.672-0.15-2.319-0.275-0.702-0.136-1.375-0.359-1.997-0.822s-1.030-1.043-1.362-1.676c-0.307-0.584-0.6-1.314-0.932-2.142l-0.086-0.215c-0.649-1.618-1.074-2.666-1.454-3.329-0.011-0.018-0.021-0.036-0.031-0.053-0.010 0.017-0.020 0.035-0.031 0.053zM16.293 4.211c0 0-0.005 0.005-0.015 0.012 0.010-0.010 0.015-0.012 0.015-0.012zM15.722 4.224c-0.010-0.007-0.015-0.012-0.015-0.012s0.005 0.003 0.015 0.012zM28.389 13.725c0 0-0.006-0.003-0.015-0.010 0.011 0.006 0.015 0.010 0.015 0.010zM28.209 13.225c0.003-0.011 0.006-0.017 0.006-0.017s-0.001 0.005-0.006 0.017zM3.785 13.208c0 0 0.003 0.006 0.006 0.017-0.005-0.012-0.006-0.017-0.006-0.017zM3.626 13.715c-0.009 0.007-0.015 0.010-0.015 0.010s0.004-0.004 0.015-0.010zM13.193 3.078c0.483-0.841 1.321-1.981 2.807-1.981s2.324 1.139 2.807 1.981c0.506 0.882 1.012 2.145 1.602 3.614l0.105 0.262c0.368 0.917 0.6 1.492 0.822 1.913 0.204 0.388 0.337 0.52 0.439 0.597s0.267 0.165 0.698 0.249c0.467 0.091 1.085 0.148 2.068 0.236l0.467 0.042c1.451 0.13 2.713 0.243 3.646 0.463 0.915 0.216 2.157 0.678 2.608 2.018s-0.26 2.459-0.858 3.184c-0.61 0.739-1.547 1.592-2.625 2.572l-0.863 0.785c-0.605 0.551-0.984 0.897-1.253 1.188-0.249 0.269-0.324 0.409-0.362 0.506-0.025 0.065-0.047 0.132-0.063 0.2-0.025 0.101-0.044 0.259 0.004 0.623 0.052 0.393 0.162 0.894 0.339 1.693l0.127 0.574c0.297 1.34 0.549 2.473 0.647 3.345 0.088 0.783 0.147 1.968-0.644 2.849-0.411 0.457-0.945 0.787-1.538 0.949-1.143 0.312-2.175-0.272-2.835-0.703-0.735-0.479-1.634-1.212-2.699-2.079l-0.074-0.060c-0.764-0.622-1.251-1.018-1.65-1.284-0.375-0.251-0.552-0.304-0.661-0.321-0.167-0.027-0.337-0.027-0.505 0-0.109 0.017-0.286 0.070-0.662 0.321-0.399 0.267-0.887 0.662-1.65 1.284l-0.074 0.060c-1.064 0.867-1.964 1.6-2.698 2.079-0.66 0.431-1.693 1.014-2.835 0.703-0.593-0.162-1.127-0.491-1.538-0.949-0.791-0.881-0.733-2.066-0.644-2.849 0.098-0.871 0.35-2.004 0.647-3.345l0.127-0.574c0.177-0.799 0.287-1.3 0.339-1.693 0.048-0.364 0.029-0.521 0.004-0.623-0.017-0.068-0.038-0.135-0.063-0.2-0.038-0.097-0.113-0.237-0.362-0.506-0.269-0.291-0.647-0.637-1.253-1.188l-0.772-0.702c-0.031-0.028-0.061-0.056-0.092-0.083-1.078-0.98-2.015-1.833-2.625-2.572-0.599-0.725-1.309-1.844-0.858-3.184s1.693-1.802 2.608-2.018c0.932-0.22 2.195-0.333 3.646-0.463 0.041-0.004 0.082-0.007 0.123-0.011l0.344-0.031c0.984-0.088 1.602-0.145 2.068-0.236 0.431-0.084 0.595-0.173 0.698-0.249s0.235-0.208 0.439-0.597c0.221-0.421 0.454-0.996 0.822-1.913l0.059-0.146c0.016-0.039 0.031-0.077 0.046-0.116 0.589-1.47 1.096-2.732 1.602-3.614z"></path>
</svg>
