<!-- Generated by IcoMoon.io -->
<svg version="1.1" xmlns="http://www.w3.org/2000/svg" width="31" height="32" viewBox="0 0 31 32">
<title>storage</title>
<path d="M27.277 10.131h-2.381c0.077-0.173 0.128-0.358 0.141-0.557h0.23c0.774 0 1.408-0.634 1.408-1.408v-0.678c0-0.774-0.634-1.408-1.408-1.408h-3.885c-0.352 0-0.634 0.282-0.634 0.634v2.758c0 0.237 0.051 0.461 0.147 0.659h-8.275c0.019-0.070 0.038-0.141 0.051-0.218l0.448-3.277c0.038-0.294-0.051-0.595-0.243-0.826-0.198-0.224-0.48-0.358-0.781-0.358h-1.363v-0.653h0.595c1.171 0 2.118-0.954 2.118-2.118v-0.717c0-0.442-0.358-0.8-0.8-0.8h-0.717c-0.474 0-0.909 0.154-1.261 0.416-0.25-0.909-1.082-1.581-2.061-1.581h-1.165c-0.442 0-0.8 0.358-0.8 0.8v1.165c0 1.171 0.954 2.118 2.118 2.118h1.043v1.376h-1.293c-0.301 0-0.589 0.128-0.781 0.358-0.198 0.224-0.288 0.525-0.25 0.826l0.448 3.277c0.013 0.077 0.026 0.147 0.051 0.218h-4.538c-1.901-0.006-3.443 1.542-3.443 3.443v10.464c0 1.901 1.542 3.443 3.443 3.443h1.382l-0.48 2.592c-0.070 0.365 0.026 0.736 0.262 1.018s0.582 0.448 0.954 0.448c0.614 0 1.171-0.39 1.389-0.966l1.139-3.091h1.766c0.256 0 0.461-0.205 0.461-0.461s-0.205-0.461-0.461-0.461h-6.413c-1.389 0-2.522-1.133-2.522-2.522v-10.464c0-1.389 1.133-2.522 2.522-2.522h23.827c1.389 0 2.522 1.133 2.522 2.522v10.464c0 1.389-1.133 2.522-2.522 2.522h-15.238c-0.256 0-0.461 0.205-0.461 0.461s0.205 0.461 0.461 0.461h10.605l1.139 3.091c0.211 0.576 0.768 0.966 1.389 0.966 0.371 0 0.717-0.16 0.954-0.448s0.333-0.653 0.262-1.018l-0.486-2.592h1.382c1.901 0 3.443-1.542 3.443-3.443v-10.464c0-1.901-1.542-3.45-3.443-3.45zM11.917 2.086h0.595v0.595c0 0.659-0.538 1.197-1.197 1.197h-0.595v-0.595c0.006-0.659 0.538-1.197 1.197-1.197zM7.565 1.965v-1.043h1.043c0.659 0 1.197 0.538 1.197 1.197v1.043h-1.043c-0.659 0-1.197-0.538-1.197-1.197zM7.104 27.488l-1.024 2.771c-0.083 0.218-0.288 0.365-0.518 0.365-0.128 0-0.205-0.070-0.243-0.115-0.032-0.045-0.090-0.134-0.064-0.256l0.518-2.758h1.331v-0.006zM25.747 7.488v0.685c0 0.269-0.218 0.48-0.48 0.48h-0.23v-1.645h0.23c0.262 0 0.48 0.211 0.48 0.48zM9.242 10.131c-0.198 0-0.365-0.147-0.39-0.346l-0.448-3.277c-0.006-0.045 0.013-0.070 0.026-0.090s0.045-0.038 0.090-0.038h3.578c0.045 0 0.070 0.019 0.090 0.038 0.013 0.019 0.032 0.051 0.026 0.090l-0.448 3.277c-0.026 0.198-0.198 0.346-0.39 0.346h-2.131zM22.33 10.131c-0.365 0-0.659-0.294-0.659-0.659v-2.47h2.445v2.47c0 0.365-0.294 0.659-0.659 0.659h-1.126zM25.472 30.246c0.026 0.128-0.032 0.218-0.064 0.256-0.032 0.045-0.115 0.115-0.243 0.115-0.23 0-0.442-0.147-0.518-0.365l-1.024-2.771h1.331l0.518 2.765z"></path>
<path d="M28.032 14.912c0.256 0 0.461-0.205 0.461-0.461v-0.762c0-0.826-0.672-1.498-1.498-1.498h-23.27c-0.826 0-1.498 0.672-1.498 1.498v10.24c0 0.826 0.672 1.498 1.498 1.498h23.27c0.826 0 1.498-0.672 1.498-1.498v-7.424c0-0.256-0.205-0.461-0.461-0.461s-0.461 0.205-0.461 0.461v1.843h-11.75v-5.235h3.718c0.019 0.845 0.71 1.523 1.562 1.523h1.83c0.851 0 1.542-0.678 1.562-1.523h2.502c0.32 0 0.576 0.256 0.576 0.576v0.762c0 0.256 0.205 0.461 0.461 0.461zM10.675 13.114c-0.019 0.333-0.301 0.602-0.64 0.602h-1.83c-0.339 0-0.621-0.269-0.64-0.602h3.11zM3.149 23.93v-4.659h3.494c0.019 0.845 0.71 1.523 1.562 1.523h1.83c0.851 0 1.542-0.678 1.562-1.523h3.302v5.235h-11.174c-0.32 0-0.576-0.256-0.576-0.576zM7.565 19.27h3.104c-0.019 0.333-0.301 0.602-0.64 0.602h-1.83c-0.333 0-0.614-0.262-0.634-0.602zM23.571 19.27c-0.019 0.333-0.301 0.602-0.64 0.602h-1.83c-0.339 0-0.621-0.269-0.64-0.602h3.11zM19.539 19.27c0.019 0.845 0.71 1.523 1.562 1.523h1.83c0.851 0 1.542-0.678 1.562-1.523h3.078v4.659c0 0.32-0.256 0.576-0.576 0.576h-11.174v-5.235h3.718zM14.899 18.349h-11.75v-4.659c0-0.32 0.256-0.576 0.576-0.576h2.918c0.019 0.845 0.71 1.523 1.562 1.523h1.83c0.851 0 1.542-0.678 1.562-1.523h3.302v5.235zM22.931 13.715h-1.83c-0.339 0-0.621-0.269-0.64-0.602h3.104c-0.013 0.339-0.288 0.602-0.634 0.602z"></path>
</svg>
