<!-- Generated by IcoMoon.io -->
<svg version="1.1" xmlns="http://www.w3.org/2000/svg" width="26" height="32" viewBox="0 0 26 32">
<title>support</title>
<path d="M24.22 23.568c1.003 0 1.813-0.811 1.813-1.813v-8.732c0-2.908-0.939-5.66-2.716-7.957-0.206-0.27-0.59-0.32-0.86-0.107-0.27 0.206-0.32 0.59-0.107 0.86 1.607 2.076 2.46 4.572 2.46 7.211v1.799c-0.185-0.064-0.384-0.1-0.59-0.1h-1.692c-0.178-0.633-0.754-1.102-1.444-1.102h-1.678c-0.825 0-1.5 0.676-1.5 1.5v8.043c0 0.825 0.676 1.5 1.5 1.5h1.678c0.078 0 0.156-0.007 0.235-0.021-0.292 2.304-2.261 4.089-4.644 4.089h-0.327c-0.149-0.761-0.825-1.337-1.621-1.337h-1.842c-0.91 0-1.657 0.739-1.657 1.657v0.583c0 0.91 0.74 1.657 1.657 1.657h1.842c0.804 0 1.472-0.576 1.621-1.337h0.327c3.257 0 5.909-2.652 5.909-5.909 0-0.128-0.036-0.242-0.107-0.341 0.021-0.050 0.036-0.1 0.050-0.149l1.692 0.007zM15.147 29.641c0 0.235-0.192 0.427-0.427 0.427h-1.842c-0.235 0-0.427-0.192-0.427-0.427v-0.583c0-0.235 0.192-0.427 0.427-0.427h1.842c0.235 0 0.427 0.192 0.427 0.427v0.583zM24.804 16.542v5.205c0 0.327-0.263 0.59-0.59 0.59h-1.636v-6.386h1.636c0.327 0 0.59 0.263 0.59 0.59zM21.077 23.44h-1.678c-0.149 0-0.27-0.121-0.27-0.27v-8.050c0-0.149 0.121-0.27 0.27-0.27h1.678c0.149 0 0.27 0.121 0.27 0.27v8.043c0.007 0.156-0.121 0.277-0.27 0.277z"></path>
<path d="M4.679 4.688c2.226-2.226 5.191-3.456 8.334-3.456 2.482 0 4.857 0.761 6.862 2.204 0.277 0.199 0.661 0.135 0.853-0.142 0.199-0.277 0.135-0.661-0.142-0.853-2.212-1.593-4.828-2.432-7.573-2.432-3.47 0-6.741 1.351-9.202 3.812s-3.812 5.732-3.812 9.202v8.725c0 1.003 0.818 1.813 1.813 1.813h1.692c0.178 0.633 0.754 1.102 1.444 1.102h1.678c0.825 0 1.5-0.675 1.5-1.5v-8.043c0-0.825-0.676-1.5-1.5-1.5h-1.671c-0.69 0-1.273 0.469-1.444 1.102h-1.7c-0.206 0-0.405 0.036-0.59 0.1v-1.799c0.007-3.143 1.23-6.108 3.456-8.334zM4.679 15.12c0-0.149 0.121-0.27 0.27-0.27h1.678c0.149 0 0.27 0.121 0.27 0.27v8.043c0 0.149-0.121 0.27-0.27 0.27h-1.671c-0.149 0-0.27-0.121-0.27-0.27v-8.043h-0.007zM1.813 15.952h1.636v6.386h-1.636c-0.327 0-0.59-0.263-0.59-0.59v-5.205c0.007-0.327 0.27-0.59 0.59-0.59z"></path>
<path d="M21.582 4.674c0.789 0 0.789-1.23 0-1.23s-0.789 1.23 0 1.23z"></path>
</svg>
