<svg xmlns="http://www.w3.org/2000/svg" width="27" height="22"><g transform="translate(0 0)"><g fill="none" class="nc-icon-wrapper"><path d="M3.86 0C1.74 0 0 1.795 0 3.995V10C0 12.197 1.74 14 3.86 14v3.005c.002.403.238.764.597.917a.937.937 0 0 0 1.046-.216l3.573-3.706h6.357c2.12 0 3.852-1.803 3.852-4.002V3.995c0-2.2-1.731-3.995-3.851-3.995H3.859zm0 2.002h11.573c1.085 0 1.93.867 1.93 1.993V10c0 1.125-.845 2-1.93 2H8.68a.947.947 0 0 0-.678.294l-2.213 2.298v-1.587c.001-.553-.428-1.002-.96-1.005h-.969c-1.085 0-1.929-.875-1.929-2V3.995c0-1.126.844-1.993 1.93-1.993zm16.393 1.993v2h2.892c1.085 0 1.929.878 1.929 2.003v6.003c0 1.126-.844 2-1.93 2h-.962a.944.944 0 0 0-.685.293 1.023 1.023 0 0 0-.283.712v1.58l-2.206-2.29a.945.945 0 0 0-.684-.294h-6.75a1.89 1.89 0 0 1-1.668-.996h-.432l-1.127 1.168c.69 1.096 1.879 1.83 3.227 1.83h6.35l3.574 3.705c.276.285.69.37 1.05.215.359-.156.594-.518.595-.922v-3c2.12 0 3.857-1.802 3.857-4V7.997c0-2.2-1.738-4.003-3.858-4.003h-2.889z" fill="#212121"></path></g></g></svg>