<!-- Generated by IcoMoon.io -->
<svg version="1.1" xmlns="http://www.w3.org/2000/svg" width="32" height="32" viewBox="0 0 32 32">
<title>toys-kids</title>
<path d="M21.088 6.688c0.112 0.496 0.576 0.832 1.104 0.736 0.496-0.112 0.832-0.576 0.736-1.104-0.128-0.56-0.688-0.88-1.2-0.72-0.48 0.16-0.736 0.624-0.64 1.088z"></path>
<path d="M31.072 6.992l-3.36-0.464c-0.896-3.776-4.288-6.528-8.208-6.528-4.656 0-8.448 3.808-8.448 8.496 0 2.704 1.296 5.216 3.424 6.784-2.912 2.624-7.568 2.144-9.856-0.976-0.32-0.432-0.976-0.496-1.392-0.112-2.080 1.968-3.232 4.384-3.232 6.8 0 6.080 6.624 11.008 14.752 11.008 8.096 0 14.688-4.928 14.688-11.008 0-2.624-1.232-5.104-3.472-7.072 0.256-0.304 0.496-0.64 0.72-0.992 2.944-0.032 5.312-2.064 5.312-4.992 0-0.512-0.416-0.944-0.928-0.944zM23.92 27.344c-2.448 1.792-5.696 2.784-9.168 2.784-9.664 0-16.416-7.632-10.912-13.856 3.536 3.664 9.648 3.424 12.848-0.576 0.368-0.464 0.224-1.136-0.288-1.408-2.128-1.152-3.456-3.36-3.456-5.776 0-3.648 2.944-6.624 6.56-6.624 3.008 0 5.616 2.096 6.352 4.992-1.072 0.544-1.792 1.664-1.792 2.944v0.576c0 0.736 0.32 1.392 0.816 1.856-0.272 0.384-0.576 0.736-0.928 1.056-0.432 0.4-0.4 1.088 0.080 1.44 4.752 3.552 4.704 9.056-0.112 12.592zM26.592 11.056c-0.368 0-0.656-0.288-0.656-0.656v-0.592c0-0.768 0.608-1.392 1.376-1.424l2.72 0.368c-0.416 1.52-1.936 2.304-3.44 2.304z"></path>
<path d="M21.104 18.528c-1.536-0.832-3.296-0.592-4.56 0.656-1.76 1.712-5.104 2.048-6.928 2.112-0.608 0.016-1.040 0.608-0.88 1.2 0.608 2.128 3.12 4.272 6.768 4.272 1.872 0 3.648-0.4 4.992-1.152 1.472-0.816 2.336-1.952 2.448-3.216 0.176-2.272-0.896-3.36-1.84-3.872zM21.072 22.24c-0.112 1.28-2.368 2.64-5.568 2.64-2.128 0-3.568-0.896-4.352-1.824 2.128-0.224 4.928-0.832 6.688-2.544 0.704-0.672 1.536-0.8 2.368-0.352 0.464 0.256 0.976 0.72 0.864 2.080z"></path>
</svg>
