<!-- Generated by IcoMoon.io -->
<svg version="1.1" xmlns="http://www.w3.org/2000/svg" width="61" height="32" viewBox="0 0 61 32">
<title>travel-outdoor</title>
<path d="M50.124 10.967c-11.549-4.625-19.171-10.182-19.985-10.676-0.262-0.204-0.611-0.291-0.931-0.291h-7.040c-0.96 0-1.716 0.756-1.716 1.716v3.404c0 0.931-0.756 1.716-1.716 1.716h-6.807c-0.931 0-1.716-0.756-1.716-1.716 0.029-2.822-2.269-5.12-5.091-5.12h-3.404c-0.96 0-1.716 0.756-1.716 1.716v27.287c0 0.931 0.756 1.716 1.716 1.716h54.778c0.931 0 1.716-0.756 1.716-1.716v-9.018c-0.029-7.331-7.273-8.465-8.087-9.018zM5.12 3.404c0.931 0 1.716 0.756 1.716 1.716 0 2.822 2.298 5.12 5.12 5.12h6.807c2.822 0 5.12-2.298 5.12-5.12v-1.716h4.829c0.582 0.378 1.076 0.727 1.949 1.28l-2.618 2.618c-0.669 0.669-0.669 1.745 0 2.415s1.745 0.669 2.415 0l3.2-3.2c1.135 0.669 2.269 1.338 3.433 1.978l-2.211 2.211c-0.669 0.669-0.669 1.745 0 2.415s1.745 0.669 2.415 0l2.938-2.938c1.193 0.611 2.415 1.193 3.636 1.775l-2.182 2.182c-0.669 0.669-0.669 1.745 0 2.415s1.745 0.669 2.415 0l3.113-3.113c1.542 0.64 1.978 0.815 4.393 1.775 1.949 0.785 3.2 2.647 3.2 4.742v0.495h-41.338c-0.785-3.869-4.247-6.807-8.349-6.807h-1.716v-10.24h1.716zM3.404 17.047h1.716c2.211 0 4.131 1.425 4.829 3.404h-6.545v-3.404zM3.404 27.287v-3.433h51.375v3.404l-51.375 0.029z"></path>
</svg>
