<!-- Generated by IcoMoon.io -->
<svg version="1.1" xmlns="http://www.w3.org/2000/svg" width="27" height="32" viewBox="0 0 27 32">
<title>vase</title>
<path d="M27.378 13.937c0-1.987-1.183-3.765-3.013-4.53-0.238-0.1-0.512 0.013-0.612 0.252s0.013 0.513 0.252 0.613c1.481 0.619 2.437 2.057 2.437 3.665 0 1.817-1.219 3.381-2.942 3.836-0.177-0.293-0.364-0.572-0.557-0.84 1.45-0.223 2.564-1.482 2.564-2.996 0-1.671-1.357-3.031-3.025-3.031-1.188 0-2.226 0.7-2.719 1.71-0.16-0.397-0.261-0.815-0.282-1.267 0.705-0.82 1.712-1.32 2.791-1.376 0.258-0.013 0.456-0.234 0.443-0.492s-0.236-0.457-0.491-0.444c-0.973 0.051-1.899 0.393-2.668 0.967 0.374-2.883 1.961-6.030 2.626-7.247 0.586-0.169 1.017-0.711 1.017-1.352 0-0.775-0.63-1.406-1.403-1.406h-12.13c-0.258 0-0.468 0.21-0.468 0.469s0.209 0.469 0.468 0.469h12.13c0.258 0 0.468 0.21 0.468 0.469 0 0.244-0.187 0.444-0.424 0.467-0 0-0 0-0 0-0.014 0.001-0.029 0.002-0.043 0.002h-16.215c-0.258 0-0.468-0.21-0.468-0.469s0.21-0.469 0.468-0.469h2.1c0.258 0 0.468-0.21 0.468-0.469s-0.209-0.469-0.468-0.469h-2.1c-0.774 0-1.403 0.631-1.403 1.406 0 0.641 0.431 1.183 1.017 1.352 0.664 1.217 2.251 4.362 2.625 7.244-0.835-0.626-1.853-0.971-2.925-0.971-2.699 0-4.896 2.201-4.896 4.906 0 2.169 1.406 4.047 3.422 4.68-0.541 1.13-0.905 2.469-0.905 4.153 0 2.318 0.698 4.397 2.075 6.18 0.092 0.119 0.23 0.182 0.37 0.182 0.1 0 0.201-0.032 0.286-0.098 0.204-0.159 0.242-0.453 0.084-0.658-1.247-1.615-1.88-3.501-1.88-5.606 0-3.329 1.543-5.142 3.035-6.895 1.208-1.419 2.349-2.76 2.349-4.704 0-3.030-1.649-6.621-2.552-8.359h14.809c-0.903 1.738-2.552 5.328-2.552 8.359 0 1.944 1.141 3.284 2.349 4.704 1.492 1.753 3.035 3.566 3.035 6.895 0 2.212-0.695 4.177-2.067 5.841-1.112 1.349-2.362 2.11-2.849 2.375-0.092 0.050-0.197 0.077-0.303 0.077h-10.037c-0.106 0-0.211-0.026-0.303-0.077-0.328-0.178-0.986-0.572-1.714-1.209-0.195-0.17-0.49-0.15-0.66 0.045s-0.15 0.491 0.045 0.661c0.796 0.696 1.521 1.13 1.882 1.326 0.229 0.125 0.488 0.191 0.75 0.191h10.037c0.262 0 0.521-0.066 0.75-0.191 0.534-0.29 1.907-1.125 3.123-2.601 1.514-1.837 2.281-4.003 2.281-6.438 0-1.684-0.364-3.023-0.905-4.153 2.015-0.633 3.422-2.511 3.422-4.68zM0.935 13.937c0-2.188 1.776-3.969 3.96-3.969 1.163 0 2.247 0.502 3.001 1.381-0.021 0.452-0.122 0.869-0.282 1.266-0.493-1.010-1.531-1.71-2.719-1.71-1.668 0-3.025 1.36-3.025 3.031 0 1.514 1.114 2.773 2.564 2.996-0.193 0.268-0.38 0.547-0.557 0.84-1.723-0.455-2.942-2.019-2.942-3.836zM5.775 15.266c-0.208 0.244-0.419 0.493-0.63 0.749-0.083 0.010-0.167 0.015-0.25 0.015-1.152 0-2.089-0.939-2.089-2.094s0.937-2.094 2.089-2.094c1.087 0 1.992 0.849 2.081 1.92-0.346 0.498-0.762 0.987-1.201 1.503zM20.401 13.763c0.089-1.071 0.994-1.92 2.081-1.92 1.152 0 2.089 0.939 2.089 2.094s-0.937 2.094-2.089 2.094c-0.084 0-0.167-0.006-0.25-0.015-0.21-0.257-0.422-0.505-0.63-0.749-0.439-0.516-0.855-1.005-1.201-1.503z"></path>
<path d="M8.471 20.79c-0.404 0.37-0.863 0.789-0.863 1.397s0.458 1.027 0.863 1.397c0.215 0.196 0.437 0.4 0.503 0.56 0.073 0.176 0.060 0.489 0.048 0.791-0.021 0.538-0.046 1.147 0.367 1.56s1.021 0.389 1.557 0.368c0.302-0.012 0.614-0.025 0.79 0.048 0.16 0.066 0.363 0.289 0.558 0.504 0.369 0.405 0.788 0.865 1.394 0.865s1.025-0.459 1.394-0.865c0.196-0.215 0.399-0.438 0.558-0.504 0.176-0.073 0.488-0.060 0.79-0.048 0.536 0.022 1.144 0.046 1.557-0.368s0.388-1.023 0.367-1.56c-0.012-0.303-0.025-0.616 0.048-0.792 0.066-0.16 0.288-0.363 0.503-0.56 0.404-0.37 0.863-0.789 0.863-1.397s-0.458-1.027-0.863-1.397c-0.215-0.196-0.437-0.4-0.503-0.56-0.073-0.176-0.060-0.489-0.048-0.792 0.021-0.538 0.046-1.147-0.367-1.56s-1.020-0.389-1.557-0.368c-0.302 0.012-0.614 0.025-0.79-0.048-0.16-0.066-0.363-0.289-0.558-0.504-0.369-0.405-0.787-0.865-1.394-0.865s-1.025 0.459-1.394 0.865c-0.196 0.215-0.399 0.438-0.559 0.504-0.176 0.073-0.488 0.061-0.79 0.048-0.536-0.022-1.144-0.046-1.557 0.368s-0.388 1.023-0.367 1.56c0.012 0.303 0.025 0.616-0.048 0.791-0.066 0.16-0.288 0.363-0.503 0.56zM9.102 21.483c0.29-0.266 0.591-0.54 0.737-0.893 0.152-0.367 0.135-0.784 0.119-1.188-0.013-0.328-0.030-0.737 0.094-0.86s0.53-0.107 0.858-0.094c0.403 0.016 0.82 0.033 1.186-0.119 0.352-0.146 0.626-0.447 0.891-0.738 0.239-0.262 0.509-0.559 0.703-0.559s0.465 0.297 0.703 0.559c0.265 0.291 0.539 0.592 0.891 0.738 0.366 0.152 0.783 0.135 1.186 0.119 0.328-0.013 0.735-0.030 0.858 0.094s0.107 0.532 0.093 0.86c-0.016 0.404-0.033 0.822 0.119 1.188 0.146 0.353 0.446 0.628 0.737 0.893 0.262 0.239 0.558 0.511 0.558 0.705s-0.296 0.466-0.558 0.705c-0.29 0.266-0.591 0.54-0.737 0.893-0.152 0.367-0.135 0.784-0.119 1.188 0.013 0.328 0.029 0.736-0.093 0.86s-0.531 0.107-0.858 0.094c-0.403-0.016-0.82-0.033-1.186 0.119-0.352 0.146-0.626 0.447-0.891 0.738-0.239 0.262-0.509 0.559-0.703 0.559s-0.465-0.297-0.703-0.559c-0.265-0.291-0.539-0.592-0.891-0.738-0.251-0.105-0.527-0.129-0.806-0.129-0.127 0-0.254 0.005-0.38 0.010-0.327 0.013-0.735 0.030-0.858-0.094s-0.107-0.532-0.094-0.86c0.016-0.404 0.033-0.822-0.119-1.188-0.146-0.353-0.446-0.628-0.737-0.893-0.262-0.239-0.558-0.511-0.558-0.705s0.297-0.466 0.558-0.705z"></path>
</svg>
