<!-- Generated by IcoMoon.io -->
<svg version="1.1" xmlns="http://www.w3.org/2000/svg" width="32" height="32" viewBox="0 0 32 32">
<title>watering-graden</title>
<path d="M31.989 15.758c-0.072-0.864-0.513-1.657-1.208-2.175l-1.884-1.404v-3.098c0-0.261-0.211-0.472-0.472-0.472s-0.472 0.211-0.472 0.472v2.394l-0.945-0.704v-6.274c0-0.673-0.284-1.322-0.779-1.781-0.502-0.465-1.154-0.693-1.838-0.641-1.258 0.095-2.243 1.177-2.243 2.463v2.613l-0.945-0.704v-1.949c0-0.93 0.372-1.797 1.047-2.441s1.559-0.974 2.49-0.93c1.801 0.085 3.211 1.59 3.211 3.427v2.515c0 0.261 0.211 0.472 0.472 0.472s0.472-0.211 0.472-0.472v-2.515c0-2.342-1.806-4.262-4.111-4.37-1.192-0.056-2.324 0.366-3.187 1.19s-1.34 1.934-1.34 3.124v1.245l-3.094-2.184c-0.556-0.392-1.258-0.458-1.877-0.175s-1.029 0.856-1.096 1.533l-0.531 5.332-1.391 1.478c-0.179 0.19-0.17 0.489 0.020 0.668s0.489 0.17 0.668-0.020l5.432-5.773c0.339-0.36 0.893-0.409 1.289-0.113l0.876 0.653-8.791 9.343-0.706-0.827c-0.322-0.378-0.309-0.935 0.031-1.297l0.488-0.519c0.179-0.19 0.17-0.489-0.020-0.668s-0.489-0.17-0.668 0.020l-0.488 0.519c-0.671 0.713-0.698 1.812-0.062 2.557l3.693 4.328h-5.503c-0.224-1.268-1.333-2.234-2.664-2.234h-0.76c-0.467 0-0.846 0.38-0.846 0.846v6.149c0 0.467 0.38 0.846 0.846 0.846h0.76c1.331 0 2.44-0.966 2.664-2.234h8.381l1.896 2.223c0.555 0.65 1.363 1.037 2.217 1.061 0.029 0.001 0.057 0.001 0.086 0.001 0.824 0 1.617-0.338 2.188-0.934l7.863-8.217c0.599-0.626 0.902-1.481 0.829-2.345zM7.627 23.498c0 0.972-0.79 1.762-1.762 1.762h-0.662v-5.953h0.662c0.971 0 1.762 0.79 1.762 1.762l0 2.429zM23.093 4.536c0-0.795 0.602-1.463 1.37-1.521 0.418-0.032 0.818 0.108 1.124 0.392 0.303 0.281 0.476 0.678 0.476 1.089v5.57l-2.971-2.214v-3.317zM17.702 5.952l-2.979 3.167 0.41-4.11c0.034-0.339 0.239-0.626 0.549-0.768s0.661-0.109 0.94 0.088l1.687 1.191c-0.223 0.101-0.429 0.245-0.606 0.433zM8.572 23.025v-1.484h6.266l1.266 1.484h-7.533zM30.478 17.45l-7.863 8.217c-0.406 0.425-0.975 0.659-1.564 0.642-0.374-0.011-0.735-0.123-1.047-0.318l7.821-8.214c0.18-0.189 0.173-0.488-0.016-0.668s-0.488-0.172-0.668 0.016l-7.82 8.213-6.94-8.134 8.936-9.498 8.652 6.448-1.44 1.512c-0.18 0.189-0.173 0.488 0.016 0.668 0.091 0.087 0.209 0.13 0.326 0.13 0.125 0 0.249-0.049 0.342-0.147l1.45-1.523c0.218 0.303 0.353 0.662 0.385 1.041 0.050 0.594-0.158 1.183-0.571 1.614z"></path>
<path d="M21.651 15.868l0.381-0.382c0.737-0.737 0.737-1.937 0-2.674l-0.378-0.378c-0.136-0.136-0.317-0.211-0.51-0.211s-0.373 0.075-0.51 0.211l-0.54 0.54c-0.291 0.29-0.466 0.653-0.528 1.030-0.676-0.266-1.476-0.127-2.022 0.418l-1.284 1.284c-0.281 0.281-0.281 0.738 0 1.019l0.936 0.936c0.367 0.367 0.848 0.55 1.33 0.55s0.963-0.183 1.33-0.55l1.125-1.125 1.408 1.408c0.092 0.092 0.213 0.138 0.334 0.138s0.242-0.046 0.334-0.138c0.184-0.184 0.184-0.483 0-0.668l-1.408-1.408zM20.763 13.642l0.381-0.382 0.22 0.22c0.369 0.369 0.369 0.97 0 1.339l-0.382 0.382-0.22-0.22c-0.369-0.369-0.369-0.97 0-1.339zM19.189 16.994c-0.365 0.365-0.959 0.365-1.324 0l-0.777-0.777 1.125-1.125c0.365-0.365 0.959-0.365 1.324 0l0.777 0.777-1.125 1.125z"></path>
<path d="M2.9 23.697c-0.557 0-1.010 0.453-1.010 1.011v1.024c0 0.261 0.211 0.472 0.472 0.472s0.472-0.211 0.472-0.472v-1.024c0-0.036 0.030-0.066 0.066-0.066 0.261 0 0.472-0.211 0.472-0.472s-0.211-0.472-0.472-0.472z"></path>
<path d="M2.361 27.352c-0.261 0-0.472 0.211-0.472 0.472v3.364c0 0.261 0.211 0.472 0.472 0.472s0.472-0.211 0.472-0.472v-3.364c0-0.261-0.211-0.472-0.472-0.472z"></path>
<path d="M2.9 20.268c-1.599 0-2.9 1.301-2.9 2.899v8.182c0 0.261 0.211 0.472 0.472 0.472s0.472-0.211 0.472-0.472v-8.182c0-1.078 0.877-1.955 1.955-1.955 0.261 0 0.472-0.211 0.472-0.472s-0.211-0.472-0.472-0.472z"></path>
</svg>
