<!-- Generated by IcoMoon.io -->
<svg version="1.1" xmlns="http://www.w3.org/2000/svg" width="32" height="32" viewBox="0 0 32 32">
<title>weight-loss</title>
<path d="M25.329 0.728c0.057-0.34-0.173-0.663-0.513-0.72s-0.663 0.173-0.72 0.513c-0.611 3.643-0.162 7.361 1.298 10.752 0.575 1.335 1.033 2.707 1.376 4.101h-7.951c-0.345 0-0.625 0.28-0.625 0.625s0.28 0.625 0.625 0.625h8.226c0.102 0.525 0.189 1.052 0.259 1.58-1.975 0.686-3.824 1.661-5.501 2.905-1.793 1.33-3.351 2.939-4.637 4.785h-2.334c-1.286-1.847-2.844-3.456-4.637-4.785-1.677-1.244-3.525-2.219-5.501-2.905 0.070-0.529 0.156-1.056 0.259-1.58h8.242c0.345 0 0.625-0.28 0.625-0.625s-0.28-0.625-0.625-0.625h-7.966c0.343-1.394 0.801-2.766 1.376-4.101 1.461-3.391 1.91-7.109 1.298-10.752-0.057-0.34-0.38-0.57-0.72-0.513s-0.57 0.379-0.513 0.72c0.571 3.405 0.152 6.881-1.214 10.051-2.649 6.151-2.956 13.042-0.864 19.403l0.456 1.387c0.087 0.263 0.331 0.43 0.594 0.43 0.065 0 0.13-0.010 0.195-0.031 0.328-0.108 0.506-0.461 0.399-0.789l-0.456-1.387c-1.102-3.351-1.505-6.855-1.221-10.31 3.801 1.381 7.006 3.865 9.316 7.225v4.667c0 0.345 0.28 0.625 0.625 0.625s0.625-0.28 0.625-0.625v-4.229h1.75v4.229c0 0.345 0.28 0.625 0.625 0.625s0.625-0.28 0.625-0.625v-4.667c2.31-3.36 5.515-5.844 9.316-7.225 0.284 3.455-0.119 6.959-1.221 10.31l-0.456 1.387c-0.108 0.328 0.071 0.681 0.398 0.789 0.065 0.021 0.131 0.031 0.195 0.031 0.263 0 0.507-0.167 0.594-0.43l0.456-1.387c2.092-6.362 1.785-13.253-0.864-19.404-1.365-3.17-1.785-6.646-1.214-10.051z"></path>
<path d="M16 13.234c0.345 0 0.625-0.28 0.625-0.625v-0.5c0-0.345-0.28-0.625-0.625-0.625s-0.625 0.28-0.625 0.625v0.5c0 0.345 0.28 0.625 0.625 0.625z"></path>
<path d="M31.375 5.771h-1.901c0.132-0.238 0.098-0.543-0.104-0.745-0.244-0.244-0.64-0.244-0.884 0l-0.928 0.928c-0.117 0.117-0.183 0.276-0.183 0.442s0.066 0.325 0.183 0.442l0.928 0.928c0.122 0.122 0.282 0.183 0.442 0.183s0.32-0.061 0.442-0.183c0.202-0.202 0.236-0.507 0.104-0.745h1.901c0.345 0 0.625-0.28 0.625-0.625s-0.28-0.625-0.625-0.625z"></path>
<path d="M4.442 6.838c0.117-0.117 0.183-0.276 0.183-0.442s-0.066-0.325-0.183-0.442l-0.928-0.928c-0.244-0.244-0.64-0.244-0.884 0-0.202 0.202-0.236 0.507-0.104 0.745h-1.901c-0.345 0-0.625 0.28-0.625 0.625s0.28 0.625 0.625 0.625h1.901c-0.132 0.238-0.098 0.543 0.104 0.745 0.122 0.122 0.282 0.183 0.442 0.183s0.32-0.061 0.442-0.183l0.928-0.928z"></path>
<path d="M16.008 15.375c-0.164 0-0.326 0.067-0.442 0.183s-0.183 0.277-0.183 0.442 0.066 0.326 0.183 0.442c0.116 0.116 0.277 0.183 0.442 0.183s0.326-0.067 0.442-0.183c0.116-0.116 0.183-0.277 0.183-0.442s-0.067-0.326-0.183-0.442c-0.117-0.116-0.277-0.183-0.442-0.183z"></path>
</svg>
